%TF.GenerationSoftware,KiCad,Pcbnew,7.0.6*%
%TF.CreationDate,2023-08-18T22:01:20-04:00*%
%TF.ProjectId,mcu design,6d637520-6465-4736-9967-6e2e6b696361,rev?*%
%TF.SameCoordinates,Original*%
%TF.FileFunction,Soldermask,Top*%
%TF.FilePolarity,Negative*%
%FSLAX46Y46*%
G04 Gerber Fmt 4.6, Leading zero omitted, Abs format (unit mm)*
G04 Created by KiCad (PCBNEW 7.0.6) date 2023-08-18 22:01:20*
%MOMM*%
%LPD*%
G01*
G04 APERTURE LIST*
G04 Aperture macros list*
%AMRoundRect*
0 Rectangle with rounded corners*
0 $1 Rounding radius*
0 $2 $3 $4 $5 $6 $7 $8 $9 X,Y pos of 4 corners*
0 Add a 4 corners polygon primitive as box body*
4,1,4,$2,$3,$4,$5,$6,$7,$8,$9,$2,$3,0*
0 Add four circle primitives for the rounded corners*
1,1,$1+$1,$2,$3*
1,1,$1+$1,$4,$5*
1,1,$1+$1,$6,$7*
1,1,$1+$1,$8,$9*
0 Add four rect primitives between the rounded corners*
20,1,$1+$1,$2,$3,$4,$5,0*
20,1,$1+$1,$4,$5,$6,$7,0*
20,1,$1+$1,$6,$7,$8,$9,0*
20,1,$1+$1,$8,$9,$2,$3,0*%
G04 Aperture macros list end*
%ADD10RoundRect,0.140000X-0.140000X-0.170000X0.140000X-0.170000X0.140000X0.170000X-0.140000X0.170000X0*%
%ADD11RoundRect,0.225000X0.250000X-0.225000X0.250000X0.225000X-0.250000X0.225000X-0.250000X-0.225000X0*%
%ADD12R,1.350000X1.350000*%
%ADD13O,1.350000X1.350000*%
%ADD14R,0.510000X0.700000*%
%ADD15RoundRect,0.225000X-0.225000X-0.250000X0.225000X-0.250000X0.225000X0.250000X-0.225000X0.250000X0*%
%ADD16RoundRect,0.140000X0.140000X0.170000X-0.140000X0.170000X-0.140000X-0.170000X0.140000X-0.170000X0*%
%ADD17RoundRect,0.140000X0.170000X-0.140000X0.170000X0.140000X-0.170000X0.140000X-0.170000X-0.140000X0*%
%ADD18RoundRect,0.140000X-0.170000X0.140000X-0.170000X-0.140000X0.170000X-0.140000X0.170000X0.140000X0*%
%ADD19R,1.400000X1.200000*%
%ADD20RoundRect,0.225000X-0.250000X0.225000X-0.250000X-0.225000X0.250000X-0.225000X0.250000X0.225000X0*%
%ADD21RoundRect,0.225000X0.225000X0.250000X-0.225000X0.250000X-0.225000X-0.250000X0.225000X-0.250000X0*%
%ADD22R,1.400000X1.400000*%
%ADD23C,1.400000*%
%ADD24C,3.000000*%
%ADD25O,3.048000X1.850000*%
%ADD26RoundRect,0.075000X-0.350000X-0.075000X0.350000X-0.075000X0.350000X0.075000X-0.350000X0.075000X0*%
%ADD27RoundRect,0.075000X-0.075000X-0.350000X0.075000X-0.350000X0.075000X0.350000X-0.075000X0.350000X0*%
%ADD28R,2.100000X2.100000*%
%ADD29RoundRect,0.250000X0.625000X-0.375000X0.625000X0.375000X-0.625000X0.375000X-0.625000X-0.375000X0*%
%ADD30RoundRect,0.250000X-0.650000X0.325000X-0.650000X-0.325000X0.650000X-0.325000X0.650000X0.325000X0*%
%ADD31RoundRect,0.150000X-0.150000X0.512500X-0.150000X-0.512500X0.150000X-0.512500X0.150000X0.512500X0*%
%ADD32RoundRect,0.075000X0.075000X-0.725000X0.075000X0.725000X-0.075000X0.725000X-0.075000X-0.725000X0*%
%ADD33RoundRect,0.075000X0.725000X-0.075000X0.725000X0.075000X-0.725000X0.075000X-0.725000X-0.075000X0*%
%ADD34R,0.800000X1.000000*%
%ADD35C,0.900000*%
%ADD36R,1.500000X0.700000*%
%ADD37RoundRect,0.218750X-0.218750X-0.381250X0.218750X-0.381250X0.218750X0.381250X-0.218750X0.381250X0*%
G04 APERTURE END LIST*
D10*
%TO.C,C16*%
X115020000Y-72550000D03*
X115980000Y-72550000D03*
%TD*%
%TO.C,C23*%
X74406000Y-50055000D03*
X75366000Y-50055000D03*
%TD*%
D11*
%TO.C,C10*%
X88000000Y-43775000D03*
X88000000Y-42225000D03*
%TD*%
D12*
%TO.C,J10*%
X65500000Y-27000000D03*
D13*
X65500000Y-25000000D03*
X67500000Y-27000000D03*
X67500000Y-25000000D03*
X69500000Y-27000000D03*
X69500000Y-25000000D03*
X71500000Y-27000000D03*
X71500000Y-25000000D03*
X73500000Y-27000000D03*
X73500000Y-25000000D03*
X75500000Y-27000000D03*
X75500000Y-25000000D03*
X77500000Y-27000000D03*
X77500000Y-25000000D03*
X79500000Y-27000000D03*
X79500000Y-25000000D03*
X81500000Y-27000000D03*
X81500000Y-25000000D03*
X83500000Y-27000000D03*
X83500000Y-25000000D03*
%TD*%
D14*
%TO.C,Q1*%
X50450000Y-97340000D03*
X49500000Y-97340000D03*
X48550000Y-97340000D03*
X48550000Y-99660000D03*
X50450000Y-99660000D03*
%TD*%
D15*
%TO.C,C26*%
X85145000Y-47910000D03*
X86695000Y-47910000D03*
%TD*%
%TO.C,C9*%
X44825000Y-104400000D03*
X46375000Y-104400000D03*
%TD*%
D16*
%TO.C,R3*%
X71683500Y-91001000D03*
X70723500Y-91001000D03*
%TD*%
D12*
%TO.C,J16*%
X40000000Y-39000000D03*
D13*
X42000000Y-39000000D03*
X44000000Y-39000000D03*
X46000000Y-39000000D03*
X48000000Y-39000000D03*
X50000000Y-39000000D03*
X52000000Y-39000000D03*
X54000000Y-39000000D03*
X56000000Y-39000000D03*
X58000000Y-39000000D03*
X60000000Y-39000000D03*
X62000000Y-39000000D03*
X64000000Y-39000000D03*
X66000000Y-39000000D03*
X68000000Y-39000000D03*
X70000000Y-39000000D03*
%TD*%
D17*
%TO.C,C3*%
X70180000Y-72490000D03*
X70180000Y-71530000D03*
%TD*%
D18*
%TO.C,R7*%
X116144000Y-93295000D03*
X116144000Y-94255000D03*
%TD*%
D12*
%TO.C,J11*%
X37000000Y-43500000D03*
D13*
X37000000Y-45500000D03*
X37000000Y-47500000D03*
X37000000Y-49500000D03*
X37000000Y-51500000D03*
X37000000Y-53500000D03*
X37000000Y-55500000D03*
X37000000Y-57500000D03*
X37000000Y-59500000D03*
X37000000Y-61500000D03*
X37000000Y-63500000D03*
X37000000Y-65500000D03*
X37000000Y-67500000D03*
X37000000Y-69500000D03*
X37000000Y-71500000D03*
X37000000Y-73500000D03*
%TD*%
D19*
%TO.C,Y2*%
X67410000Y-70500000D03*
X65210000Y-70500000D03*
X65210000Y-72200000D03*
X67410000Y-72200000D03*
%TD*%
D20*
%TO.C,C24*%
X99600000Y-50625000D03*
X99600000Y-52175000D03*
%TD*%
D21*
%TO.C,D2*%
X75000000Y-91000000D03*
X73450000Y-91000000D03*
%TD*%
D16*
%TO.C,C25*%
X80090000Y-41890000D03*
X79130000Y-41890000D03*
%TD*%
%TO.C,C4*%
X67980000Y-67500000D03*
X67020000Y-67500000D03*
%TD*%
D18*
%TO.C,C20*%
X76400000Y-51349000D03*
X76400000Y-52309000D03*
%TD*%
D17*
%TO.C,C1*%
X63010000Y-72030000D03*
X63010000Y-71070000D03*
%TD*%
D10*
%TO.C,C6*%
X65580000Y-30300000D03*
X66540000Y-30300000D03*
%TD*%
%TO.C,C18*%
X91460000Y-51410000D03*
X92420000Y-51410000D03*
%TD*%
D22*
%TO.C,J12*%
X46230000Y-109890000D03*
D23*
X43730000Y-109890000D03*
X43730000Y-113090000D03*
X46230000Y-113090000D03*
D24*
X38960000Y-112600000D03*
X51000000Y-112600000D03*
%TD*%
D18*
%TO.C,C14*%
X76040000Y-63500000D03*
X76040000Y-64460000D03*
%TD*%
D21*
%TO.C,FB1*%
X94095000Y-44570000D03*
X92545000Y-44570000D03*
%TD*%
D17*
%TO.C,R19*%
X71191500Y-101980000D03*
X71191500Y-101020000D03*
%TD*%
%TO.C,R17*%
X97810000Y-48740000D03*
X97810000Y-47780000D03*
%TD*%
D11*
%TO.C,FB2*%
X70500000Y-68775000D03*
X70500000Y-67225000D03*
%TD*%
D25*
%TO.C,SW4*%
X100760000Y-93500000D03*
X113260000Y-93500000D03*
X100760000Y-98500000D03*
X113260000Y-98500000D03*
%TD*%
D26*
%TO.C,U2*%
X108025000Y-64550000D03*
X108025000Y-65200000D03*
X108025000Y-65850000D03*
X108025000Y-66500000D03*
D27*
X109000000Y-67475000D03*
X109650000Y-67475000D03*
X110300000Y-67475000D03*
X110950000Y-67475000D03*
D26*
X111925000Y-66500000D03*
X111925000Y-65850000D03*
X111925000Y-65200000D03*
X111925000Y-64550000D03*
D27*
X110950000Y-63575000D03*
X110300000Y-63575000D03*
X109650000Y-63575000D03*
X109000000Y-63575000D03*
D28*
X109975000Y-65525000D03*
%TD*%
D21*
%TO.C,D1*%
X75000000Y-96000000D03*
X73450000Y-96000000D03*
%TD*%
D18*
%TO.C,C5*%
X117180000Y-98742000D03*
X117180000Y-99702000D03*
%TD*%
D29*
%TO.C,F1*%
X49500000Y-104400000D03*
X49500000Y-101600000D03*
%TD*%
D12*
%TO.C,J2*%
X75000000Y-39000000D03*
D13*
X77000000Y-39000000D03*
X79000000Y-39000000D03*
X81000000Y-39000000D03*
X83000000Y-39000000D03*
X85000000Y-39000000D03*
X87000000Y-39000000D03*
X89000000Y-39000000D03*
X91000000Y-39000000D03*
X93000000Y-39000000D03*
X95000000Y-39000000D03*
X97000000Y-39000000D03*
X99000000Y-39000000D03*
X101000000Y-39000000D03*
X103000000Y-39000000D03*
X105000000Y-39000000D03*
%TD*%
D30*
%TO.C,C17*%
X102770000Y-48725000D03*
X102770000Y-51675000D03*
%TD*%
D17*
%TO.C,R6*%
X63500000Y-45500000D03*
X63500000Y-44540000D03*
%TD*%
D21*
%TO.C,D0*%
X75000000Y-101000000D03*
X73450000Y-101000000D03*
%TD*%
D16*
%TO.C,R2*%
X71671500Y-96001000D03*
X70711500Y-96001000D03*
%TD*%
D12*
%TO.C,J13*%
X75000000Y-78000000D03*
D13*
X77000000Y-78000000D03*
X79000000Y-78000000D03*
X81000000Y-78000000D03*
X83000000Y-78000000D03*
X85000000Y-78000000D03*
X87000000Y-78000000D03*
X89000000Y-78000000D03*
X91000000Y-78000000D03*
X93000000Y-78000000D03*
X95000000Y-78000000D03*
X97000000Y-78000000D03*
X99000000Y-78000000D03*
X101000000Y-78000000D03*
X103000000Y-78000000D03*
X105000000Y-78000000D03*
%TD*%
D18*
%TO.C,R11*%
X41230000Y-99310000D03*
X41230000Y-100270000D03*
%TD*%
D17*
%TO.C,C2*%
X106500000Y-64222000D03*
X106500000Y-63262000D03*
%TD*%
D12*
%TO.C,J15*%
X40000000Y-78000000D03*
D13*
X42000000Y-78000000D03*
X44000000Y-78000000D03*
X46000000Y-78000000D03*
X48000000Y-78000000D03*
X50000000Y-78000000D03*
X52000000Y-78000000D03*
X54000000Y-78000000D03*
X56000000Y-78000000D03*
X58000000Y-78000000D03*
X60000000Y-78000000D03*
X62000000Y-78000000D03*
X64000000Y-78000000D03*
X66000000Y-78000000D03*
X68000000Y-78000000D03*
X70000000Y-78000000D03*
%TD*%
D17*
%TO.C,C13*%
X57000000Y-63993000D03*
X57000000Y-63033000D03*
%TD*%
D31*
%TO.C,U3*%
X90750000Y-46262500D03*
X89800000Y-46262500D03*
X88850000Y-46262500D03*
X88850000Y-48537500D03*
X89800000Y-48537500D03*
X90750000Y-48537500D03*
%TD*%
D18*
%TO.C,C21*%
X63000000Y-67500000D03*
X63000000Y-68460000D03*
%TD*%
D10*
%TO.C,C7*%
X65920000Y-22700000D03*
X66880000Y-22700000D03*
%TD*%
%TO.C,R8*%
X116425000Y-97500000D03*
X117385000Y-97500000D03*
%TD*%
D18*
%TO.C,R10*%
X44860000Y-100000000D03*
X44860000Y-100960000D03*
%TD*%
D15*
%TO.C,C8*%
X74785000Y-69860000D03*
X76335000Y-69860000D03*
%TD*%
D32*
%TO.C,U1*%
X60500000Y-65350000D03*
X61000000Y-65350000D03*
X61500000Y-65350000D03*
X62000000Y-65350000D03*
X62500000Y-65350000D03*
X63000000Y-65350000D03*
X63500000Y-65350000D03*
X64000000Y-65350000D03*
X64500000Y-65350000D03*
X65000000Y-65350000D03*
X65500000Y-65350000D03*
X66000000Y-65350000D03*
X66500000Y-65350000D03*
X67000000Y-65350000D03*
X67500000Y-65350000D03*
X68000000Y-65350000D03*
X68500000Y-65350000D03*
X69000000Y-65350000D03*
X69500000Y-65350000D03*
X70000000Y-65350000D03*
X70500000Y-65350000D03*
X71000000Y-65350000D03*
X71500000Y-65350000D03*
X72000000Y-65350000D03*
X72500000Y-65350000D03*
D33*
X74175000Y-63675000D03*
X74175000Y-63175000D03*
X74175000Y-62675000D03*
X74175000Y-62175000D03*
X74175000Y-61675000D03*
X74175000Y-61175000D03*
X74175000Y-60675000D03*
X74175000Y-60175000D03*
X74175000Y-59675000D03*
X74175000Y-59175000D03*
X74175000Y-58675000D03*
X74175000Y-58175000D03*
X74175000Y-57675000D03*
X74175000Y-57175000D03*
X74175000Y-56675000D03*
X74175000Y-56175000D03*
X74175000Y-55675000D03*
X74175000Y-55175000D03*
X74175000Y-54675000D03*
X74175000Y-54175000D03*
X74175000Y-53675000D03*
X74175000Y-53175000D03*
X74175000Y-52675000D03*
X74175000Y-52175000D03*
X74175000Y-51675000D03*
D32*
X72500000Y-50000000D03*
X72000000Y-50000000D03*
X71500000Y-50000000D03*
X71000000Y-50000000D03*
X70500000Y-50000000D03*
X70000000Y-50000000D03*
X69500000Y-50000000D03*
X69000000Y-50000000D03*
X68500000Y-50000000D03*
X68000000Y-50000000D03*
X67500000Y-50000000D03*
X67000000Y-50000000D03*
X66500000Y-50000000D03*
X66000000Y-50000000D03*
X65500000Y-50000000D03*
X65000000Y-50000000D03*
X64500000Y-50000000D03*
X64000000Y-50000000D03*
X63500000Y-50000000D03*
X63000000Y-50000000D03*
X62500000Y-50000000D03*
X62000000Y-50000000D03*
X61500000Y-50000000D03*
X61000000Y-50000000D03*
X60500000Y-50000000D03*
D33*
X58825000Y-51675000D03*
X58825000Y-52175000D03*
X58825000Y-52675000D03*
X58825000Y-53175000D03*
X58825000Y-53675000D03*
X58825000Y-54175000D03*
X58825000Y-54675000D03*
X58825000Y-55175000D03*
X58825000Y-55675000D03*
X58825000Y-56175000D03*
X58825000Y-56675000D03*
X58825000Y-57175000D03*
X58825000Y-57675000D03*
X58825000Y-58175000D03*
X58825000Y-58675000D03*
X58825000Y-59175000D03*
X58825000Y-59675000D03*
X58825000Y-60175000D03*
X58825000Y-60675000D03*
X58825000Y-61175000D03*
X58825000Y-61675000D03*
X58825000Y-62175000D03*
X58825000Y-62675000D03*
X58825000Y-63175000D03*
X58825000Y-63675000D03*
%TD*%
D17*
%TO.C,R9*%
X64040000Y-47980000D03*
X64040000Y-47020000D03*
%TD*%
D15*
%TO.C,C12*%
X73405000Y-67500000D03*
X74955000Y-67500000D03*
%TD*%
D10*
%TO.C,C15*%
X115040000Y-69550000D03*
X116000000Y-69550000D03*
%TD*%
D20*
%TO.C,FB3*%
X83500000Y-43725000D03*
X83500000Y-45275000D03*
%TD*%
D10*
%TO.C,C22*%
X59320000Y-47800000D03*
X60280000Y-47800000D03*
%TD*%
%TO.C,R18*%
X99380000Y-48070000D03*
X100340000Y-48070000D03*
%TD*%
D34*
%TO.C,SW2*%
X29625000Y-28130000D03*
X27415000Y-28130000D03*
D35*
X28515000Y-30280000D03*
X28515000Y-33280000D03*
D34*
X29625000Y-35430000D03*
X27415000Y-35430000D03*
D36*
X30275000Y-29530000D03*
X30275000Y-32530000D03*
X30275000Y-34030000D03*
%TD*%
D17*
%TO.C,R1*%
X33515000Y-34894000D03*
X33515000Y-33934000D03*
%TD*%
D21*
%TO.C,C11*%
X42355000Y-102350000D03*
X40805000Y-102350000D03*
%TD*%
D15*
%TO.C,C19*%
X83235000Y-42190000D03*
X84785000Y-42190000D03*
%TD*%
D37*
%TO.C,L1*%
X95600000Y-51961000D03*
X97725000Y-51961000D03*
%TD*%
M02*
