%TF.GenerationSoftware,KiCad,Pcbnew,7.0.6*%
%TF.CreationDate,2023-08-18T22:01:20-04:00*%
%TF.ProjectId,mcu design,6d637520-6465-4736-9967-6e2e6b696361,rev?*%
%TF.SameCoordinates,Original*%
%TF.FileFunction,Legend,Top*%
%TF.FilePolarity,Positive*%
%FSLAX46Y46*%
G04 Gerber Fmt 4.6, Leading zero omitted, Abs format (unit mm)*
G04 Created by KiCad (PCBNEW 7.0.6) date 2023-08-18 22:01:20*
%MOMM*%
%LPD*%
G01*
G04 APERTURE LIST*
%ADD10C,0.300000*%
%ADD11C,0.063500*%
%ADD12C,0.150000*%
%ADD13C,0.120000*%
G04 APERTURE END LIST*
D10*
X78200828Y-36788346D02*
X78200828Y-35859774D01*
X78200828Y-35859774D02*
X78772257Y-36359774D01*
X78772257Y-36359774D02*
X78772257Y-36145489D01*
X78772257Y-36145489D02*
X78843685Y-36002632D01*
X78843685Y-36002632D02*
X78915114Y-35931203D01*
X78915114Y-35931203D02*
X79057971Y-35859774D01*
X79057971Y-35859774D02*
X79415114Y-35859774D01*
X79415114Y-35859774D02*
X79557971Y-35931203D01*
X79557971Y-35931203D02*
X79629400Y-36002632D01*
X79629400Y-36002632D02*
X79700828Y-36145489D01*
X79700828Y-36145489D02*
X79700828Y-36574060D01*
X79700828Y-36574060D02*
X79629400Y-36716917D01*
X79629400Y-36716917D02*
X79557971Y-36788346D01*
X78200828Y-35431203D02*
X79700828Y-34931203D01*
X79700828Y-34931203D02*
X78200828Y-34431203D01*
X78200828Y-34074061D02*
X78200828Y-33145489D01*
X78200828Y-33145489D02*
X78772257Y-33645489D01*
X78772257Y-33645489D02*
X78772257Y-33431204D01*
X78772257Y-33431204D02*
X78843685Y-33288347D01*
X78843685Y-33288347D02*
X78915114Y-33216918D01*
X78915114Y-33216918D02*
X79057971Y-33145489D01*
X79057971Y-33145489D02*
X79415114Y-33145489D01*
X79415114Y-33145489D02*
X79557971Y-33216918D01*
X79557971Y-33216918D02*
X79629400Y-33288347D01*
X79629400Y-33288347D02*
X79700828Y-33431204D01*
X79700828Y-33431204D02*
X79700828Y-33859775D01*
X79700828Y-33859775D02*
X79629400Y-34002632D01*
X79629400Y-34002632D02*
X79557971Y-34074061D01*
X98272257Y-35959774D02*
X98200828Y-36102632D01*
X98200828Y-36102632D02*
X98200828Y-36316917D01*
X98200828Y-36316917D02*
X98272257Y-36531203D01*
X98272257Y-36531203D02*
X98415114Y-36674060D01*
X98415114Y-36674060D02*
X98557971Y-36745489D01*
X98557971Y-36745489D02*
X98843685Y-36816917D01*
X98843685Y-36816917D02*
X99057971Y-36816917D01*
X99057971Y-36816917D02*
X99343685Y-36745489D01*
X99343685Y-36745489D02*
X99486542Y-36674060D01*
X99486542Y-36674060D02*
X99629400Y-36531203D01*
X99629400Y-36531203D02*
X99700828Y-36316917D01*
X99700828Y-36316917D02*
X99700828Y-36174060D01*
X99700828Y-36174060D02*
X99629400Y-35959774D01*
X99629400Y-35959774D02*
X99557971Y-35888346D01*
X99557971Y-35888346D02*
X99057971Y-35888346D01*
X99057971Y-35888346D02*
X99057971Y-36174060D01*
X99700828Y-35245489D02*
X98200828Y-35245489D01*
X98200828Y-35245489D02*
X99700828Y-34388346D01*
X99700828Y-34388346D02*
X98200828Y-34388346D01*
X99700828Y-33674060D02*
X98200828Y-33674060D01*
X98200828Y-33674060D02*
X98200828Y-33316917D01*
X98200828Y-33316917D02*
X98272257Y-33102631D01*
X98272257Y-33102631D02*
X98415114Y-32959774D01*
X98415114Y-32959774D02*
X98557971Y-32888345D01*
X98557971Y-32888345D02*
X98843685Y-32816917D01*
X98843685Y-32816917D02*
X99057971Y-32816917D01*
X99057971Y-32816917D02*
X99343685Y-32888345D01*
X99343685Y-32888345D02*
X99486542Y-32959774D01*
X99486542Y-32959774D02*
X99629400Y-33102631D01*
X99629400Y-33102631D02*
X99700828Y-33316917D01*
X99700828Y-33316917D02*
X99700828Y-33674060D01*
X52054510Y-37300828D02*
X52054510Y-35800828D01*
X52054510Y-35800828D02*
X52625939Y-35800828D01*
X52625939Y-35800828D02*
X52768796Y-35872257D01*
X52768796Y-35872257D02*
X52840225Y-35943685D01*
X52840225Y-35943685D02*
X52911653Y-36086542D01*
X52911653Y-36086542D02*
X52911653Y-36300828D01*
X52911653Y-36300828D02*
X52840225Y-36443685D01*
X52840225Y-36443685D02*
X52768796Y-36515114D01*
X52768796Y-36515114D02*
X52625939Y-36586542D01*
X52625939Y-36586542D02*
X52054510Y-36586542D01*
X53840225Y-35800828D02*
X54125939Y-35800828D01*
X54125939Y-35800828D02*
X54268796Y-35872257D01*
X54268796Y-35872257D02*
X54411653Y-36015114D01*
X54411653Y-36015114D02*
X54483082Y-36300828D01*
X54483082Y-36300828D02*
X54483082Y-36800828D01*
X54483082Y-36800828D02*
X54411653Y-37086542D01*
X54411653Y-37086542D02*
X54268796Y-37229400D01*
X54268796Y-37229400D02*
X54125939Y-37300828D01*
X54125939Y-37300828D02*
X53840225Y-37300828D01*
X53840225Y-37300828D02*
X53697368Y-37229400D01*
X53697368Y-37229400D02*
X53554510Y-37086542D01*
X53554510Y-37086542D02*
X53483082Y-36800828D01*
X53483082Y-36800828D02*
X53483082Y-36300828D01*
X53483082Y-36300828D02*
X53554510Y-36015114D01*
X53554510Y-36015114D02*
X53697368Y-35872257D01*
X53697368Y-35872257D02*
X53840225Y-35800828D01*
X55983082Y-37300828D02*
X55483082Y-36586542D01*
X55125939Y-37300828D02*
X55125939Y-35800828D01*
X55125939Y-35800828D02*
X55697368Y-35800828D01*
X55697368Y-35800828D02*
X55840225Y-35872257D01*
X55840225Y-35872257D02*
X55911654Y-35943685D01*
X55911654Y-35943685D02*
X55983082Y-36086542D01*
X55983082Y-36086542D02*
X55983082Y-36300828D01*
X55983082Y-36300828D02*
X55911654Y-36443685D01*
X55911654Y-36443685D02*
X55840225Y-36515114D01*
X55840225Y-36515114D02*
X55697368Y-36586542D01*
X55697368Y-36586542D02*
X55125939Y-36586542D01*
X56411654Y-35800828D02*
X57268797Y-35800828D01*
X56840225Y-37300828D02*
X56840225Y-35800828D01*
X58268796Y-36515114D02*
X58483082Y-36586542D01*
X58483082Y-36586542D02*
X58554511Y-36657971D01*
X58554511Y-36657971D02*
X58625939Y-36800828D01*
X58625939Y-36800828D02*
X58625939Y-37015114D01*
X58625939Y-37015114D02*
X58554511Y-37157971D01*
X58554511Y-37157971D02*
X58483082Y-37229400D01*
X58483082Y-37229400D02*
X58340225Y-37300828D01*
X58340225Y-37300828D02*
X57768796Y-37300828D01*
X57768796Y-37300828D02*
X57768796Y-35800828D01*
X57768796Y-35800828D02*
X58268796Y-35800828D01*
X58268796Y-35800828D02*
X58411654Y-35872257D01*
X58411654Y-35872257D02*
X58483082Y-35943685D01*
X58483082Y-35943685D02*
X58554511Y-36086542D01*
X58554511Y-36086542D02*
X58554511Y-36229400D01*
X58554511Y-36229400D02*
X58483082Y-36372257D01*
X58483082Y-36372257D02*
X58411654Y-36443685D01*
X58411654Y-36443685D02*
X58268796Y-36515114D01*
X58268796Y-36515114D02*
X57768796Y-36515114D01*
D11*
X62510656Y-94842274D02*
X62510656Y-93572274D01*
X62510656Y-93572274D02*
X62813037Y-93572274D01*
X62813037Y-93572274D02*
X62994466Y-93632750D01*
X62994466Y-93632750D02*
X63115418Y-93753702D01*
X63115418Y-93753702D02*
X63175895Y-93874655D01*
X63175895Y-93874655D02*
X63236371Y-94116559D01*
X63236371Y-94116559D02*
X63236371Y-94297988D01*
X63236371Y-94297988D02*
X63175895Y-94539893D01*
X63175895Y-94539893D02*
X63115418Y-94660845D01*
X63115418Y-94660845D02*
X62994466Y-94781798D01*
X62994466Y-94781798D02*
X62813037Y-94842274D01*
X62813037Y-94842274D02*
X62510656Y-94842274D01*
X63780656Y-94177036D02*
X64203990Y-94177036D01*
X64385418Y-94842274D02*
X63780656Y-94842274D01*
X63780656Y-94842274D02*
X63780656Y-93572274D01*
X63780656Y-93572274D02*
X64385418Y-93572274D01*
X64748276Y-93572274D02*
X65171609Y-94842274D01*
X65171609Y-94842274D02*
X65594943Y-93572274D01*
X66018275Y-94842274D02*
X66018275Y-93572274D01*
X67348752Y-94721321D02*
X67288276Y-94781798D01*
X67288276Y-94781798D02*
X67106847Y-94842274D01*
X67106847Y-94842274D02*
X66985895Y-94842274D01*
X66985895Y-94842274D02*
X66804466Y-94781798D01*
X66804466Y-94781798D02*
X66683514Y-94660845D01*
X66683514Y-94660845D02*
X66623037Y-94539893D01*
X66623037Y-94539893D02*
X66562561Y-94297988D01*
X66562561Y-94297988D02*
X66562561Y-94116559D01*
X66562561Y-94116559D02*
X66623037Y-93874655D01*
X66623037Y-93874655D02*
X66683514Y-93753702D01*
X66683514Y-93753702D02*
X66804466Y-93632750D01*
X66804466Y-93632750D02*
X66985895Y-93572274D01*
X66985895Y-93572274D02*
X67106847Y-93572274D01*
X67106847Y-93572274D02*
X67288276Y-93632750D01*
X67288276Y-93632750D02*
X67348752Y-93693226D01*
X67893037Y-94177036D02*
X68316371Y-94177036D01*
X68497799Y-94842274D02*
X67893037Y-94842274D01*
X67893037Y-94842274D02*
X67893037Y-93572274D01*
X67893037Y-93572274D02*
X68497799Y-93572274D01*
X70735419Y-94842274D02*
X70312085Y-94237512D01*
X70009704Y-94842274D02*
X70009704Y-93572274D01*
X70009704Y-93572274D02*
X70493514Y-93572274D01*
X70493514Y-93572274D02*
X70614466Y-93632750D01*
X70614466Y-93632750D02*
X70674943Y-93693226D01*
X70674943Y-93693226D02*
X70735419Y-93814178D01*
X70735419Y-93814178D02*
X70735419Y-93995607D01*
X70735419Y-93995607D02*
X70674943Y-94116559D01*
X70674943Y-94116559D02*
X70614466Y-94177036D01*
X70614466Y-94177036D02*
X70493514Y-94237512D01*
X70493514Y-94237512D02*
X70009704Y-94237512D01*
X71279704Y-94177036D02*
X71703038Y-94177036D01*
X71884466Y-94842274D02*
X71279704Y-94842274D01*
X71279704Y-94842274D02*
X71279704Y-93572274D01*
X71279704Y-93572274D02*
X71884466Y-93572274D01*
X73154467Y-94721321D02*
X73093991Y-94781798D01*
X73093991Y-94781798D02*
X72912562Y-94842274D01*
X72912562Y-94842274D02*
X72791610Y-94842274D01*
X72791610Y-94842274D02*
X72610181Y-94781798D01*
X72610181Y-94781798D02*
X72489229Y-94660845D01*
X72489229Y-94660845D02*
X72428752Y-94539893D01*
X72428752Y-94539893D02*
X72368276Y-94297988D01*
X72368276Y-94297988D02*
X72368276Y-94116559D01*
X72368276Y-94116559D02*
X72428752Y-93874655D01*
X72428752Y-93874655D02*
X72489229Y-93753702D01*
X72489229Y-93753702D02*
X72610181Y-93632750D01*
X72610181Y-93632750D02*
X72791610Y-93572274D01*
X72791610Y-93572274D02*
X72912562Y-93572274D01*
X72912562Y-93572274D02*
X73093991Y-93632750D01*
X73093991Y-93632750D02*
X73154467Y-93693226D01*
X73698752Y-94842274D02*
X73698752Y-93572274D01*
X74303514Y-94177036D02*
X74726848Y-94177036D01*
X74908276Y-94842274D02*
X74303514Y-94842274D01*
X74303514Y-94842274D02*
X74303514Y-93572274D01*
X74303514Y-93572274D02*
X74908276Y-93572274D01*
X75271134Y-93572274D02*
X75694467Y-94842274D01*
X75694467Y-94842274D02*
X76117801Y-93572274D01*
X76541133Y-94842274D02*
X76541133Y-93572274D01*
X77145895Y-94842274D02*
X77145895Y-93572274D01*
X77145895Y-93572274D02*
X77871610Y-94842274D01*
X77871610Y-94842274D02*
X77871610Y-93572274D01*
X79141610Y-93632750D02*
X79020657Y-93572274D01*
X79020657Y-93572274D02*
X78839229Y-93572274D01*
X78839229Y-93572274D02*
X78657800Y-93632750D01*
X78657800Y-93632750D02*
X78536848Y-93753702D01*
X78536848Y-93753702D02*
X78476371Y-93874655D01*
X78476371Y-93874655D02*
X78415895Y-94116559D01*
X78415895Y-94116559D02*
X78415895Y-94297988D01*
X78415895Y-94297988D02*
X78476371Y-94539893D01*
X78476371Y-94539893D02*
X78536848Y-94660845D01*
X78536848Y-94660845D02*
X78657800Y-94781798D01*
X78657800Y-94781798D02*
X78839229Y-94842274D01*
X78839229Y-94842274D02*
X78960181Y-94842274D01*
X78960181Y-94842274D02*
X79141610Y-94781798D01*
X79141610Y-94781798D02*
X79202086Y-94721321D01*
X79202086Y-94721321D02*
X79202086Y-94297988D01*
X79202086Y-94297988D02*
X78960181Y-94297988D01*
X80955895Y-93572274D02*
X81197800Y-93572274D01*
X81197800Y-93572274D02*
X81318752Y-93632750D01*
X81318752Y-93632750D02*
X81439705Y-93753702D01*
X81439705Y-93753702D02*
X81500181Y-93995607D01*
X81500181Y-93995607D02*
X81500181Y-94418940D01*
X81500181Y-94418940D02*
X81439705Y-94660845D01*
X81439705Y-94660845D02*
X81318752Y-94781798D01*
X81318752Y-94781798D02*
X81197800Y-94842274D01*
X81197800Y-94842274D02*
X80955895Y-94842274D01*
X80955895Y-94842274D02*
X80834943Y-94781798D01*
X80834943Y-94781798D02*
X80713990Y-94660845D01*
X80713990Y-94660845D02*
X80653514Y-94418940D01*
X80653514Y-94418940D02*
X80653514Y-93995607D01*
X80653514Y-93995607D02*
X80713990Y-93753702D01*
X80713990Y-93753702D02*
X80834943Y-93632750D01*
X80834943Y-93632750D02*
X80955895Y-93572274D01*
X81863038Y-93572274D02*
X82286371Y-94842274D01*
X82286371Y-94842274D02*
X82709705Y-93572274D01*
X83133037Y-94177036D02*
X83556371Y-94177036D01*
X83737799Y-94842274D02*
X83133037Y-94842274D01*
X83133037Y-94842274D02*
X83133037Y-93572274D01*
X83133037Y-93572274D02*
X83737799Y-93572274D01*
X85007800Y-94842274D02*
X84584466Y-94237512D01*
X84282085Y-94842274D02*
X84282085Y-93572274D01*
X84282085Y-93572274D02*
X84765895Y-93572274D01*
X84765895Y-93572274D02*
X84886847Y-93632750D01*
X84886847Y-93632750D02*
X84947324Y-93693226D01*
X84947324Y-93693226D02*
X85007800Y-93814178D01*
X85007800Y-93814178D02*
X85007800Y-93995607D01*
X85007800Y-93995607D02*
X84947324Y-94116559D01*
X84947324Y-94116559D02*
X84886847Y-94177036D01*
X84886847Y-94177036D02*
X84765895Y-94237512D01*
X84765895Y-94237512D02*
X84282085Y-94237512D01*
X86519704Y-93572274D02*
X86519704Y-94600369D01*
X86519704Y-94600369D02*
X86580181Y-94721321D01*
X86580181Y-94721321D02*
X86640657Y-94781798D01*
X86640657Y-94781798D02*
X86761609Y-94842274D01*
X86761609Y-94842274D02*
X87003514Y-94842274D01*
X87003514Y-94842274D02*
X87124466Y-94781798D01*
X87124466Y-94781798D02*
X87184943Y-94721321D01*
X87184943Y-94721321D02*
X87245419Y-94600369D01*
X87245419Y-94600369D02*
X87245419Y-93572274D01*
X87789704Y-94781798D02*
X87971133Y-94842274D01*
X87971133Y-94842274D02*
X88273514Y-94842274D01*
X88273514Y-94842274D02*
X88394466Y-94781798D01*
X88394466Y-94781798D02*
X88454942Y-94721321D01*
X88454942Y-94721321D02*
X88515419Y-94600369D01*
X88515419Y-94600369D02*
X88515419Y-94479417D01*
X88515419Y-94479417D02*
X88454942Y-94358464D01*
X88454942Y-94358464D02*
X88394466Y-94297988D01*
X88394466Y-94297988D02*
X88273514Y-94237512D01*
X88273514Y-94237512D02*
X88031609Y-94177036D01*
X88031609Y-94177036D02*
X87910657Y-94116559D01*
X87910657Y-94116559D02*
X87850180Y-94056083D01*
X87850180Y-94056083D02*
X87789704Y-93935131D01*
X87789704Y-93935131D02*
X87789704Y-93814178D01*
X87789704Y-93814178D02*
X87850180Y-93693226D01*
X87850180Y-93693226D02*
X87910657Y-93632750D01*
X87910657Y-93632750D02*
X88031609Y-93572274D01*
X88031609Y-93572274D02*
X88333990Y-93572274D01*
X88333990Y-93572274D02*
X88515419Y-93632750D01*
X89483038Y-94177036D02*
X89664466Y-94237512D01*
X89664466Y-94237512D02*
X89724943Y-94297988D01*
X89724943Y-94297988D02*
X89785419Y-94418940D01*
X89785419Y-94418940D02*
X89785419Y-94600369D01*
X89785419Y-94600369D02*
X89724943Y-94721321D01*
X89724943Y-94721321D02*
X89664466Y-94781798D01*
X89664466Y-94781798D02*
X89543514Y-94842274D01*
X89543514Y-94842274D02*
X89059704Y-94842274D01*
X89059704Y-94842274D02*
X89059704Y-93572274D01*
X89059704Y-93572274D02*
X89483038Y-93572274D01*
X89483038Y-93572274D02*
X89603990Y-93632750D01*
X89603990Y-93632750D02*
X89664466Y-93693226D01*
X89664466Y-93693226D02*
X89724943Y-93814178D01*
X89724943Y-93814178D02*
X89724943Y-93935131D01*
X89724943Y-93935131D02*
X89664466Y-94056083D01*
X89664466Y-94056083D02*
X89603990Y-94116559D01*
X89603990Y-94116559D02*
X89483038Y-94177036D01*
X89483038Y-94177036D02*
X89059704Y-94177036D01*
D10*
X35260828Y-73869774D02*
X35260828Y-74726917D01*
X35260828Y-74298346D02*
X33760828Y-74298346D01*
X33760828Y-74298346D02*
X33975114Y-74441203D01*
X33975114Y-74441203D02*
X34117971Y-74584060D01*
X34117971Y-74584060D02*
X34189400Y-74726917D01*
X33760828Y-72512632D02*
X33760828Y-73226918D01*
X33760828Y-73226918D02*
X34475114Y-73298346D01*
X34475114Y-73298346D02*
X34403685Y-73226918D01*
X34403685Y-73226918D02*
X34332257Y-73084061D01*
X34332257Y-73084061D02*
X34332257Y-72726918D01*
X34332257Y-72726918D02*
X34403685Y-72584061D01*
X34403685Y-72584061D02*
X34475114Y-72512632D01*
X34475114Y-72512632D02*
X34617971Y-72441203D01*
X34617971Y-72441203D02*
X34975114Y-72441203D01*
X34975114Y-72441203D02*
X35117971Y-72512632D01*
X35117971Y-72512632D02*
X35189400Y-72584061D01*
X35189400Y-72584061D02*
X35260828Y-72726918D01*
X35260828Y-72726918D02*
X35260828Y-73084061D01*
X35260828Y-73084061D02*
X35189400Y-73226918D01*
X35189400Y-73226918D02*
X35117971Y-73298346D01*
X107554510Y-39015114D02*
X107768796Y-39086542D01*
X107768796Y-39086542D02*
X107840225Y-39157971D01*
X107840225Y-39157971D02*
X107911653Y-39300828D01*
X107911653Y-39300828D02*
X107911653Y-39515114D01*
X107911653Y-39515114D02*
X107840225Y-39657971D01*
X107840225Y-39657971D02*
X107768796Y-39729400D01*
X107768796Y-39729400D02*
X107625939Y-39800828D01*
X107625939Y-39800828D02*
X107054510Y-39800828D01*
X107054510Y-39800828D02*
X107054510Y-38300828D01*
X107054510Y-38300828D02*
X107554510Y-38300828D01*
X107554510Y-38300828D02*
X107697368Y-38372257D01*
X107697368Y-38372257D02*
X107768796Y-38443685D01*
X107768796Y-38443685D02*
X107840225Y-38586542D01*
X107840225Y-38586542D02*
X107840225Y-38729400D01*
X107840225Y-38729400D02*
X107768796Y-38872257D01*
X107768796Y-38872257D02*
X107697368Y-38943685D01*
X107697368Y-38943685D02*
X107554510Y-39015114D01*
X107554510Y-39015114D02*
X107054510Y-39015114D01*
X109411653Y-39800828D02*
X108911653Y-39086542D01*
X108554510Y-39800828D02*
X108554510Y-38300828D01*
X108554510Y-38300828D02*
X109125939Y-38300828D01*
X109125939Y-38300828D02*
X109268796Y-38372257D01*
X109268796Y-38372257D02*
X109340225Y-38443685D01*
X109340225Y-38443685D02*
X109411653Y-38586542D01*
X109411653Y-38586542D02*
X109411653Y-38800828D01*
X109411653Y-38800828D02*
X109340225Y-38943685D01*
X109340225Y-38943685D02*
X109268796Y-39015114D01*
X109268796Y-39015114D02*
X109125939Y-39086542D01*
X109125939Y-39086542D02*
X108554510Y-39086542D01*
X110054510Y-39015114D02*
X110554510Y-39015114D01*
X110768796Y-39800828D02*
X110054510Y-39800828D01*
X110054510Y-39800828D02*
X110054510Y-38300828D01*
X110054510Y-38300828D02*
X110768796Y-38300828D01*
X111340225Y-39372257D02*
X112054511Y-39372257D01*
X111197368Y-39800828D02*
X111697368Y-38300828D01*
X111697368Y-38300828D02*
X112197368Y-39800828D01*
X112697367Y-39800828D02*
X112697367Y-38300828D01*
X113554510Y-39800828D02*
X112911653Y-38943685D01*
X113554510Y-38300828D02*
X112697367Y-39157971D01*
X114483082Y-38300828D02*
X114768796Y-38300828D01*
X114768796Y-38300828D02*
X114911653Y-38372257D01*
X114911653Y-38372257D02*
X115054510Y-38515114D01*
X115054510Y-38515114D02*
X115125939Y-38800828D01*
X115125939Y-38800828D02*
X115125939Y-39300828D01*
X115125939Y-39300828D02*
X115054510Y-39586542D01*
X115054510Y-39586542D02*
X114911653Y-39729400D01*
X114911653Y-39729400D02*
X114768796Y-39800828D01*
X114768796Y-39800828D02*
X114483082Y-39800828D01*
X114483082Y-39800828D02*
X114340225Y-39729400D01*
X114340225Y-39729400D02*
X114197367Y-39586542D01*
X114197367Y-39586542D02*
X114125939Y-39300828D01*
X114125939Y-39300828D02*
X114125939Y-38800828D01*
X114125939Y-38800828D02*
X114197367Y-38515114D01*
X114197367Y-38515114D02*
X114340225Y-38372257D01*
X114340225Y-38372257D02*
X114483082Y-38300828D01*
X115768796Y-38300828D02*
X115768796Y-39515114D01*
X115768796Y-39515114D02*
X115840225Y-39657971D01*
X115840225Y-39657971D02*
X115911654Y-39729400D01*
X115911654Y-39729400D02*
X116054511Y-39800828D01*
X116054511Y-39800828D02*
X116340225Y-39800828D01*
X116340225Y-39800828D02*
X116483082Y-39729400D01*
X116483082Y-39729400D02*
X116554511Y-39657971D01*
X116554511Y-39657971D02*
X116625939Y-39515114D01*
X116625939Y-39515114D02*
X116625939Y-38300828D01*
X117125940Y-38300828D02*
X117983083Y-38300828D01*
X117554511Y-39800828D02*
X117554511Y-38300828D01*
X119625939Y-39800828D02*
X119625939Y-38300828D01*
X119625939Y-38300828D02*
X120197368Y-38300828D01*
X120197368Y-38300828D02*
X120340225Y-38372257D01*
X120340225Y-38372257D02*
X120411654Y-38443685D01*
X120411654Y-38443685D02*
X120483082Y-38586542D01*
X120483082Y-38586542D02*
X120483082Y-38800828D01*
X120483082Y-38800828D02*
X120411654Y-38943685D01*
X120411654Y-38943685D02*
X120340225Y-39015114D01*
X120340225Y-39015114D02*
X120197368Y-39086542D01*
X120197368Y-39086542D02*
X119625939Y-39086542D01*
X121411654Y-38300828D02*
X121697368Y-38300828D01*
X121697368Y-38300828D02*
X121840225Y-38372257D01*
X121840225Y-38372257D02*
X121983082Y-38515114D01*
X121983082Y-38515114D02*
X122054511Y-38800828D01*
X122054511Y-38800828D02*
X122054511Y-39300828D01*
X122054511Y-39300828D02*
X121983082Y-39586542D01*
X121983082Y-39586542D02*
X121840225Y-39729400D01*
X121840225Y-39729400D02*
X121697368Y-39800828D01*
X121697368Y-39800828D02*
X121411654Y-39800828D01*
X121411654Y-39800828D02*
X121268797Y-39729400D01*
X121268797Y-39729400D02*
X121125939Y-39586542D01*
X121125939Y-39586542D02*
X121054511Y-39300828D01*
X121054511Y-39300828D02*
X121054511Y-38800828D01*
X121054511Y-38800828D02*
X121125939Y-38515114D01*
X121125939Y-38515114D02*
X121268797Y-38372257D01*
X121268797Y-38372257D02*
X121411654Y-38300828D01*
X122554511Y-38300828D02*
X122911654Y-39800828D01*
X122911654Y-39800828D02*
X123197368Y-38729400D01*
X123197368Y-38729400D02*
X123483083Y-39800828D01*
X123483083Y-39800828D02*
X123840226Y-38300828D01*
X124411654Y-39015114D02*
X124911654Y-39015114D01*
X125125940Y-39800828D02*
X124411654Y-39800828D01*
X124411654Y-39800828D02*
X124411654Y-38300828D01*
X124411654Y-38300828D02*
X125125940Y-38300828D01*
X126625940Y-39800828D02*
X126125940Y-39086542D01*
X125768797Y-39800828D02*
X125768797Y-38300828D01*
X125768797Y-38300828D02*
X126340226Y-38300828D01*
X126340226Y-38300828D02*
X126483083Y-38372257D01*
X126483083Y-38372257D02*
X126554512Y-38443685D01*
X126554512Y-38443685D02*
X126625940Y-38586542D01*
X126625940Y-38586542D02*
X126625940Y-38800828D01*
X126625940Y-38800828D02*
X126554512Y-38943685D01*
X126554512Y-38943685D02*
X126483083Y-39015114D01*
X126483083Y-39015114D02*
X126340226Y-39086542D01*
X126340226Y-39086542D02*
X125768797Y-39086542D01*
X51554510Y-81300828D02*
X51554510Y-79800828D01*
X51554510Y-79800828D02*
X52125939Y-79800828D01*
X52125939Y-79800828D02*
X52268796Y-79872257D01*
X52268796Y-79872257D02*
X52340225Y-79943685D01*
X52340225Y-79943685D02*
X52411653Y-80086542D01*
X52411653Y-80086542D02*
X52411653Y-80300828D01*
X52411653Y-80300828D02*
X52340225Y-80443685D01*
X52340225Y-80443685D02*
X52268796Y-80515114D01*
X52268796Y-80515114D02*
X52125939Y-80586542D01*
X52125939Y-80586542D02*
X51554510Y-80586542D01*
X53340225Y-79800828D02*
X53625939Y-79800828D01*
X53625939Y-79800828D02*
X53768796Y-79872257D01*
X53768796Y-79872257D02*
X53911653Y-80015114D01*
X53911653Y-80015114D02*
X53983082Y-80300828D01*
X53983082Y-80300828D02*
X53983082Y-80800828D01*
X53983082Y-80800828D02*
X53911653Y-81086542D01*
X53911653Y-81086542D02*
X53768796Y-81229400D01*
X53768796Y-81229400D02*
X53625939Y-81300828D01*
X53625939Y-81300828D02*
X53340225Y-81300828D01*
X53340225Y-81300828D02*
X53197368Y-81229400D01*
X53197368Y-81229400D02*
X53054510Y-81086542D01*
X53054510Y-81086542D02*
X52983082Y-80800828D01*
X52983082Y-80800828D02*
X52983082Y-80300828D01*
X52983082Y-80300828D02*
X53054510Y-80015114D01*
X53054510Y-80015114D02*
X53197368Y-79872257D01*
X53197368Y-79872257D02*
X53340225Y-79800828D01*
X55483082Y-81300828D02*
X54983082Y-80586542D01*
X54625939Y-81300828D02*
X54625939Y-79800828D01*
X54625939Y-79800828D02*
X55197368Y-79800828D01*
X55197368Y-79800828D02*
X55340225Y-79872257D01*
X55340225Y-79872257D02*
X55411654Y-79943685D01*
X55411654Y-79943685D02*
X55483082Y-80086542D01*
X55483082Y-80086542D02*
X55483082Y-80300828D01*
X55483082Y-80300828D02*
X55411654Y-80443685D01*
X55411654Y-80443685D02*
X55340225Y-80515114D01*
X55340225Y-80515114D02*
X55197368Y-80586542D01*
X55197368Y-80586542D02*
X54625939Y-80586542D01*
X55911654Y-79800828D02*
X56768797Y-79800828D01*
X56340225Y-81300828D02*
X56340225Y-79800828D01*
X57197368Y-80872257D02*
X57911654Y-80872257D01*
X57054511Y-81300828D02*
X57554511Y-79800828D01*
X57554511Y-79800828D02*
X58054511Y-81300828D01*
X86554510Y-81300828D02*
X86554510Y-79800828D01*
X86554510Y-79800828D02*
X87125939Y-79800828D01*
X87125939Y-79800828D02*
X87268796Y-79872257D01*
X87268796Y-79872257D02*
X87340225Y-79943685D01*
X87340225Y-79943685D02*
X87411653Y-80086542D01*
X87411653Y-80086542D02*
X87411653Y-80300828D01*
X87411653Y-80300828D02*
X87340225Y-80443685D01*
X87340225Y-80443685D02*
X87268796Y-80515114D01*
X87268796Y-80515114D02*
X87125939Y-80586542D01*
X87125939Y-80586542D02*
X86554510Y-80586542D01*
X88340225Y-79800828D02*
X88625939Y-79800828D01*
X88625939Y-79800828D02*
X88768796Y-79872257D01*
X88768796Y-79872257D02*
X88911653Y-80015114D01*
X88911653Y-80015114D02*
X88983082Y-80300828D01*
X88983082Y-80300828D02*
X88983082Y-80800828D01*
X88983082Y-80800828D02*
X88911653Y-81086542D01*
X88911653Y-81086542D02*
X88768796Y-81229400D01*
X88768796Y-81229400D02*
X88625939Y-81300828D01*
X88625939Y-81300828D02*
X88340225Y-81300828D01*
X88340225Y-81300828D02*
X88197368Y-81229400D01*
X88197368Y-81229400D02*
X88054510Y-81086542D01*
X88054510Y-81086542D02*
X87983082Y-80800828D01*
X87983082Y-80800828D02*
X87983082Y-80300828D01*
X87983082Y-80300828D02*
X88054510Y-80015114D01*
X88054510Y-80015114D02*
X88197368Y-79872257D01*
X88197368Y-79872257D02*
X88340225Y-79800828D01*
X90483082Y-81300828D02*
X89983082Y-80586542D01*
X89625939Y-81300828D02*
X89625939Y-79800828D01*
X89625939Y-79800828D02*
X90197368Y-79800828D01*
X90197368Y-79800828D02*
X90340225Y-79872257D01*
X90340225Y-79872257D02*
X90411654Y-79943685D01*
X90411654Y-79943685D02*
X90483082Y-80086542D01*
X90483082Y-80086542D02*
X90483082Y-80300828D01*
X90483082Y-80300828D02*
X90411654Y-80443685D01*
X90411654Y-80443685D02*
X90340225Y-80515114D01*
X90340225Y-80515114D02*
X90197368Y-80586542D01*
X90197368Y-80586542D02*
X89625939Y-80586542D01*
X90911654Y-79800828D02*
X91768797Y-79800828D01*
X91340225Y-81300828D02*
X91340225Y-79800828D01*
X93125939Y-81157971D02*
X93054511Y-81229400D01*
X93054511Y-81229400D02*
X92840225Y-81300828D01*
X92840225Y-81300828D02*
X92697368Y-81300828D01*
X92697368Y-81300828D02*
X92483082Y-81229400D01*
X92483082Y-81229400D02*
X92340225Y-81086542D01*
X92340225Y-81086542D02*
X92268796Y-80943685D01*
X92268796Y-80943685D02*
X92197368Y-80657971D01*
X92197368Y-80657971D02*
X92197368Y-80443685D01*
X92197368Y-80443685D02*
X92268796Y-80157971D01*
X92268796Y-80157971D02*
X92340225Y-80015114D01*
X92340225Y-80015114D02*
X92483082Y-79872257D01*
X92483082Y-79872257D02*
X92697368Y-79800828D01*
X92697368Y-79800828D02*
X92840225Y-79800828D01*
X92840225Y-79800828D02*
X93054511Y-79872257D01*
X93054511Y-79872257D02*
X93125939Y-79943685D01*
X72483082Y-22729400D02*
X72697368Y-22800828D01*
X72697368Y-22800828D02*
X73054510Y-22800828D01*
X73054510Y-22800828D02*
X73197368Y-22729400D01*
X73197368Y-22729400D02*
X73268796Y-22657971D01*
X73268796Y-22657971D02*
X73340225Y-22515114D01*
X73340225Y-22515114D02*
X73340225Y-22372257D01*
X73340225Y-22372257D02*
X73268796Y-22229400D01*
X73268796Y-22229400D02*
X73197368Y-22157971D01*
X73197368Y-22157971D02*
X73054510Y-22086542D01*
X73054510Y-22086542D02*
X72768796Y-22015114D01*
X72768796Y-22015114D02*
X72625939Y-21943685D01*
X72625939Y-21943685D02*
X72554510Y-21872257D01*
X72554510Y-21872257D02*
X72483082Y-21729400D01*
X72483082Y-21729400D02*
X72483082Y-21586542D01*
X72483082Y-21586542D02*
X72554510Y-21443685D01*
X72554510Y-21443685D02*
X72625939Y-21372257D01*
X72625939Y-21372257D02*
X72768796Y-21300828D01*
X72768796Y-21300828D02*
X73125939Y-21300828D01*
X73125939Y-21300828D02*
X73340225Y-21372257D01*
X73840224Y-21300828D02*
X74197367Y-22800828D01*
X74197367Y-22800828D02*
X74483081Y-21729400D01*
X74483081Y-21729400D02*
X74768796Y-22800828D01*
X74768796Y-22800828D02*
X75125939Y-21300828D01*
X75697367Y-22800828D02*
X75697367Y-21300828D01*
X75697367Y-21300828D02*
X76054510Y-21300828D01*
X76054510Y-21300828D02*
X76268796Y-21372257D01*
X76268796Y-21372257D02*
X76411653Y-21515114D01*
X76411653Y-21515114D02*
X76483082Y-21657971D01*
X76483082Y-21657971D02*
X76554510Y-21943685D01*
X76554510Y-21943685D02*
X76554510Y-22157971D01*
X76554510Y-22157971D02*
X76483082Y-22443685D01*
X76483082Y-22443685D02*
X76411653Y-22586542D01*
X76411653Y-22586542D02*
X76268796Y-22729400D01*
X76268796Y-22729400D02*
X76054510Y-22800828D01*
X76054510Y-22800828D02*
X75697367Y-22800828D01*
X104840225Y-81300828D02*
X103983082Y-81300828D01*
X104411653Y-81300828D02*
X104411653Y-79800828D01*
X104411653Y-79800828D02*
X104268796Y-80015114D01*
X104268796Y-80015114D02*
X104125939Y-80157971D01*
X104125939Y-80157971D02*
X103983082Y-80229400D01*
X106197367Y-79800828D02*
X105483081Y-79800828D01*
X105483081Y-79800828D02*
X105411653Y-80515114D01*
X105411653Y-80515114D02*
X105483081Y-80443685D01*
X105483081Y-80443685D02*
X105625939Y-80372257D01*
X105625939Y-80372257D02*
X105983081Y-80372257D01*
X105983081Y-80372257D02*
X106125939Y-80443685D01*
X106125939Y-80443685D02*
X106197367Y-80515114D01*
X106197367Y-80515114D02*
X106268796Y-80657971D01*
X106268796Y-80657971D02*
X106268796Y-81015114D01*
X106268796Y-81015114D02*
X106197367Y-81157971D01*
X106197367Y-81157971D02*
X106125939Y-81229400D01*
X106125939Y-81229400D02*
X105983081Y-81300828D01*
X105983081Y-81300828D02*
X105625939Y-81300828D01*
X105625939Y-81300828D02*
X105483081Y-81229400D01*
X105483081Y-81229400D02*
X105411653Y-81157971D01*
X94272257Y-35959774D02*
X94200828Y-36102632D01*
X94200828Y-36102632D02*
X94200828Y-36316917D01*
X94200828Y-36316917D02*
X94272257Y-36531203D01*
X94272257Y-36531203D02*
X94415114Y-36674060D01*
X94415114Y-36674060D02*
X94557971Y-36745489D01*
X94557971Y-36745489D02*
X94843685Y-36816917D01*
X94843685Y-36816917D02*
X95057971Y-36816917D01*
X95057971Y-36816917D02*
X95343685Y-36745489D01*
X95343685Y-36745489D02*
X95486542Y-36674060D01*
X95486542Y-36674060D02*
X95629400Y-36531203D01*
X95629400Y-36531203D02*
X95700828Y-36316917D01*
X95700828Y-36316917D02*
X95700828Y-36174060D01*
X95700828Y-36174060D02*
X95629400Y-35959774D01*
X95629400Y-35959774D02*
X95557971Y-35888346D01*
X95557971Y-35888346D02*
X95057971Y-35888346D01*
X95057971Y-35888346D02*
X95057971Y-36174060D01*
X95700828Y-35245489D02*
X94200828Y-35245489D01*
X94200828Y-35245489D02*
X95700828Y-34388346D01*
X95700828Y-34388346D02*
X94200828Y-34388346D01*
X95700828Y-33674060D02*
X94200828Y-33674060D01*
X94200828Y-33674060D02*
X94200828Y-33316917D01*
X94200828Y-33316917D02*
X94272257Y-33102631D01*
X94272257Y-33102631D02*
X94415114Y-32959774D01*
X94415114Y-32959774D02*
X94557971Y-32888345D01*
X94557971Y-32888345D02*
X94843685Y-32816917D01*
X94843685Y-32816917D02*
X95057971Y-32816917D01*
X95057971Y-32816917D02*
X95343685Y-32888345D01*
X95343685Y-32888345D02*
X95486542Y-32959774D01*
X95486542Y-32959774D02*
X95629400Y-33102631D01*
X95629400Y-33102631D02*
X95700828Y-33316917D01*
X95700828Y-33316917D02*
X95700828Y-33674060D01*
X74840225Y-79800828D02*
X74983082Y-79800828D01*
X74983082Y-79800828D02*
X75125939Y-79872257D01*
X75125939Y-79872257D02*
X75197368Y-79943685D01*
X75197368Y-79943685D02*
X75268796Y-80086542D01*
X75268796Y-80086542D02*
X75340225Y-80372257D01*
X75340225Y-80372257D02*
X75340225Y-80729400D01*
X75340225Y-80729400D02*
X75268796Y-81015114D01*
X75268796Y-81015114D02*
X75197368Y-81157971D01*
X75197368Y-81157971D02*
X75125939Y-81229400D01*
X75125939Y-81229400D02*
X74983082Y-81300828D01*
X74983082Y-81300828D02*
X74840225Y-81300828D01*
X74840225Y-81300828D02*
X74697368Y-81229400D01*
X74697368Y-81229400D02*
X74625939Y-81157971D01*
X74625939Y-81157971D02*
X74554510Y-81015114D01*
X74554510Y-81015114D02*
X74483082Y-80729400D01*
X74483082Y-80729400D02*
X74483082Y-80372257D01*
X74483082Y-80372257D02*
X74554510Y-80086542D01*
X74554510Y-80086542D02*
X74625939Y-79943685D01*
X74625939Y-79943685D02*
X74697368Y-79872257D01*
X74697368Y-79872257D02*
X74840225Y-79800828D01*
D12*
X105908207Y-103869819D02*
X105574874Y-103393628D01*
X105336779Y-103869819D02*
X105336779Y-102869819D01*
X105336779Y-102869819D02*
X105717731Y-102869819D01*
X105717731Y-102869819D02*
X105812969Y-102917438D01*
X105812969Y-102917438D02*
X105860588Y-102965057D01*
X105860588Y-102965057D02*
X105908207Y-103060295D01*
X105908207Y-103060295D02*
X105908207Y-103203152D01*
X105908207Y-103203152D02*
X105860588Y-103298390D01*
X105860588Y-103298390D02*
X105812969Y-103346009D01*
X105812969Y-103346009D02*
X105717731Y-103393628D01*
X105717731Y-103393628D02*
X105336779Y-103393628D01*
X106336779Y-103346009D02*
X106670112Y-103346009D01*
X106812969Y-103869819D02*
X106336779Y-103869819D01*
X106336779Y-103869819D02*
X106336779Y-102869819D01*
X106336779Y-102869819D02*
X106812969Y-102869819D01*
X107193922Y-103822200D02*
X107336779Y-103869819D01*
X107336779Y-103869819D02*
X107574874Y-103869819D01*
X107574874Y-103869819D02*
X107670112Y-103822200D01*
X107670112Y-103822200D02*
X107717731Y-103774580D01*
X107717731Y-103774580D02*
X107765350Y-103679342D01*
X107765350Y-103679342D02*
X107765350Y-103584104D01*
X107765350Y-103584104D02*
X107717731Y-103488866D01*
X107717731Y-103488866D02*
X107670112Y-103441247D01*
X107670112Y-103441247D02*
X107574874Y-103393628D01*
X107574874Y-103393628D02*
X107384398Y-103346009D01*
X107384398Y-103346009D02*
X107289160Y-103298390D01*
X107289160Y-103298390D02*
X107241541Y-103250771D01*
X107241541Y-103250771D02*
X107193922Y-103155533D01*
X107193922Y-103155533D02*
X107193922Y-103060295D01*
X107193922Y-103060295D02*
X107241541Y-102965057D01*
X107241541Y-102965057D02*
X107289160Y-102917438D01*
X107289160Y-102917438D02*
X107384398Y-102869819D01*
X107384398Y-102869819D02*
X107622493Y-102869819D01*
X107622493Y-102869819D02*
X107765350Y-102917438D01*
X108193922Y-103346009D02*
X108527255Y-103346009D01*
X108670112Y-103869819D02*
X108193922Y-103869819D01*
X108193922Y-103869819D02*
X108193922Y-102869819D01*
X108193922Y-102869819D02*
X108670112Y-102869819D01*
X108955827Y-102869819D02*
X109527255Y-102869819D01*
X109241541Y-103869819D02*
X109241541Y-102869819D01*
D10*
X35329171Y-43330225D02*
X35329171Y-43473082D01*
X35329171Y-43473082D02*
X35257742Y-43615939D01*
X35257742Y-43615939D02*
X35186314Y-43687368D01*
X35186314Y-43687368D02*
X35043457Y-43758796D01*
X35043457Y-43758796D02*
X34757742Y-43830225D01*
X34757742Y-43830225D02*
X34400600Y-43830225D01*
X34400600Y-43830225D02*
X34114885Y-43758796D01*
X34114885Y-43758796D02*
X33972028Y-43687368D01*
X33972028Y-43687368D02*
X33900600Y-43615939D01*
X33900600Y-43615939D02*
X33829171Y-43473082D01*
X33829171Y-43473082D02*
X33829171Y-43330225D01*
X33829171Y-43330225D02*
X33900600Y-43187368D01*
X33900600Y-43187368D02*
X33972028Y-43115939D01*
X33972028Y-43115939D02*
X34114885Y-43044510D01*
X34114885Y-43044510D02*
X34400600Y-42973082D01*
X34400600Y-42973082D02*
X34757742Y-42973082D01*
X34757742Y-42973082D02*
X35043457Y-43044510D01*
X35043457Y-43044510D02*
X35186314Y-43115939D01*
X35186314Y-43115939D02*
X35257742Y-43187368D01*
X35257742Y-43187368D02*
X35329171Y-43330225D01*
X30499885Y-37034510D02*
X30499885Y-36534510D01*
X29714171Y-36534510D02*
X31214171Y-36534510D01*
X31214171Y-36534510D02*
X31214171Y-37248796D01*
X29714171Y-38534510D02*
X29714171Y-37820224D01*
X29714171Y-37820224D02*
X31214171Y-37820224D01*
X30142742Y-38963082D02*
X30142742Y-39677368D01*
X29714171Y-38820225D02*
X31214171Y-39320225D01*
X31214171Y-39320225D02*
X29714171Y-39820225D01*
X29785600Y-40248796D02*
X29714171Y-40463082D01*
X29714171Y-40463082D02*
X29714171Y-40820224D01*
X29714171Y-40820224D02*
X29785600Y-40963082D01*
X29785600Y-40963082D02*
X29857028Y-41034510D01*
X29857028Y-41034510D02*
X29999885Y-41105939D01*
X29999885Y-41105939D02*
X30142742Y-41105939D01*
X30142742Y-41105939D02*
X30285600Y-41034510D01*
X30285600Y-41034510D02*
X30357028Y-40963082D01*
X30357028Y-40963082D02*
X30428457Y-40820224D01*
X30428457Y-40820224D02*
X30499885Y-40534510D01*
X30499885Y-40534510D02*
X30571314Y-40391653D01*
X30571314Y-40391653D02*
X30642742Y-40320224D01*
X30642742Y-40320224D02*
X30785600Y-40248796D01*
X30785600Y-40248796D02*
X30928457Y-40248796D01*
X30928457Y-40248796D02*
X31071314Y-40320224D01*
X31071314Y-40320224D02*
X31142742Y-40391653D01*
X31142742Y-40391653D02*
X31214171Y-40534510D01*
X31214171Y-40534510D02*
X31214171Y-40891653D01*
X31214171Y-40891653D02*
X31142742Y-41105939D01*
X29714171Y-41748795D02*
X31214171Y-41748795D01*
X30499885Y-41748795D02*
X30499885Y-42605938D01*
X29714171Y-42605938D02*
X31214171Y-42605938D01*
X39840225Y-35800828D02*
X39983082Y-35800828D01*
X39983082Y-35800828D02*
X40125939Y-35872257D01*
X40125939Y-35872257D02*
X40197368Y-35943685D01*
X40197368Y-35943685D02*
X40268796Y-36086542D01*
X40268796Y-36086542D02*
X40340225Y-36372257D01*
X40340225Y-36372257D02*
X40340225Y-36729400D01*
X40340225Y-36729400D02*
X40268796Y-37015114D01*
X40268796Y-37015114D02*
X40197368Y-37157971D01*
X40197368Y-37157971D02*
X40125939Y-37229400D01*
X40125939Y-37229400D02*
X39983082Y-37300828D01*
X39983082Y-37300828D02*
X39840225Y-37300828D01*
X39840225Y-37300828D02*
X39697368Y-37229400D01*
X39697368Y-37229400D02*
X39625939Y-37157971D01*
X39625939Y-37157971D02*
X39554510Y-37015114D01*
X39554510Y-37015114D02*
X39483082Y-36729400D01*
X39483082Y-36729400D02*
X39483082Y-36372257D01*
X39483082Y-36372257D02*
X39554510Y-36086542D01*
X39554510Y-36086542D02*
X39625939Y-35943685D01*
X39625939Y-35943685D02*
X39697368Y-35872257D01*
X39697368Y-35872257D02*
X39840225Y-35800828D01*
X69840225Y-81300828D02*
X68983082Y-81300828D01*
X69411653Y-81300828D02*
X69411653Y-79800828D01*
X69411653Y-79800828D02*
X69268796Y-80015114D01*
X69268796Y-80015114D02*
X69125939Y-80157971D01*
X69125939Y-80157971D02*
X68983082Y-80229400D01*
X71197367Y-79800828D02*
X70483081Y-79800828D01*
X70483081Y-79800828D02*
X70411653Y-80515114D01*
X70411653Y-80515114D02*
X70483081Y-80443685D01*
X70483081Y-80443685D02*
X70625939Y-80372257D01*
X70625939Y-80372257D02*
X70983081Y-80372257D01*
X70983081Y-80372257D02*
X71125939Y-80443685D01*
X71125939Y-80443685D02*
X71197367Y-80515114D01*
X71197367Y-80515114D02*
X71268796Y-80657971D01*
X71268796Y-80657971D02*
X71268796Y-81015114D01*
X71268796Y-81015114D02*
X71197367Y-81157971D01*
X71197367Y-81157971D02*
X71125939Y-81229400D01*
X71125939Y-81229400D02*
X70983081Y-81300828D01*
X70983081Y-81300828D02*
X70625939Y-81300828D01*
X70625939Y-81300828D02*
X70483081Y-81229400D01*
X70483081Y-81229400D02*
X70411653Y-81157971D01*
X29714171Y-23891653D02*
X30428457Y-23391653D01*
X29714171Y-23034510D02*
X31214171Y-23034510D01*
X31214171Y-23034510D02*
X31214171Y-23605939D01*
X31214171Y-23605939D02*
X31142742Y-23748796D01*
X31142742Y-23748796D02*
X31071314Y-23820225D01*
X31071314Y-23820225D02*
X30928457Y-23891653D01*
X30928457Y-23891653D02*
X30714171Y-23891653D01*
X30714171Y-23891653D02*
X30571314Y-23820225D01*
X30571314Y-23820225D02*
X30499885Y-23748796D01*
X30499885Y-23748796D02*
X30428457Y-23605939D01*
X30428457Y-23605939D02*
X30428457Y-23034510D01*
X31214171Y-24534510D02*
X29999885Y-24534510D01*
X29999885Y-24534510D02*
X29857028Y-24605939D01*
X29857028Y-24605939D02*
X29785600Y-24677368D01*
X29785600Y-24677368D02*
X29714171Y-24820225D01*
X29714171Y-24820225D02*
X29714171Y-25105939D01*
X29714171Y-25105939D02*
X29785600Y-25248796D01*
X29785600Y-25248796D02*
X29857028Y-25320225D01*
X29857028Y-25320225D02*
X29999885Y-25391653D01*
X29999885Y-25391653D02*
X31214171Y-25391653D01*
X29714171Y-26105939D02*
X31214171Y-26105939D01*
X31214171Y-26105939D02*
X29714171Y-26963082D01*
X29714171Y-26963082D02*
X31214171Y-26963082D01*
X69790225Y-37270828D02*
X68933082Y-37270828D01*
X69361653Y-37270828D02*
X69361653Y-35770828D01*
X69361653Y-35770828D02*
X69218796Y-35985114D01*
X69218796Y-35985114D02*
X69075939Y-36127971D01*
X69075939Y-36127971D02*
X68933082Y-36199400D01*
X71147367Y-35770828D02*
X70433081Y-35770828D01*
X70433081Y-35770828D02*
X70361653Y-36485114D01*
X70361653Y-36485114D02*
X70433081Y-36413685D01*
X70433081Y-36413685D02*
X70575939Y-36342257D01*
X70575939Y-36342257D02*
X70933081Y-36342257D01*
X70933081Y-36342257D02*
X71075939Y-36413685D01*
X71075939Y-36413685D02*
X71147367Y-36485114D01*
X71147367Y-36485114D02*
X71218796Y-36627971D01*
X71218796Y-36627971D02*
X71218796Y-36985114D01*
X71218796Y-36985114D02*
X71147367Y-37127971D01*
X71147367Y-37127971D02*
X71075939Y-37199400D01*
X71075939Y-37199400D02*
X70933081Y-37270828D01*
X70933081Y-37270828D02*
X70575939Y-37270828D01*
X70575939Y-37270828D02*
X70433081Y-37199400D01*
X70433081Y-37199400D02*
X70361653Y-37127971D01*
D11*
X62510656Y-99842274D02*
X62510656Y-98572274D01*
X62510656Y-98572274D02*
X62994466Y-98572274D01*
X62994466Y-98572274D02*
X63115418Y-98632750D01*
X63115418Y-98632750D02*
X63175895Y-98693226D01*
X63175895Y-98693226D02*
X63236371Y-98814178D01*
X63236371Y-98814178D02*
X63236371Y-98995607D01*
X63236371Y-98995607D02*
X63175895Y-99116559D01*
X63175895Y-99116559D02*
X63115418Y-99177036D01*
X63115418Y-99177036D02*
X62994466Y-99237512D01*
X62994466Y-99237512D02*
X62510656Y-99237512D01*
X64022561Y-98572274D02*
X64264466Y-98572274D01*
X64264466Y-98572274D02*
X64385418Y-98632750D01*
X64385418Y-98632750D02*
X64506371Y-98753702D01*
X64506371Y-98753702D02*
X64566847Y-98995607D01*
X64566847Y-98995607D02*
X64566847Y-99418940D01*
X64566847Y-99418940D02*
X64506371Y-99660845D01*
X64506371Y-99660845D02*
X64385418Y-99781798D01*
X64385418Y-99781798D02*
X64264466Y-99842274D01*
X64264466Y-99842274D02*
X64022561Y-99842274D01*
X64022561Y-99842274D02*
X63901609Y-99781798D01*
X63901609Y-99781798D02*
X63780656Y-99660845D01*
X63780656Y-99660845D02*
X63720180Y-99418940D01*
X63720180Y-99418940D02*
X63720180Y-98995607D01*
X63720180Y-98995607D02*
X63780656Y-98753702D01*
X63780656Y-98753702D02*
X63901609Y-98632750D01*
X63901609Y-98632750D02*
X64022561Y-98572274D01*
X64990180Y-98572274D02*
X65292561Y-99842274D01*
X65292561Y-99842274D02*
X65534466Y-98935131D01*
X65534466Y-98935131D02*
X65776371Y-99842274D01*
X65776371Y-99842274D02*
X66078752Y-98572274D01*
X66562561Y-99177036D02*
X66985895Y-99177036D01*
X67167323Y-99842274D02*
X66562561Y-99842274D01*
X66562561Y-99842274D02*
X66562561Y-98572274D01*
X66562561Y-98572274D02*
X67167323Y-98572274D01*
X68437324Y-99842274D02*
X68013990Y-99237512D01*
X67711609Y-99842274D02*
X67711609Y-98572274D01*
X67711609Y-98572274D02*
X68195419Y-98572274D01*
X68195419Y-98572274D02*
X68316371Y-98632750D01*
X68316371Y-98632750D02*
X68376848Y-98693226D01*
X68376848Y-98693226D02*
X68437324Y-98814178D01*
X68437324Y-98814178D02*
X68437324Y-98995607D01*
X68437324Y-98995607D02*
X68376848Y-99116559D01*
X68376848Y-99116559D02*
X68316371Y-99177036D01*
X68316371Y-99177036D02*
X68195419Y-99237512D01*
X68195419Y-99237512D02*
X67711609Y-99237512D01*
X69888752Y-99781798D02*
X70070181Y-99842274D01*
X70070181Y-99842274D02*
X70372562Y-99842274D01*
X70372562Y-99842274D02*
X70493514Y-99781798D01*
X70493514Y-99781798D02*
X70553990Y-99721321D01*
X70553990Y-99721321D02*
X70614467Y-99600369D01*
X70614467Y-99600369D02*
X70614467Y-99479417D01*
X70614467Y-99479417D02*
X70553990Y-99358464D01*
X70553990Y-99358464D02*
X70493514Y-99297988D01*
X70493514Y-99297988D02*
X70372562Y-99237512D01*
X70372562Y-99237512D02*
X70130657Y-99177036D01*
X70130657Y-99177036D02*
X70009705Y-99116559D01*
X70009705Y-99116559D02*
X69949228Y-99056083D01*
X69949228Y-99056083D02*
X69888752Y-98935131D01*
X69888752Y-98935131D02*
X69888752Y-98814178D01*
X69888752Y-98814178D02*
X69949228Y-98693226D01*
X69949228Y-98693226D02*
X70009705Y-98632750D01*
X70009705Y-98632750D02*
X70130657Y-98572274D01*
X70130657Y-98572274D02*
X70433038Y-98572274D01*
X70433038Y-98572274D02*
X70614467Y-98632750D01*
X71158752Y-98572274D02*
X71158752Y-99600369D01*
X71158752Y-99600369D02*
X71219229Y-99721321D01*
X71219229Y-99721321D02*
X71279705Y-99781798D01*
X71279705Y-99781798D02*
X71400657Y-99842274D01*
X71400657Y-99842274D02*
X71642562Y-99842274D01*
X71642562Y-99842274D02*
X71763514Y-99781798D01*
X71763514Y-99781798D02*
X71823991Y-99721321D01*
X71823991Y-99721321D02*
X71884467Y-99600369D01*
X71884467Y-99600369D02*
X71884467Y-98572274D01*
X72489228Y-99842274D02*
X72489228Y-98572274D01*
X72489228Y-98572274D02*
X72973038Y-98572274D01*
X72973038Y-98572274D02*
X73093990Y-98632750D01*
X73093990Y-98632750D02*
X73154467Y-98693226D01*
X73154467Y-98693226D02*
X73214943Y-98814178D01*
X73214943Y-98814178D02*
X73214943Y-98995607D01*
X73214943Y-98995607D02*
X73154467Y-99116559D01*
X73154467Y-99116559D02*
X73093990Y-99177036D01*
X73093990Y-99177036D02*
X72973038Y-99237512D01*
X72973038Y-99237512D02*
X72489228Y-99237512D01*
X73759228Y-99842274D02*
X73759228Y-98572274D01*
X73759228Y-98572274D02*
X74243038Y-98572274D01*
X74243038Y-98572274D02*
X74363990Y-98632750D01*
X74363990Y-98632750D02*
X74424467Y-98693226D01*
X74424467Y-98693226D02*
X74484943Y-98814178D01*
X74484943Y-98814178D02*
X74484943Y-98995607D01*
X74484943Y-98995607D02*
X74424467Y-99116559D01*
X74424467Y-99116559D02*
X74363990Y-99177036D01*
X74363990Y-99177036D02*
X74243038Y-99237512D01*
X74243038Y-99237512D02*
X73759228Y-99237512D01*
X75633990Y-99842274D02*
X75029228Y-99842274D01*
X75029228Y-99842274D02*
X75029228Y-98572274D01*
X76299228Y-99237512D02*
X76299228Y-99842274D01*
X75875895Y-98572274D02*
X76299228Y-99237512D01*
X76299228Y-99237512D02*
X76722562Y-98572274D01*
X78355418Y-98572274D02*
X78597323Y-98572274D01*
X78597323Y-98572274D02*
X78718275Y-98632750D01*
X78718275Y-98632750D02*
X78839228Y-98753702D01*
X78839228Y-98753702D02*
X78899704Y-98995607D01*
X78899704Y-98995607D02*
X78899704Y-99418940D01*
X78899704Y-99418940D02*
X78839228Y-99660845D01*
X78839228Y-99660845D02*
X78718275Y-99781798D01*
X78718275Y-99781798D02*
X78597323Y-99842274D01*
X78597323Y-99842274D02*
X78355418Y-99842274D01*
X78355418Y-99842274D02*
X78234466Y-99781798D01*
X78234466Y-99781798D02*
X78113513Y-99660845D01*
X78113513Y-99660845D02*
X78053037Y-99418940D01*
X78053037Y-99418940D02*
X78053037Y-98995607D01*
X78053037Y-98995607D02*
X78113513Y-98753702D01*
X78113513Y-98753702D02*
X78234466Y-98632750D01*
X78234466Y-98632750D02*
X78355418Y-98572274D01*
X79443989Y-99842274D02*
X79443989Y-98572274D01*
X79443989Y-98572274D02*
X80169704Y-99842274D01*
X80169704Y-99842274D02*
X80169704Y-98572274D01*
D10*
X82200828Y-36788346D02*
X82200828Y-35859774D01*
X82200828Y-35859774D02*
X82772257Y-36359774D01*
X82772257Y-36359774D02*
X82772257Y-36145489D01*
X82772257Y-36145489D02*
X82843685Y-36002632D01*
X82843685Y-36002632D02*
X82915114Y-35931203D01*
X82915114Y-35931203D02*
X83057971Y-35859774D01*
X83057971Y-35859774D02*
X83415114Y-35859774D01*
X83415114Y-35859774D02*
X83557971Y-35931203D01*
X83557971Y-35931203D02*
X83629400Y-36002632D01*
X83629400Y-36002632D02*
X83700828Y-36145489D01*
X83700828Y-36145489D02*
X83700828Y-36574060D01*
X83700828Y-36574060D02*
X83629400Y-36716917D01*
X83629400Y-36716917D02*
X83557971Y-36788346D01*
X82200828Y-35431203D02*
X83700828Y-34931203D01*
X83700828Y-34931203D02*
X82200828Y-34431203D01*
X82200828Y-34074061D02*
X82200828Y-33145489D01*
X82200828Y-33145489D02*
X82772257Y-33645489D01*
X82772257Y-33645489D02*
X82772257Y-33431204D01*
X82772257Y-33431204D02*
X82843685Y-33288347D01*
X82843685Y-33288347D02*
X82915114Y-33216918D01*
X82915114Y-33216918D02*
X83057971Y-33145489D01*
X83057971Y-33145489D02*
X83415114Y-33145489D01*
X83415114Y-33145489D02*
X83557971Y-33216918D01*
X83557971Y-33216918D02*
X83629400Y-33288347D01*
X83629400Y-33288347D02*
X83700828Y-33431204D01*
X83700828Y-33431204D02*
X83700828Y-33859775D01*
X83700828Y-33859775D02*
X83629400Y-34002632D01*
X83629400Y-34002632D02*
X83557971Y-34074061D01*
X83272257Y-32574061D02*
X83272257Y-31859776D01*
X83700828Y-32716918D02*
X82200828Y-32216918D01*
X82200828Y-32216918D02*
X83700828Y-31716918D01*
X34800828Y-60945489D02*
X33300828Y-60945489D01*
X33300828Y-60945489D02*
X33300828Y-60374060D01*
X33300828Y-60374060D02*
X33372257Y-60231203D01*
X33372257Y-60231203D02*
X33443685Y-60159774D01*
X33443685Y-60159774D02*
X33586542Y-60088346D01*
X33586542Y-60088346D02*
X33800828Y-60088346D01*
X33800828Y-60088346D02*
X33943685Y-60159774D01*
X33943685Y-60159774D02*
X34015114Y-60231203D01*
X34015114Y-60231203D02*
X34086542Y-60374060D01*
X34086542Y-60374060D02*
X34086542Y-60945489D01*
X33300828Y-59159774D02*
X33300828Y-58874060D01*
X33300828Y-58874060D02*
X33372257Y-58731203D01*
X33372257Y-58731203D02*
X33515114Y-58588346D01*
X33515114Y-58588346D02*
X33800828Y-58516917D01*
X33800828Y-58516917D02*
X34300828Y-58516917D01*
X34300828Y-58516917D02*
X34586542Y-58588346D01*
X34586542Y-58588346D02*
X34729400Y-58731203D01*
X34729400Y-58731203D02*
X34800828Y-58874060D01*
X34800828Y-58874060D02*
X34800828Y-59159774D01*
X34800828Y-59159774D02*
X34729400Y-59302632D01*
X34729400Y-59302632D02*
X34586542Y-59445489D01*
X34586542Y-59445489D02*
X34300828Y-59516917D01*
X34300828Y-59516917D02*
X33800828Y-59516917D01*
X33800828Y-59516917D02*
X33515114Y-59445489D01*
X33515114Y-59445489D02*
X33372257Y-59302632D01*
X33372257Y-59302632D02*
X33300828Y-59159774D01*
X34800828Y-57016917D02*
X34086542Y-57516917D01*
X34800828Y-57874060D02*
X33300828Y-57874060D01*
X33300828Y-57874060D02*
X33300828Y-57302631D01*
X33300828Y-57302631D02*
X33372257Y-57159774D01*
X33372257Y-57159774D02*
X33443685Y-57088345D01*
X33443685Y-57088345D02*
X33586542Y-57016917D01*
X33586542Y-57016917D02*
X33800828Y-57016917D01*
X33800828Y-57016917D02*
X33943685Y-57088345D01*
X33943685Y-57088345D02*
X34015114Y-57159774D01*
X34015114Y-57159774D02*
X34086542Y-57302631D01*
X34086542Y-57302631D02*
X34086542Y-57874060D01*
X33300828Y-56588345D02*
X33300828Y-55731203D01*
X34800828Y-56159774D02*
X33300828Y-56159774D01*
X34015114Y-55231203D02*
X34015114Y-54731203D01*
X34800828Y-54516917D02*
X34800828Y-55231203D01*
X34800828Y-55231203D02*
X33300828Y-55231203D01*
X33300828Y-55231203D02*
X33300828Y-54516917D01*
X39840225Y-79800828D02*
X39983082Y-79800828D01*
X39983082Y-79800828D02*
X40125939Y-79872257D01*
X40125939Y-79872257D02*
X40197368Y-79943685D01*
X40197368Y-79943685D02*
X40268796Y-80086542D01*
X40268796Y-80086542D02*
X40340225Y-80372257D01*
X40340225Y-80372257D02*
X40340225Y-80729400D01*
X40340225Y-80729400D02*
X40268796Y-81015114D01*
X40268796Y-81015114D02*
X40197368Y-81157971D01*
X40197368Y-81157971D02*
X40125939Y-81229400D01*
X40125939Y-81229400D02*
X39983082Y-81300828D01*
X39983082Y-81300828D02*
X39840225Y-81300828D01*
X39840225Y-81300828D02*
X39697368Y-81229400D01*
X39697368Y-81229400D02*
X39625939Y-81157971D01*
X39625939Y-81157971D02*
X39554510Y-81015114D01*
X39554510Y-81015114D02*
X39483082Y-80729400D01*
X39483082Y-80729400D02*
X39483082Y-80372257D01*
X39483082Y-80372257D02*
X39554510Y-80086542D01*
X39554510Y-80086542D02*
X39625939Y-79943685D01*
X39625939Y-79943685D02*
X39697368Y-79872257D01*
X39697368Y-79872257D02*
X39840225Y-79800828D01*
D11*
X62510656Y-89842274D02*
X62510656Y-88572274D01*
X62510656Y-88572274D02*
X62813037Y-88572274D01*
X62813037Y-88572274D02*
X62994466Y-88632750D01*
X62994466Y-88632750D02*
X63115418Y-88753702D01*
X63115418Y-88753702D02*
X63175895Y-88874655D01*
X63175895Y-88874655D02*
X63236371Y-89116559D01*
X63236371Y-89116559D02*
X63236371Y-89297988D01*
X63236371Y-89297988D02*
X63175895Y-89539893D01*
X63175895Y-89539893D02*
X63115418Y-89660845D01*
X63115418Y-89660845D02*
X62994466Y-89781798D01*
X62994466Y-89781798D02*
X62813037Y-89842274D01*
X62813037Y-89842274D02*
X62510656Y-89842274D01*
X63780656Y-89177036D02*
X64203990Y-89177036D01*
X64385418Y-89842274D02*
X63780656Y-89842274D01*
X63780656Y-89842274D02*
X63780656Y-88572274D01*
X63780656Y-88572274D02*
X64385418Y-88572274D01*
X64748276Y-88572274D02*
X65171609Y-89842274D01*
X65171609Y-89842274D02*
X65594943Y-88572274D01*
X66018275Y-89842274D02*
X66018275Y-88572274D01*
X67348752Y-89721321D02*
X67288276Y-89781798D01*
X67288276Y-89781798D02*
X67106847Y-89842274D01*
X67106847Y-89842274D02*
X66985895Y-89842274D01*
X66985895Y-89842274D02*
X66804466Y-89781798D01*
X66804466Y-89781798D02*
X66683514Y-89660845D01*
X66683514Y-89660845D02*
X66623037Y-89539893D01*
X66623037Y-89539893D02*
X66562561Y-89297988D01*
X66562561Y-89297988D02*
X66562561Y-89116559D01*
X66562561Y-89116559D02*
X66623037Y-88874655D01*
X66623037Y-88874655D02*
X66683514Y-88753702D01*
X66683514Y-88753702D02*
X66804466Y-88632750D01*
X66804466Y-88632750D02*
X66985895Y-88572274D01*
X66985895Y-88572274D02*
X67106847Y-88572274D01*
X67106847Y-88572274D02*
X67288276Y-88632750D01*
X67288276Y-88632750D02*
X67348752Y-88693226D01*
X67893037Y-89177036D02*
X68316371Y-89177036D01*
X68497799Y-89842274D02*
X67893037Y-89842274D01*
X67893037Y-89842274D02*
X67893037Y-88572274D01*
X67893037Y-88572274D02*
X68497799Y-88572274D01*
X69828276Y-88572274D02*
X70553990Y-88572274D01*
X70191133Y-89842274D02*
X70191133Y-88572274D01*
X71703038Y-89842274D02*
X71279704Y-89237512D01*
X70977323Y-89842274D02*
X70977323Y-88572274D01*
X70977323Y-88572274D02*
X71461133Y-88572274D01*
X71461133Y-88572274D02*
X71582085Y-88632750D01*
X71582085Y-88632750D02*
X71642562Y-88693226D01*
X71642562Y-88693226D02*
X71703038Y-88814178D01*
X71703038Y-88814178D02*
X71703038Y-88995607D01*
X71703038Y-88995607D02*
X71642562Y-89116559D01*
X71642562Y-89116559D02*
X71582085Y-89177036D01*
X71582085Y-89177036D02*
X71461133Y-89237512D01*
X71461133Y-89237512D02*
X70977323Y-89237512D01*
X72186847Y-89479417D02*
X72791609Y-89479417D01*
X72065895Y-89842274D02*
X72489228Y-88572274D01*
X72489228Y-88572274D02*
X72912562Y-89842274D01*
X73335894Y-89842274D02*
X73335894Y-88572274D01*
X73335894Y-88572274D02*
X74061609Y-89842274D01*
X74061609Y-89842274D02*
X74061609Y-88572274D01*
X74605894Y-89781798D02*
X74787323Y-89842274D01*
X74787323Y-89842274D02*
X75089704Y-89842274D01*
X75089704Y-89842274D02*
X75210656Y-89781798D01*
X75210656Y-89781798D02*
X75271132Y-89721321D01*
X75271132Y-89721321D02*
X75331609Y-89600369D01*
X75331609Y-89600369D02*
X75331609Y-89479417D01*
X75331609Y-89479417D02*
X75271132Y-89358464D01*
X75271132Y-89358464D02*
X75210656Y-89297988D01*
X75210656Y-89297988D02*
X75089704Y-89237512D01*
X75089704Y-89237512D02*
X74847799Y-89177036D01*
X74847799Y-89177036D02*
X74726847Y-89116559D01*
X74726847Y-89116559D02*
X74666370Y-89056083D01*
X74666370Y-89056083D02*
X74605894Y-88935131D01*
X74605894Y-88935131D02*
X74605894Y-88814178D01*
X74605894Y-88814178D02*
X74666370Y-88693226D01*
X74666370Y-88693226D02*
X74726847Y-88632750D01*
X74726847Y-88632750D02*
X74847799Y-88572274D01*
X74847799Y-88572274D02*
X75150180Y-88572274D01*
X75150180Y-88572274D02*
X75331609Y-88632750D01*
X75875894Y-89842274D02*
X75875894Y-88572274D01*
X75875894Y-88572274D02*
X76299228Y-89479417D01*
X76299228Y-89479417D02*
X76722561Y-88572274D01*
X76722561Y-88572274D02*
X76722561Y-89842274D01*
X77327323Y-89842274D02*
X77327323Y-88572274D01*
X77750657Y-88572274D02*
X78476371Y-88572274D01*
X78113514Y-89842274D02*
X78113514Y-88572274D01*
X78718276Y-88572274D02*
X79443990Y-88572274D01*
X79081133Y-89842274D02*
X79081133Y-88572274D01*
X79867323Y-89842274D02*
X79867323Y-88572274D01*
X80472085Y-89842274D02*
X80472085Y-88572274D01*
X80472085Y-88572274D02*
X81197800Y-89842274D01*
X81197800Y-89842274D02*
X81197800Y-88572274D01*
X82467800Y-88632750D02*
X82346847Y-88572274D01*
X82346847Y-88572274D02*
X82165419Y-88572274D01*
X82165419Y-88572274D02*
X81983990Y-88632750D01*
X81983990Y-88632750D02*
X81863038Y-88753702D01*
X81863038Y-88753702D02*
X81802561Y-88874655D01*
X81802561Y-88874655D02*
X81742085Y-89116559D01*
X81742085Y-89116559D02*
X81742085Y-89297988D01*
X81742085Y-89297988D02*
X81802561Y-89539893D01*
X81802561Y-89539893D02*
X81863038Y-89660845D01*
X81863038Y-89660845D02*
X81983990Y-89781798D01*
X81983990Y-89781798D02*
X82165419Y-89842274D01*
X82165419Y-89842274D02*
X82286371Y-89842274D01*
X82286371Y-89842274D02*
X82467800Y-89781798D01*
X82467800Y-89781798D02*
X82528276Y-89721321D01*
X82528276Y-89721321D02*
X82528276Y-89297988D01*
X82528276Y-89297988D02*
X82286371Y-89297988D01*
X84282085Y-88572274D02*
X84523990Y-88572274D01*
X84523990Y-88572274D02*
X84644942Y-88632750D01*
X84644942Y-88632750D02*
X84765895Y-88753702D01*
X84765895Y-88753702D02*
X84826371Y-88995607D01*
X84826371Y-88995607D02*
X84826371Y-89418940D01*
X84826371Y-89418940D02*
X84765895Y-89660845D01*
X84765895Y-89660845D02*
X84644942Y-89781798D01*
X84644942Y-89781798D02*
X84523990Y-89842274D01*
X84523990Y-89842274D02*
X84282085Y-89842274D01*
X84282085Y-89842274D02*
X84161133Y-89781798D01*
X84161133Y-89781798D02*
X84040180Y-89660845D01*
X84040180Y-89660845D02*
X83979704Y-89418940D01*
X83979704Y-89418940D02*
X83979704Y-88995607D01*
X83979704Y-88995607D02*
X84040180Y-88753702D01*
X84040180Y-88753702D02*
X84161133Y-88632750D01*
X84161133Y-88632750D02*
X84282085Y-88572274D01*
X85189228Y-88572274D02*
X85612561Y-89842274D01*
X85612561Y-89842274D02*
X86035895Y-88572274D01*
X86459227Y-89177036D02*
X86882561Y-89177036D01*
X87063989Y-89842274D02*
X86459227Y-89842274D01*
X86459227Y-89842274D02*
X86459227Y-88572274D01*
X86459227Y-88572274D02*
X87063989Y-88572274D01*
X88333990Y-89842274D02*
X87910656Y-89237512D01*
X87608275Y-89842274D02*
X87608275Y-88572274D01*
X87608275Y-88572274D02*
X88092085Y-88572274D01*
X88092085Y-88572274D02*
X88213037Y-88632750D01*
X88213037Y-88632750D02*
X88273514Y-88693226D01*
X88273514Y-88693226D02*
X88333990Y-88814178D01*
X88333990Y-88814178D02*
X88333990Y-88995607D01*
X88333990Y-88995607D02*
X88273514Y-89116559D01*
X88273514Y-89116559D02*
X88213037Y-89177036D01*
X88213037Y-89177036D02*
X88092085Y-89237512D01*
X88092085Y-89237512D02*
X87608275Y-89237512D01*
X89845894Y-88572274D02*
X89845894Y-89600369D01*
X89845894Y-89600369D02*
X89906371Y-89721321D01*
X89906371Y-89721321D02*
X89966847Y-89781798D01*
X89966847Y-89781798D02*
X90087799Y-89842274D01*
X90087799Y-89842274D02*
X90329704Y-89842274D01*
X90329704Y-89842274D02*
X90450656Y-89781798D01*
X90450656Y-89781798D02*
X90511133Y-89721321D01*
X90511133Y-89721321D02*
X90571609Y-89600369D01*
X90571609Y-89600369D02*
X90571609Y-88572274D01*
X91115894Y-89781798D02*
X91297323Y-89842274D01*
X91297323Y-89842274D02*
X91599704Y-89842274D01*
X91599704Y-89842274D02*
X91720656Y-89781798D01*
X91720656Y-89781798D02*
X91781132Y-89721321D01*
X91781132Y-89721321D02*
X91841609Y-89600369D01*
X91841609Y-89600369D02*
X91841609Y-89479417D01*
X91841609Y-89479417D02*
X91781132Y-89358464D01*
X91781132Y-89358464D02*
X91720656Y-89297988D01*
X91720656Y-89297988D02*
X91599704Y-89237512D01*
X91599704Y-89237512D02*
X91357799Y-89177036D01*
X91357799Y-89177036D02*
X91236847Y-89116559D01*
X91236847Y-89116559D02*
X91176370Y-89056083D01*
X91176370Y-89056083D02*
X91115894Y-88935131D01*
X91115894Y-88935131D02*
X91115894Y-88814178D01*
X91115894Y-88814178D02*
X91176370Y-88693226D01*
X91176370Y-88693226D02*
X91236847Y-88632750D01*
X91236847Y-88632750D02*
X91357799Y-88572274D01*
X91357799Y-88572274D02*
X91660180Y-88572274D01*
X91660180Y-88572274D02*
X91841609Y-88632750D01*
X92809228Y-89177036D02*
X92990656Y-89237512D01*
X92990656Y-89237512D02*
X93051133Y-89297988D01*
X93051133Y-89297988D02*
X93111609Y-89418940D01*
X93111609Y-89418940D02*
X93111609Y-89600369D01*
X93111609Y-89600369D02*
X93051133Y-89721321D01*
X93051133Y-89721321D02*
X92990656Y-89781798D01*
X92990656Y-89781798D02*
X92869704Y-89842274D01*
X92869704Y-89842274D02*
X92385894Y-89842274D01*
X92385894Y-89842274D02*
X92385894Y-88572274D01*
X92385894Y-88572274D02*
X92809228Y-88572274D01*
X92809228Y-88572274D02*
X92930180Y-88632750D01*
X92930180Y-88632750D02*
X92990656Y-88693226D01*
X92990656Y-88693226D02*
X93051133Y-88814178D01*
X93051133Y-88814178D02*
X93051133Y-88935131D01*
X93051133Y-88935131D02*
X92990656Y-89056083D01*
X92990656Y-89056083D02*
X92930180Y-89116559D01*
X92930180Y-89116559D02*
X92809228Y-89177036D01*
X92809228Y-89177036D02*
X92385894Y-89177036D01*
D12*
X114857142Y-71749580D02*
X114809523Y-71797200D01*
X114809523Y-71797200D02*
X114666666Y-71844819D01*
X114666666Y-71844819D02*
X114571428Y-71844819D01*
X114571428Y-71844819D02*
X114428571Y-71797200D01*
X114428571Y-71797200D02*
X114333333Y-71701961D01*
X114333333Y-71701961D02*
X114285714Y-71606723D01*
X114285714Y-71606723D02*
X114238095Y-71416247D01*
X114238095Y-71416247D02*
X114238095Y-71273390D01*
X114238095Y-71273390D02*
X114285714Y-71082914D01*
X114285714Y-71082914D02*
X114333333Y-70987676D01*
X114333333Y-70987676D02*
X114428571Y-70892438D01*
X114428571Y-70892438D02*
X114571428Y-70844819D01*
X114571428Y-70844819D02*
X114666666Y-70844819D01*
X114666666Y-70844819D02*
X114809523Y-70892438D01*
X114809523Y-70892438D02*
X114857142Y-70940057D01*
X115809523Y-71844819D02*
X115238095Y-71844819D01*
X115523809Y-71844819D02*
X115523809Y-70844819D01*
X115523809Y-70844819D02*
X115428571Y-70987676D01*
X115428571Y-70987676D02*
X115333333Y-71082914D01*
X115333333Y-71082914D02*
X115238095Y-71130533D01*
X116666666Y-70844819D02*
X116476190Y-70844819D01*
X116476190Y-70844819D02*
X116380952Y-70892438D01*
X116380952Y-70892438D02*
X116333333Y-70940057D01*
X116333333Y-70940057D02*
X116238095Y-71082914D01*
X116238095Y-71082914D02*
X116190476Y-71273390D01*
X116190476Y-71273390D02*
X116190476Y-71654342D01*
X116190476Y-71654342D02*
X116238095Y-71749580D01*
X116238095Y-71749580D02*
X116285714Y-71797200D01*
X116285714Y-71797200D02*
X116380952Y-71844819D01*
X116380952Y-71844819D02*
X116571428Y-71844819D01*
X116571428Y-71844819D02*
X116666666Y-71797200D01*
X116666666Y-71797200D02*
X116714285Y-71749580D01*
X116714285Y-71749580D02*
X116761904Y-71654342D01*
X116761904Y-71654342D02*
X116761904Y-71416247D01*
X116761904Y-71416247D02*
X116714285Y-71321009D01*
X116714285Y-71321009D02*
X116666666Y-71273390D01*
X116666666Y-71273390D02*
X116571428Y-71225771D01*
X116571428Y-71225771D02*
X116380952Y-71225771D01*
X116380952Y-71225771D02*
X116285714Y-71273390D01*
X116285714Y-71273390D02*
X116238095Y-71321009D01*
X116238095Y-71321009D02*
X116190476Y-71416247D01*
X74243142Y-49254580D02*
X74195523Y-49302200D01*
X74195523Y-49302200D02*
X74052666Y-49349819D01*
X74052666Y-49349819D02*
X73957428Y-49349819D01*
X73957428Y-49349819D02*
X73814571Y-49302200D01*
X73814571Y-49302200D02*
X73719333Y-49206961D01*
X73719333Y-49206961D02*
X73671714Y-49111723D01*
X73671714Y-49111723D02*
X73624095Y-48921247D01*
X73624095Y-48921247D02*
X73624095Y-48778390D01*
X73624095Y-48778390D02*
X73671714Y-48587914D01*
X73671714Y-48587914D02*
X73719333Y-48492676D01*
X73719333Y-48492676D02*
X73814571Y-48397438D01*
X73814571Y-48397438D02*
X73957428Y-48349819D01*
X73957428Y-48349819D02*
X74052666Y-48349819D01*
X74052666Y-48349819D02*
X74195523Y-48397438D01*
X74195523Y-48397438D02*
X74243142Y-48445057D01*
X74624095Y-48445057D02*
X74671714Y-48397438D01*
X74671714Y-48397438D02*
X74766952Y-48349819D01*
X74766952Y-48349819D02*
X75005047Y-48349819D01*
X75005047Y-48349819D02*
X75100285Y-48397438D01*
X75100285Y-48397438D02*
X75147904Y-48445057D01*
X75147904Y-48445057D02*
X75195523Y-48540295D01*
X75195523Y-48540295D02*
X75195523Y-48635533D01*
X75195523Y-48635533D02*
X75147904Y-48778390D01*
X75147904Y-48778390D02*
X74576476Y-49349819D01*
X74576476Y-49349819D02*
X75195523Y-49349819D01*
X75528857Y-48349819D02*
X76147904Y-48349819D01*
X76147904Y-48349819D02*
X75814571Y-48730771D01*
X75814571Y-48730771D02*
X75957428Y-48730771D01*
X75957428Y-48730771D02*
X76052666Y-48778390D01*
X76052666Y-48778390D02*
X76100285Y-48826009D01*
X76100285Y-48826009D02*
X76147904Y-48921247D01*
X76147904Y-48921247D02*
X76147904Y-49159342D01*
X76147904Y-49159342D02*
X76100285Y-49254580D01*
X76100285Y-49254580D02*
X76052666Y-49302200D01*
X76052666Y-49302200D02*
X75957428Y-49349819D01*
X75957428Y-49349819D02*
X75671714Y-49349819D01*
X75671714Y-49349819D02*
X75576476Y-49302200D01*
X75576476Y-49302200D02*
X75528857Y-49254580D01*
X86929580Y-43642857D02*
X86977200Y-43690476D01*
X86977200Y-43690476D02*
X87024819Y-43833333D01*
X87024819Y-43833333D02*
X87024819Y-43928571D01*
X87024819Y-43928571D02*
X86977200Y-44071428D01*
X86977200Y-44071428D02*
X86881961Y-44166666D01*
X86881961Y-44166666D02*
X86786723Y-44214285D01*
X86786723Y-44214285D02*
X86596247Y-44261904D01*
X86596247Y-44261904D02*
X86453390Y-44261904D01*
X86453390Y-44261904D02*
X86262914Y-44214285D01*
X86262914Y-44214285D02*
X86167676Y-44166666D01*
X86167676Y-44166666D02*
X86072438Y-44071428D01*
X86072438Y-44071428D02*
X86024819Y-43928571D01*
X86024819Y-43928571D02*
X86024819Y-43833333D01*
X86024819Y-43833333D02*
X86072438Y-43690476D01*
X86072438Y-43690476D02*
X86120057Y-43642857D01*
X87024819Y-42690476D02*
X87024819Y-43261904D01*
X87024819Y-42976190D02*
X86024819Y-42976190D01*
X86024819Y-42976190D02*
X86167676Y-43071428D01*
X86167676Y-43071428D02*
X86262914Y-43166666D01*
X86262914Y-43166666D02*
X86310533Y-43261904D01*
X86024819Y-42071428D02*
X86024819Y-41976190D01*
X86024819Y-41976190D02*
X86072438Y-41880952D01*
X86072438Y-41880952D02*
X86120057Y-41833333D01*
X86120057Y-41833333D02*
X86215295Y-41785714D01*
X86215295Y-41785714D02*
X86405771Y-41738095D01*
X86405771Y-41738095D02*
X86643866Y-41738095D01*
X86643866Y-41738095D02*
X86834342Y-41785714D01*
X86834342Y-41785714D02*
X86929580Y-41833333D01*
X86929580Y-41833333D02*
X86977200Y-41880952D01*
X86977200Y-41880952D02*
X87024819Y-41976190D01*
X87024819Y-41976190D02*
X87024819Y-42071428D01*
X87024819Y-42071428D02*
X86977200Y-42166666D01*
X86977200Y-42166666D02*
X86929580Y-42214285D01*
X86929580Y-42214285D02*
X86834342Y-42261904D01*
X86834342Y-42261904D02*
X86643866Y-42309523D01*
X86643866Y-42309523D02*
X86405771Y-42309523D01*
X86405771Y-42309523D02*
X86215295Y-42261904D01*
X86215295Y-42261904D02*
X86120057Y-42214285D01*
X86120057Y-42214285D02*
X86072438Y-42166666D01*
X86072438Y-42166666D02*
X86024819Y-42071428D01*
X62894819Y-26809523D02*
X63609104Y-26809523D01*
X63609104Y-26809523D02*
X63751961Y-26857142D01*
X63751961Y-26857142D02*
X63847200Y-26952380D01*
X63847200Y-26952380D02*
X63894819Y-27095237D01*
X63894819Y-27095237D02*
X63894819Y-27190475D01*
X63894819Y-25809523D02*
X63894819Y-26380951D01*
X63894819Y-26095237D02*
X62894819Y-26095237D01*
X62894819Y-26095237D02*
X63037676Y-26190475D01*
X63037676Y-26190475D02*
X63132914Y-26285713D01*
X63132914Y-26285713D02*
X63180533Y-26380951D01*
X62894819Y-25190475D02*
X62894819Y-25095237D01*
X62894819Y-25095237D02*
X62942438Y-24999999D01*
X62942438Y-24999999D02*
X62990057Y-24952380D01*
X62990057Y-24952380D02*
X63085295Y-24904761D01*
X63085295Y-24904761D02*
X63275771Y-24857142D01*
X63275771Y-24857142D02*
X63513866Y-24857142D01*
X63513866Y-24857142D02*
X63704342Y-24904761D01*
X63704342Y-24904761D02*
X63799580Y-24952380D01*
X63799580Y-24952380D02*
X63847200Y-24999999D01*
X63847200Y-24999999D02*
X63894819Y-25095237D01*
X63894819Y-25095237D02*
X63894819Y-25190475D01*
X63894819Y-25190475D02*
X63847200Y-25285713D01*
X63847200Y-25285713D02*
X63799580Y-25333332D01*
X63799580Y-25333332D02*
X63704342Y-25380951D01*
X63704342Y-25380951D02*
X63513866Y-25428570D01*
X63513866Y-25428570D02*
X63275771Y-25428570D01*
X63275771Y-25428570D02*
X63085295Y-25380951D01*
X63085295Y-25380951D02*
X62990057Y-25333332D01*
X62990057Y-25333332D02*
X62942438Y-25285713D01*
X62942438Y-25285713D02*
X62894819Y-25190475D01*
X52500057Y-98595238D02*
X52452438Y-98690476D01*
X52452438Y-98690476D02*
X52357200Y-98785714D01*
X52357200Y-98785714D02*
X52214342Y-98928571D01*
X52214342Y-98928571D02*
X52166723Y-99023809D01*
X52166723Y-99023809D02*
X52166723Y-99119047D01*
X52404819Y-99071428D02*
X52357200Y-99166666D01*
X52357200Y-99166666D02*
X52261961Y-99261904D01*
X52261961Y-99261904D02*
X52071485Y-99309523D01*
X52071485Y-99309523D02*
X51738152Y-99309523D01*
X51738152Y-99309523D02*
X51547676Y-99261904D01*
X51547676Y-99261904D02*
X51452438Y-99166666D01*
X51452438Y-99166666D02*
X51404819Y-99071428D01*
X51404819Y-99071428D02*
X51404819Y-98880952D01*
X51404819Y-98880952D02*
X51452438Y-98785714D01*
X51452438Y-98785714D02*
X51547676Y-98690476D01*
X51547676Y-98690476D02*
X51738152Y-98642857D01*
X51738152Y-98642857D02*
X52071485Y-98642857D01*
X52071485Y-98642857D02*
X52261961Y-98690476D01*
X52261961Y-98690476D02*
X52357200Y-98785714D01*
X52357200Y-98785714D02*
X52404819Y-98880952D01*
X52404819Y-98880952D02*
X52404819Y-99071428D01*
X52404819Y-97690476D02*
X52404819Y-98261904D01*
X52404819Y-97976190D02*
X51404819Y-97976190D01*
X51404819Y-97976190D02*
X51547676Y-98071428D01*
X51547676Y-98071428D02*
X51642914Y-98166666D01*
X51642914Y-98166666D02*
X51690533Y-98261904D01*
X85277142Y-46839580D02*
X85229523Y-46887200D01*
X85229523Y-46887200D02*
X85086666Y-46934819D01*
X85086666Y-46934819D02*
X84991428Y-46934819D01*
X84991428Y-46934819D02*
X84848571Y-46887200D01*
X84848571Y-46887200D02*
X84753333Y-46791961D01*
X84753333Y-46791961D02*
X84705714Y-46696723D01*
X84705714Y-46696723D02*
X84658095Y-46506247D01*
X84658095Y-46506247D02*
X84658095Y-46363390D01*
X84658095Y-46363390D02*
X84705714Y-46172914D01*
X84705714Y-46172914D02*
X84753333Y-46077676D01*
X84753333Y-46077676D02*
X84848571Y-45982438D01*
X84848571Y-45982438D02*
X84991428Y-45934819D01*
X84991428Y-45934819D02*
X85086666Y-45934819D01*
X85086666Y-45934819D02*
X85229523Y-45982438D01*
X85229523Y-45982438D02*
X85277142Y-46030057D01*
X85658095Y-46030057D02*
X85705714Y-45982438D01*
X85705714Y-45982438D02*
X85800952Y-45934819D01*
X85800952Y-45934819D02*
X86039047Y-45934819D01*
X86039047Y-45934819D02*
X86134285Y-45982438D01*
X86134285Y-45982438D02*
X86181904Y-46030057D01*
X86181904Y-46030057D02*
X86229523Y-46125295D01*
X86229523Y-46125295D02*
X86229523Y-46220533D01*
X86229523Y-46220533D02*
X86181904Y-46363390D01*
X86181904Y-46363390D02*
X85610476Y-46934819D01*
X85610476Y-46934819D02*
X86229523Y-46934819D01*
X87086666Y-45934819D02*
X86896190Y-45934819D01*
X86896190Y-45934819D02*
X86800952Y-45982438D01*
X86800952Y-45982438D02*
X86753333Y-46030057D01*
X86753333Y-46030057D02*
X86658095Y-46172914D01*
X86658095Y-46172914D02*
X86610476Y-46363390D01*
X86610476Y-46363390D02*
X86610476Y-46744342D01*
X86610476Y-46744342D02*
X86658095Y-46839580D01*
X86658095Y-46839580D02*
X86705714Y-46887200D01*
X86705714Y-46887200D02*
X86800952Y-46934819D01*
X86800952Y-46934819D02*
X86991428Y-46934819D01*
X86991428Y-46934819D02*
X87086666Y-46887200D01*
X87086666Y-46887200D02*
X87134285Y-46839580D01*
X87134285Y-46839580D02*
X87181904Y-46744342D01*
X87181904Y-46744342D02*
X87181904Y-46506247D01*
X87181904Y-46506247D02*
X87134285Y-46411009D01*
X87134285Y-46411009D02*
X87086666Y-46363390D01*
X87086666Y-46363390D02*
X86991428Y-46315771D01*
X86991428Y-46315771D02*
X86800952Y-46315771D01*
X86800952Y-46315771D02*
X86705714Y-46363390D01*
X86705714Y-46363390D02*
X86658095Y-46411009D01*
X86658095Y-46411009D02*
X86610476Y-46506247D01*
X45433333Y-103329580D02*
X45385714Y-103377200D01*
X45385714Y-103377200D02*
X45242857Y-103424819D01*
X45242857Y-103424819D02*
X45147619Y-103424819D01*
X45147619Y-103424819D02*
X45004762Y-103377200D01*
X45004762Y-103377200D02*
X44909524Y-103281961D01*
X44909524Y-103281961D02*
X44861905Y-103186723D01*
X44861905Y-103186723D02*
X44814286Y-102996247D01*
X44814286Y-102996247D02*
X44814286Y-102853390D01*
X44814286Y-102853390D02*
X44861905Y-102662914D01*
X44861905Y-102662914D02*
X44909524Y-102567676D01*
X44909524Y-102567676D02*
X45004762Y-102472438D01*
X45004762Y-102472438D02*
X45147619Y-102424819D01*
X45147619Y-102424819D02*
X45242857Y-102424819D01*
X45242857Y-102424819D02*
X45385714Y-102472438D01*
X45385714Y-102472438D02*
X45433333Y-102520057D01*
X45909524Y-103424819D02*
X46100000Y-103424819D01*
X46100000Y-103424819D02*
X46195238Y-103377200D01*
X46195238Y-103377200D02*
X46242857Y-103329580D01*
X46242857Y-103329580D02*
X46338095Y-103186723D01*
X46338095Y-103186723D02*
X46385714Y-102996247D01*
X46385714Y-102996247D02*
X46385714Y-102615295D01*
X46385714Y-102615295D02*
X46338095Y-102520057D01*
X46338095Y-102520057D02*
X46290476Y-102472438D01*
X46290476Y-102472438D02*
X46195238Y-102424819D01*
X46195238Y-102424819D02*
X46004762Y-102424819D01*
X46004762Y-102424819D02*
X45909524Y-102472438D01*
X45909524Y-102472438D02*
X45861905Y-102520057D01*
X45861905Y-102520057D02*
X45814286Y-102615295D01*
X45814286Y-102615295D02*
X45814286Y-102853390D01*
X45814286Y-102853390D02*
X45861905Y-102948628D01*
X45861905Y-102948628D02*
X45909524Y-102996247D01*
X45909524Y-102996247D02*
X46004762Y-103043866D01*
X46004762Y-103043866D02*
X46195238Y-103043866D01*
X46195238Y-103043866D02*
X46290476Y-102996247D01*
X46290476Y-102996247D02*
X46338095Y-102948628D01*
X46338095Y-102948628D02*
X46385714Y-102853390D01*
X71036833Y-92615819D02*
X70703500Y-92139628D01*
X70465405Y-92615819D02*
X70465405Y-91615819D01*
X70465405Y-91615819D02*
X70846357Y-91615819D01*
X70846357Y-91615819D02*
X70941595Y-91663438D01*
X70941595Y-91663438D02*
X70989214Y-91711057D01*
X70989214Y-91711057D02*
X71036833Y-91806295D01*
X71036833Y-91806295D02*
X71036833Y-91949152D01*
X71036833Y-91949152D02*
X70989214Y-92044390D01*
X70989214Y-92044390D02*
X70941595Y-92092009D01*
X70941595Y-92092009D02*
X70846357Y-92139628D01*
X70846357Y-92139628D02*
X70465405Y-92139628D01*
X71370167Y-91615819D02*
X71989214Y-91615819D01*
X71989214Y-91615819D02*
X71655881Y-91996771D01*
X71655881Y-91996771D02*
X71798738Y-91996771D01*
X71798738Y-91996771D02*
X71893976Y-92044390D01*
X71893976Y-92044390D02*
X71941595Y-92092009D01*
X71941595Y-92092009D02*
X71989214Y-92187247D01*
X71989214Y-92187247D02*
X71989214Y-92425342D01*
X71989214Y-92425342D02*
X71941595Y-92520580D01*
X71941595Y-92520580D02*
X71893976Y-92568200D01*
X71893976Y-92568200D02*
X71798738Y-92615819D01*
X71798738Y-92615819D02*
X71513024Y-92615819D01*
X71513024Y-92615819D02*
X71417786Y-92568200D01*
X71417786Y-92568200D02*
X71370167Y-92520580D01*
X37394819Y-39809523D02*
X38109104Y-39809523D01*
X38109104Y-39809523D02*
X38251961Y-39857142D01*
X38251961Y-39857142D02*
X38347200Y-39952380D01*
X38347200Y-39952380D02*
X38394819Y-40095237D01*
X38394819Y-40095237D02*
X38394819Y-40190475D01*
X38394819Y-38809523D02*
X38394819Y-39380951D01*
X38394819Y-39095237D02*
X37394819Y-39095237D01*
X37394819Y-39095237D02*
X37537676Y-39190475D01*
X37537676Y-39190475D02*
X37632914Y-39285713D01*
X37632914Y-39285713D02*
X37680533Y-39380951D01*
X37394819Y-37952380D02*
X37394819Y-38142856D01*
X37394819Y-38142856D02*
X37442438Y-38238094D01*
X37442438Y-38238094D02*
X37490057Y-38285713D01*
X37490057Y-38285713D02*
X37632914Y-38380951D01*
X37632914Y-38380951D02*
X37823390Y-38428570D01*
X37823390Y-38428570D02*
X38204342Y-38428570D01*
X38204342Y-38428570D02*
X38299580Y-38380951D01*
X38299580Y-38380951D02*
X38347200Y-38333332D01*
X38347200Y-38333332D02*
X38394819Y-38238094D01*
X38394819Y-38238094D02*
X38394819Y-38047618D01*
X38394819Y-38047618D02*
X38347200Y-37952380D01*
X38347200Y-37952380D02*
X38299580Y-37904761D01*
X38299580Y-37904761D02*
X38204342Y-37857142D01*
X38204342Y-37857142D02*
X37966247Y-37857142D01*
X37966247Y-37857142D02*
X37871009Y-37904761D01*
X37871009Y-37904761D02*
X37823390Y-37952380D01*
X37823390Y-37952380D02*
X37775771Y-38047618D01*
X37775771Y-38047618D02*
X37775771Y-38238094D01*
X37775771Y-38238094D02*
X37823390Y-38333332D01*
X37823390Y-38333332D02*
X37871009Y-38380951D01*
X37871009Y-38380951D02*
X37966247Y-38428570D01*
X69379580Y-72176666D02*
X69427200Y-72224285D01*
X69427200Y-72224285D02*
X69474819Y-72367142D01*
X69474819Y-72367142D02*
X69474819Y-72462380D01*
X69474819Y-72462380D02*
X69427200Y-72605237D01*
X69427200Y-72605237D02*
X69331961Y-72700475D01*
X69331961Y-72700475D02*
X69236723Y-72748094D01*
X69236723Y-72748094D02*
X69046247Y-72795713D01*
X69046247Y-72795713D02*
X68903390Y-72795713D01*
X68903390Y-72795713D02*
X68712914Y-72748094D01*
X68712914Y-72748094D02*
X68617676Y-72700475D01*
X68617676Y-72700475D02*
X68522438Y-72605237D01*
X68522438Y-72605237D02*
X68474819Y-72462380D01*
X68474819Y-72462380D02*
X68474819Y-72367142D01*
X68474819Y-72367142D02*
X68522438Y-72224285D01*
X68522438Y-72224285D02*
X68570057Y-72176666D01*
X68474819Y-71843332D02*
X68474819Y-71224285D01*
X68474819Y-71224285D02*
X68855771Y-71557618D01*
X68855771Y-71557618D02*
X68855771Y-71414761D01*
X68855771Y-71414761D02*
X68903390Y-71319523D01*
X68903390Y-71319523D02*
X68951009Y-71271904D01*
X68951009Y-71271904D02*
X69046247Y-71224285D01*
X69046247Y-71224285D02*
X69284342Y-71224285D01*
X69284342Y-71224285D02*
X69379580Y-71271904D01*
X69379580Y-71271904D02*
X69427200Y-71319523D01*
X69427200Y-71319523D02*
X69474819Y-71414761D01*
X69474819Y-71414761D02*
X69474819Y-71700475D01*
X69474819Y-71700475D02*
X69427200Y-71795713D01*
X69427200Y-71795713D02*
X69379580Y-71843332D01*
X117758819Y-93941666D02*
X117282628Y-94274999D01*
X117758819Y-94513094D02*
X116758819Y-94513094D01*
X116758819Y-94513094D02*
X116758819Y-94132142D01*
X116758819Y-94132142D02*
X116806438Y-94036904D01*
X116806438Y-94036904D02*
X116854057Y-93989285D01*
X116854057Y-93989285D02*
X116949295Y-93941666D01*
X116949295Y-93941666D02*
X117092152Y-93941666D01*
X117092152Y-93941666D02*
X117187390Y-93989285D01*
X117187390Y-93989285D02*
X117235009Y-94036904D01*
X117235009Y-94036904D02*
X117282628Y-94132142D01*
X117282628Y-94132142D02*
X117282628Y-94513094D01*
X116758819Y-93608332D02*
X116758819Y-92941666D01*
X116758819Y-92941666D02*
X117758819Y-93370237D01*
X36190476Y-40894819D02*
X36190476Y-41609104D01*
X36190476Y-41609104D02*
X36142857Y-41751961D01*
X36142857Y-41751961D02*
X36047619Y-41847200D01*
X36047619Y-41847200D02*
X35904762Y-41894819D01*
X35904762Y-41894819D02*
X35809524Y-41894819D01*
X37190476Y-41894819D02*
X36619048Y-41894819D01*
X36904762Y-41894819D02*
X36904762Y-40894819D01*
X36904762Y-40894819D02*
X36809524Y-41037676D01*
X36809524Y-41037676D02*
X36714286Y-41132914D01*
X36714286Y-41132914D02*
X36619048Y-41180533D01*
X38142857Y-41894819D02*
X37571429Y-41894819D01*
X37857143Y-41894819D02*
X37857143Y-40894819D01*
X37857143Y-40894819D02*
X37761905Y-41037676D01*
X37761905Y-41037676D02*
X37666667Y-41132914D01*
X37666667Y-41132914D02*
X37571429Y-41180533D01*
X101389580Y-52042857D02*
X101437200Y-52090476D01*
X101437200Y-52090476D02*
X101484819Y-52233333D01*
X101484819Y-52233333D02*
X101484819Y-52328571D01*
X101484819Y-52328571D02*
X101437200Y-52471428D01*
X101437200Y-52471428D02*
X101341961Y-52566666D01*
X101341961Y-52566666D02*
X101246723Y-52614285D01*
X101246723Y-52614285D02*
X101056247Y-52661904D01*
X101056247Y-52661904D02*
X100913390Y-52661904D01*
X100913390Y-52661904D02*
X100722914Y-52614285D01*
X100722914Y-52614285D02*
X100627676Y-52566666D01*
X100627676Y-52566666D02*
X100532438Y-52471428D01*
X100532438Y-52471428D02*
X100484819Y-52328571D01*
X100484819Y-52328571D02*
X100484819Y-52233333D01*
X100484819Y-52233333D02*
X100532438Y-52090476D01*
X100532438Y-52090476D02*
X100580057Y-52042857D01*
X100580057Y-51661904D02*
X100532438Y-51614285D01*
X100532438Y-51614285D02*
X100484819Y-51519047D01*
X100484819Y-51519047D02*
X100484819Y-51280952D01*
X100484819Y-51280952D02*
X100532438Y-51185714D01*
X100532438Y-51185714D02*
X100580057Y-51138095D01*
X100580057Y-51138095D02*
X100675295Y-51090476D01*
X100675295Y-51090476D02*
X100770533Y-51090476D01*
X100770533Y-51090476D02*
X100913390Y-51138095D01*
X100913390Y-51138095D02*
X101484819Y-51709523D01*
X101484819Y-51709523D02*
X101484819Y-51090476D01*
X100818152Y-50233333D02*
X101484819Y-50233333D01*
X100437200Y-50471428D02*
X101151485Y-50709523D01*
X101151485Y-50709523D02*
X101151485Y-50090476D01*
X73486905Y-92884819D02*
X73486905Y-91884819D01*
X73486905Y-91884819D02*
X73725000Y-91884819D01*
X73725000Y-91884819D02*
X73867857Y-91932438D01*
X73867857Y-91932438D02*
X73963095Y-92027676D01*
X73963095Y-92027676D02*
X74010714Y-92122914D01*
X74010714Y-92122914D02*
X74058333Y-92313390D01*
X74058333Y-92313390D02*
X74058333Y-92456247D01*
X74058333Y-92456247D02*
X74010714Y-92646723D01*
X74010714Y-92646723D02*
X73963095Y-92741961D01*
X73963095Y-92741961D02*
X73867857Y-92837200D01*
X73867857Y-92837200D02*
X73725000Y-92884819D01*
X73725000Y-92884819D02*
X73486905Y-92884819D01*
X74439286Y-91980057D02*
X74486905Y-91932438D01*
X74486905Y-91932438D02*
X74582143Y-91884819D01*
X74582143Y-91884819D02*
X74820238Y-91884819D01*
X74820238Y-91884819D02*
X74915476Y-91932438D01*
X74915476Y-91932438D02*
X74963095Y-91980057D01*
X74963095Y-91980057D02*
X75010714Y-92075295D01*
X75010714Y-92075295D02*
X75010714Y-92170533D01*
X75010714Y-92170533D02*
X74963095Y-92313390D01*
X74963095Y-92313390D02*
X74391667Y-92884819D01*
X74391667Y-92884819D02*
X75010714Y-92884819D01*
X78967142Y-43409580D02*
X78919523Y-43457200D01*
X78919523Y-43457200D02*
X78776666Y-43504819D01*
X78776666Y-43504819D02*
X78681428Y-43504819D01*
X78681428Y-43504819D02*
X78538571Y-43457200D01*
X78538571Y-43457200D02*
X78443333Y-43361961D01*
X78443333Y-43361961D02*
X78395714Y-43266723D01*
X78395714Y-43266723D02*
X78348095Y-43076247D01*
X78348095Y-43076247D02*
X78348095Y-42933390D01*
X78348095Y-42933390D02*
X78395714Y-42742914D01*
X78395714Y-42742914D02*
X78443333Y-42647676D01*
X78443333Y-42647676D02*
X78538571Y-42552438D01*
X78538571Y-42552438D02*
X78681428Y-42504819D01*
X78681428Y-42504819D02*
X78776666Y-42504819D01*
X78776666Y-42504819D02*
X78919523Y-42552438D01*
X78919523Y-42552438D02*
X78967142Y-42600057D01*
X79348095Y-42600057D02*
X79395714Y-42552438D01*
X79395714Y-42552438D02*
X79490952Y-42504819D01*
X79490952Y-42504819D02*
X79729047Y-42504819D01*
X79729047Y-42504819D02*
X79824285Y-42552438D01*
X79824285Y-42552438D02*
X79871904Y-42600057D01*
X79871904Y-42600057D02*
X79919523Y-42695295D01*
X79919523Y-42695295D02*
X79919523Y-42790533D01*
X79919523Y-42790533D02*
X79871904Y-42933390D01*
X79871904Y-42933390D02*
X79300476Y-43504819D01*
X79300476Y-43504819D02*
X79919523Y-43504819D01*
X80824285Y-42504819D02*
X80348095Y-42504819D01*
X80348095Y-42504819D02*
X80300476Y-42981009D01*
X80300476Y-42981009D02*
X80348095Y-42933390D01*
X80348095Y-42933390D02*
X80443333Y-42885771D01*
X80443333Y-42885771D02*
X80681428Y-42885771D01*
X80681428Y-42885771D02*
X80776666Y-42933390D01*
X80776666Y-42933390D02*
X80824285Y-42981009D01*
X80824285Y-42981009D02*
X80871904Y-43076247D01*
X80871904Y-43076247D02*
X80871904Y-43314342D01*
X80871904Y-43314342D02*
X80824285Y-43409580D01*
X80824285Y-43409580D02*
X80776666Y-43457200D01*
X80776666Y-43457200D02*
X80681428Y-43504819D01*
X80681428Y-43504819D02*
X80443333Y-43504819D01*
X80443333Y-43504819D02*
X80348095Y-43457200D01*
X80348095Y-43457200D02*
X80300476Y-43409580D01*
X67333333Y-69019580D02*
X67285714Y-69067200D01*
X67285714Y-69067200D02*
X67142857Y-69114819D01*
X67142857Y-69114819D02*
X67047619Y-69114819D01*
X67047619Y-69114819D02*
X66904762Y-69067200D01*
X66904762Y-69067200D02*
X66809524Y-68971961D01*
X66809524Y-68971961D02*
X66761905Y-68876723D01*
X66761905Y-68876723D02*
X66714286Y-68686247D01*
X66714286Y-68686247D02*
X66714286Y-68543390D01*
X66714286Y-68543390D02*
X66761905Y-68352914D01*
X66761905Y-68352914D02*
X66809524Y-68257676D01*
X66809524Y-68257676D02*
X66904762Y-68162438D01*
X66904762Y-68162438D02*
X67047619Y-68114819D01*
X67047619Y-68114819D02*
X67142857Y-68114819D01*
X67142857Y-68114819D02*
X67285714Y-68162438D01*
X67285714Y-68162438D02*
X67333333Y-68210057D01*
X68190476Y-68448152D02*
X68190476Y-69114819D01*
X67952381Y-68067200D02*
X67714286Y-68781485D01*
X67714286Y-68781485D02*
X68333333Y-68781485D01*
X77919580Y-52471857D02*
X77967200Y-52519476D01*
X77967200Y-52519476D02*
X78014819Y-52662333D01*
X78014819Y-52662333D02*
X78014819Y-52757571D01*
X78014819Y-52757571D02*
X77967200Y-52900428D01*
X77967200Y-52900428D02*
X77871961Y-52995666D01*
X77871961Y-52995666D02*
X77776723Y-53043285D01*
X77776723Y-53043285D02*
X77586247Y-53090904D01*
X77586247Y-53090904D02*
X77443390Y-53090904D01*
X77443390Y-53090904D02*
X77252914Y-53043285D01*
X77252914Y-53043285D02*
X77157676Y-52995666D01*
X77157676Y-52995666D02*
X77062438Y-52900428D01*
X77062438Y-52900428D02*
X77014819Y-52757571D01*
X77014819Y-52757571D02*
X77014819Y-52662333D01*
X77014819Y-52662333D02*
X77062438Y-52519476D01*
X77062438Y-52519476D02*
X77110057Y-52471857D01*
X77110057Y-52090904D02*
X77062438Y-52043285D01*
X77062438Y-52043285D02*
X77014819Y-51948047D01*
X77014819Y-51948047D02*
X77014819Y-51709952D01*
X77014819Y-51709952D02*
X77062438Y-51614714D01*
X77062438Y-51614714D02*
X77110057Y-51567095D01*
X77110057Y-51567095D02*
X77205295Y-51519476D01*
X77205295Y-51519476D02*
X77300533Y-51519476D01*
X77300533Y-51519476D02*
X77443390Y-51567095D01*
X77443390Y-51567095D02*
X78014819Y-52138523D01*
X78014819Y-52138523D02*
X78014819Y-51519476D01*
X77014819Y-50900428D02*
X77014819Y-50805190D01*
X77014819Y-50805190D02*
X77062438Y-50709952D01*
X77062438Y-50709952D02*
X77110057Y-50662333D01*
X77110057Y-50662333D02*
X77205295Y-50614714D01*
X77205295Y-50614714D02*
X77395771Y-50567095D01*
X77395771Y-50567095D02*
X77633866Y-50567095D01*
X77633866Y-50567095D02*
X77824342Y-50614714D01*
X77824342Y-50614714D02*
X77919580Y-50662333D01*
X77919580Y-50662333D02*
X77967200Y-50709952D01*
X77967200Y-50709952D02*
X78014819Y-50805190D01*
X78014819Y-50805190D02*
X78014819Y-50900428D01*
X78014819Y-50900428D02*
X77967200Y-50995666D01*
X77967200Y-50995666D02*
X77919580Y-51043285D01*
X77919580Y-51043285D02*
X77824342Y-51090904D01*
X77824342Y-51090904D02*
X77633866Y-51138523D01*
X77633866Y-51138523D02*
X77395771Y-51138523D01*
X77395771Y-51138523D02*
X77205295Y-51090904D01*
X77205295Y-51090904D02*
X77110057Y-51043285D01*
X77110057Y-51043285D02*
X77062438Y-50995666D01*
X77062438Y-50995666D02*
X77014819Y-50900428D01*
X62209580Y-71716666D02*
X62257200Y-71764285D01*
X62257200Y-71764285D02*
X62304819Y-71907142D01*
X62304819Y-71907142D02*
X62304819Y-72002380D01*
X62304819Y-72002380D02*
X62257200Y-72145237D01*
X62257200Y-72145237D02*
X62161961Y-72240475D01*
X62161961Y-72240475D02*
X62066723Y-72288094D01*
X62066723Y-72288094D02*
X61876247Y-72335713D01*
X61876247Y-72335713D02*
X61733390Y-72335713D01*
X61733390Y-72335713D02*
X61542914Y-72288094D01*
X61542914Y-72288094D02*
X61447676Y-72240475D01*
X61447676Y-72240475D02*
X61352438Y-72145237D01*
X61352438Y-72145237D02*
X61304819Y-72002380D01*
X61304819Y-72002380D02*
X61304819Y-71907142D01*
X61304819Y-71907142D02*
X61352438Y-71764285D01*
X61352438Y-71764285D02*
X61400057Y-71716666D01*
X62304819Y-70764285D02*
X62304819Y-71335713D01*
X62304819Y-71049999D02*
X61304819Y-71049999D01*
X61304819Y-71049999D02*
X61447676Y-71145237D01*
X61447676Y-71145237D02*
X61542914Y-71240475D01*
X61542914Y-71240475D02*
X61590533Y-71335713D01*
X65893333Y-29499580D02*
X65845714Y-29547200D01*
X65845714Y-29547200D02*
X65702857Y-29594819D01*
X65702857Y-29594819D02*
X65607619Y-29594819D01*
X65607619Y-29594819D02*
X65464762Y-29547200D01*
X65464762Y-29547200D02*
X65369524Y-29451961D01*
X65369524Y-29451961D02*
X65321905Y-29356723D01*
X65321905Y-29356723D02*
X65274286Y-29166247D01*
X65274286Y-29166247D02*
X65274286Y-29023390D01*
X65274286Y-29023390D02*
X65321905Y-28832914D01*
X65321905Y-28832914D02*
X65369524Y-28737676D01*
X65369524Y-28737676D02*
X65464762Y-28642438D01*
X65464762Y-28642438D02*
X65607619Y-28594819D01*
X65607619Y-28594819D02*
X65702857Y-28594819D01*
X65702857Y-28594819D02*
X65845714Y-28642438D01*
X65845714Y-28642438D02*
X65893333Y-28690057D01*
X66750476Y-28594819D02*
X66560000Y-28594819D01*
X66560000Y-28594819D02*
X66464762Y-28642438D01*
X66464762Y-28642438D02*
X66417143Y-28690057D01*
X66417143Y-28690057D02*
X66321905Y-28832914D01*
X66321905Y-28832914D02*
X66274286Y-29023390D01*
X66274286Y-29023390D02*
X66274286Y-29404342D01*
X66274286Y-29404342D02*
X66321905Y-29499580D01*
X66321905Y-29499580D02*
X66369524Y-29547200D01*
X66369524Y-29547200D02*
X66464762Y-29594819D01*
X66464762Y-29594819D02*
X66655238Y-29594819D01*
X66655238Y-29594819D02*
X66750476Y-29547200D01*
X66750476Y-29547200D02*
X66798095Y-29499580D01*
X66798095Y-29499580D02*
X66845714Y-29404342D01*
X66845714Y-29404342D02*
X66845714Y-29166247D01*
X66845714Y-29166247D02*
X66798095Y-29071009D01*
X66798095Y-29071009D02*
X66750476Y-29023390D01*
X66750476Y-29023390D02*
X66655238Y-28975771D01*
X66655238Y-28975771D02*
X66464762Y-28975771D01*
X66464762Y-28975771D02*
X66369524Y-29023390D01*
X66369524Y-29023390D02*
X66321905Y-29071009D01*
X66321905Y-29071009D02*
X66274286Y-29166247D01*
X91297142Y-50609580D02*
X91249523Y-50657200D01*
X91249523Y-50657200D02*
X91106666Y-50704819D01*
X91106666Y-50704819D02*
X91011428Y-50704819D01*
X91011428Y-50704819D02*
X90868571Y-50657200D01*
X90868571Y-50657200D02*
X90773333Y-50561961D01*
X90773333Y-50561961D02*
X90725714Y-50466723D01*
X90725714Y-50466723D02*
X90678095Y-50276247D01*
X90678095Y-50276247D02*
X90678095Y-50133390D01*
X90678095Y-50133390D02*
X90725714Y-49942914D01*
X90725714Y-49942914D02*
X90773333Y-49847676D01*
X90773333Y-49847676D02*
X90868571Y-49752438D01*
X90868571Y-49752438D02*
X91011428Y-49704819D01*
X91011428Y-49704819D02*
X91106666Y-49704819D01*
X91106666Y-49704819D02*
X91249523Y-49752438D01*
X91249523Y-49752438D02*
X91297142Y-49800057D01*
X92249523Y-50704819D02*
X91678095Y-50704819D01*
X91963809Y-50704819D02*
X91963809Y-49704819D01*
X91963809Y-49704819D02*
X91868571Y-49847676D01*
X91868571Y-49847676D02*
X91773333Y-49942914D01*
X91773333Y-49942914D02*
X91678095Y-49990533D01*
X92820952Y-50133390D02*
X92725714Y-50085771D01*
X92725714Y-50085771D02*
X92678095Y-50038152D01*
X92678095Y-50038152D02*
X92630476Y-49942914D01*
X92630476Y-49942914D02*
X92630476Y-49895295D01*
X92630476Y-49895295D02*
X92678095Y-49800057D01*
X92678095Y-49800057D02*
X92725714Y-49752438D01*
X92725714Y-49752438D02*
X92820952Y-49704819D01*
X92820952Y-49704819D02*
X93011428Y-49704819D01*
X93011428Y-49704819D02*
X93106666Y-49752438D01*
X93106666Y-49752438D02*
X93154285Y-49800057D01*
X93154285Y-49800057D02*
X93201904Y-49895295D01*
X93201904Y-49895295D02*
X93201904Y-49942914D01*
X93201904Y-49942914D02*
X93154285Y-50038152D01*
X93154285Y-50038152D02*
X93106666Y-50085771D01*
X93106666Y-50085771D02*
X93011428Y-50133390D01*
X93011428Y-50133390D02*
X92820952Y-50133390D01*
X92820952Y-50133390D02*
X92725714Y-50181009D01*
X92725714Y-50181009D02*
X92678095Y-50228628D01*
X92678095Y-50228628D02*
X92630476Y-50323866D01*
X92630476Y-50323866D02*
X92630476Y-50514342D01*
X92630476Y-50514342D02*
X92678095Y-50609580D01*
X92678095Y-50609580D02*
X92725714Y-50657200D01*
X92725714Y-50657200D02*
X92820952Y-50704819D01*
X92820952Y-50704819D02*
X93011428Y-50704819D01*
X93011428Y-50704819D02*
X93106666Y-50657200D01*
X93106666Y-50657200D02*
X93154285Y-50609580D01*
X93154285Y-50609580D02*
X93201904Y-50514342D01*
X93201904Y-50514342D02*
X93201904Y-50323866D01*
X93201904Y-50323866D02*
X93154285Y-50228628D01*
X93154285Y-50228628D02*
X93106666Y-50181009D01*
X93106666Y-50181009D02*
X93011428Y-50133390D01*
X39620476Y-104794819D02*
X39620476Y-105509104D01*
X39620476Y-105509104D02*
X39572857Y-105651961D01*
X39572857Y-105651961D02*
X39477619Y-105747200D01*
X39477619Y-105747200D02*
X39334762Y-105794819D01*
X39334762Y-105794819D02*
X39239524Y-105794819D01*
X40620476Y-105794819D02*
X40049048Y-105794819D01*
X40334762Y-105794819D02*
X40334762Y-104794819D01*
X40334762Y-104794819D02*
X40239524Y-104937676D01*
X40239524Y-104937676D02*
X40144286Y-105032914D01*
X40144286Y-105032914D02*
X40049048Y-105080533D01*
X41001429Y-104890057D02*
X41049048Y-104842438D01*
X41049048Y-104842438D02*
X41144286Y-104794819D01*
X41144286Y-104794819D02*
X41382381Y-104794819D01*
X41382381Y-104794819D02*
X41477619Y-104842438D01*
X41477619Y-104842438D02*
X41525238Y-104890057D01*
X41525238Y-104890057D02*
X41572857Y-104985295D01*
X41572857Y-104985295D02*
X41572857Y-105080533D01*
X41572857Y-105080533D02*
X41525238Y-105223390D01*
X41525238Y-105223390D02*
X40953810Y-105794819D01*
X40953810Y-105794819D02*
X41572857Y-105794819D01*
X77559580Y-64622857D02*
X77607200Y-64670476D01*
X77607200Y-64670476D02*
X77654819Y-64813333D01*
X77654819Y-64813333D02*
X77654819Y-64908571D01*
X77654819Y-64908571D02*
X77607200Y-65051428D01*
X77607200Y-65051428D02*
X77511961Y-65146666D01*
X77511961Y-65146666D02*
X77416723Y-65194285D01*
X77416723Y-65194285D02*
X77226247Y-65241904D01*
X77226247Y-65241904D02*
X77083390Y-65241904D01*
X77083390Y-65241904D02*
X76892914Y-65194285D01*
X76892914Y-65194285D02*
X76797676Y-65146666D01*
X76797676Y-65146666D02*
X76702438Y-65051428D01*
X76702438Y-65051428D02*
X76654819Y-64908571D01*
X76654819Y-64908571D02*
X76654819Y-64813333D01*
X76654819Y-64813333D02*
X76702438Y-64670476D01*
X76702438Y-64670476D02*
X76750057Y-64622857D01*
X77654819Y-63670476D02*
X77654819Y-64241904D01*
X77654819Y-63956190D02*
X76654819Y-63956190D01*
X76654819Y-63956190D02*
X76797676Y-64051428D01*
X76797676Y-64051428D02*
X76892914Y-64146666D01*
X76892914Y-64146666D02*
X76940533Y-64241904D01*
X76988152Y-62813333D02*
X77654819Y-62813333D01*
X76607200Y-63051428D02*
X77321485Y-63289523D01*
X77321485Y-63289523D02*
X77321485Y-62670476D01*
X92486666Y-45931009D02*
X92153333Y-45931009D01*
X92153333Y-46454819D02*
X92153333Y-45454819D01*
X92153333Y-45454819D02*
X92629523Y-45454819D01*
X93343809Y-45931009D02*
X93486666Y-45978628D01*
X93486666Y-45978628D02*
X93534285Y-46026247D01*
X93534285Y-46026247D02*
X93581904Y-46121485D01*
X93581904Y-46121485D02*
X93581904Y-46264342D01*
X93581904Y-46264342D02*
X93534285Y-46359580D01*
X93534285Y-46359580D02*
X93486666Y-46407200D01*
X93486666Y-46407200D02*
X93391428Y-46454819D01*
X93391428Y-46454819D02*
X93010476Y-46454819D01*
X93010476Y-46454819D02*
X93010476Y-45454819D01*
X93010476Y-45454819D02*
X93343809Y-45454819D01*
X93343809Y-45454819D02*
X93439047Y-45502438D01*
X93439047Y-45502438D02*
X93486666Y-45550057D01*
X93486666Y-45550057D02*
X93534285Y-45645295D01*
X93534285Y-45645295D02*
X93534285Y-45740533D01*
X93534285Y-45740533D02*
X93486666Y-45835771D01*
X93486666Y-45835771D02*
X93439047Y-45883390D01*
X93439047Y-45883390D02*
X93343809Y-45931009D01*
X93343809Y-45931009D02*
X93010476Y-45931009D01*
X94534285Y-46454819D02*
X93962857Y-46454819D01*
X94248571Y-46454819D02*
X94248571Y-45454819D01*
X94248571Y-45454819D02*
X94153333Y-45597676D01*
X94153333Y-45597676D02*
X94058095Y-45692914D01*
X94058095Y-45692914D02*
X93962857Y-45740533D01*
X70486319Y-102142857D02*
X70010128Y-102476190D01*
X70486319Y-102714285D02*
X69486319Y-102714285D01*
X69486319Y-102714285D02*
X69486319Y-102333333D01*
X69486319Y-102333333D02*
X69533938Y-102238095D01*
X69533938Y-102238095D02*
X69581557Y-102190476D01*
X69581557Y-102190476D02*
X69676795Y-102142857D01*
X69676795Y-102142857D02*
X69819652Y-102142857D01*
X69819652Y-102142857D02*
X69914890Y-102190476D01*
X69914890Y-102190476D02*
X69962509Y-102238095D01*
X69962509Y-102238095D02*
X70010128Y-102333333D01*
X70010128Y-102333333D02*
X70010128Y-102714285D01*
X70486319Y-101190476D02*
X70486319Y-101761904D01*
X70486319Y-101476190D02*
X69486319Y-101476190D01*
X69486319Y-101476190D02*
X69629176Y-101571428D01*
X69629176Y-101571428D02*
X69724414Y-101666666D01*
X69724414Y-101666666D02*
X69772033Y-101761904D01*
X70486319Y-100714285D02*
X70486319Y-100523809D01*
X70486319Y-100523809D02*
X70438700Y-100428571D01*
X70438700Y-100428571D02*
X70391080Y-100380952D01*
X70391080Y-100380952D02*
X70248223Y-100285714D01*
X70248223Y-100285714D02*
X70057747Y-100238095D01*
X70057747Y-100238095D02*
X69676795Y-100238095D01*
X69676795Y-100238095D02*
X69581557Y-100285714D01*
X69581557Y-100285714D02*
X69533938Y-100333333D01*
X69533938Y-100333333D02*
X69486319Y-100428571D01*
X69486319Y-100428571D02*
X69486319Y-100619047D01*
X69486319Y-100619047D02*
X69533938Y-100714285D01*
X69533938Y-100714285D02*
X69581557Y-100761904D01*
X69581557Y-100761904D02*
X69676795Y-100809523D01*
X69676795Y-100809523D02*
X69914890Y-100809523D01*
X69914890Y-100809523D02*
X70010128Y-100761904D01*
X70010128Y-100761904D02*
X70057747Y-100714285D01*
X70057747Y-100714285D02*
X70105366Y-100619047D01*
X70105366Y-100619047D02*
X70105366Y-100428571D01*
X70105366Y-100428571D02*
X70057747Y-100333333D01*
X70057747Y-100333333D02*
X70010128Y-100285714D01*
X70010128Y-100285714D02*
X69914890Y-100238095D01*
X97104819Y-48902857D02*
X96628628Y-49236190D01*
X97104819Y-49474285D02*
X96104819Y-49474285D01*
X96104819Y-49474285D02*
X96104819Y-49093333D01*
X96104819Y-49093333D02*
X96152438Y-48998095D01*
X96152438Y-48998095D02*
X96200057Y-48950476D01*
X96200057Y-48950476D02*
X96295295Y-48902857D01*
X96295295Y-48902857D02*
X96438152Y-48902857D01*
X96438152Y-48902857D02*
X96533390Y-48950476D01*
X96533390Y-48950476D02*
X96581009Y-48998095D01*
X96581009Y-48998095D02*
X96628628Y-49093333D01*
X96628628Y-49093333D02*
X96628628Y-49474285D01*
X97104819Y-47950476D02*
X97104819Y-48521904D01*
X97104819Y-48236190D02*
X96104819Y-48236190D01*
X96104819Y-48236190D02*
X96247676Y-48331428D01*
X96247676Y-48331428D02*
X96342914Y-48426666D01*
X96342914Y-48426666D02*
X96390533Y-48521904D01*
X96104819Y-47617142D02*
X96104819Y-46950476D01*
X96104819Y-46950476D02*
X97104819Y-47379047D01*
X69001009Y-68833333D02*
X69001009Y-69166666D01*
X69524819Y-69166666D02*
X68524819Y-69166666D01*
X68524819Y-69166666D02*
X68524819Y-68690476D01*
X69001009Y-67976190D02*
X69048628Y-67833333D01*
X69048628Y-67833333D02*
X69096247Y-67785714D01*
X69096247Y-67785714D02*
X69191485Y-67738095D01*
X69191485Y-67738095D02*
X69334342Y-67738095D01*
X69334342Y-67738095D02*
X69429580Y-67785714D01*
X69429580Y-67785714D02*
X69477200Y-67833333D01*
X69477200Y-67833333D02*
X69524819Y-67928571D01*
X69524819Y-67928571D02*
X69524819Y-68309523D01*
X69524819Y-68309523D02*
X68524819Y-68309523D01*
X68524819Y-68309523D02*
X68524819Y-67976190D01*
X68524819Y-67976190D02*
X68572438Y-67880952D01*
X68572438Y-67880952D02*
X68620057Y-67833333D01*
X68620057Y-67833333D02*
X68715295Y-67785714D01*
X68715295Y-67785714D02*
X68810533Y-67785714D01*
X68810533Y-67785714D02*
X68905771Y-67833333D01*
X68905771Y-67833333D02*
X68953390Y-67880952D01*
X68953390Y-67880952D02*
X69001009Y-67976190D01*
X69001009Y-67976190D02*
X69001009Y-68309523D01*
X68620057Y-67357142D02*
X68572438Y-67309523D01*
X68572438Y-67309523D02*
X68524819Y-67214285D01*
X68524819Y-67214285D02*
X68524819Y-66976190D01*
X68524819Y-66976190D02*
X68572438Y-66880952D01*
X68572438Y-66880952D02*
X68620057Y-66833333D01*
X68620057Y-66833333D02*
X68715295Y-66785714D01*
X68715295Y-66785714D02*
X68810533Y-66785714D01*
X68810533Y-66785714D02*
X68953390Y-66833333D01*
X68953390Y-66833333D02*
X69524819Y-67404761D01*
X69524819Y-67404761D02*
X69524819Y-66785714D01*
X105506667Y-89247200D02*
X105649524Y-89294819D01*
X105649524Y-89294819D02*
X105887619Y-89294819D01*
X105887619Y-89294819D02*
X105982857Y-89247200D01*
X105982857Y-89247200D02*
X106030476Y-89199580D01*
X106030476Y-89199580D02*
X106078095Y-89104342D01*
X106078095Y-89104342D02*
X106078095Y-89009104D01*
X106078095Y-89009104D02*
X106030476Y-88913866D01*
X106030476Y-88913866D02*
X105982857Y-88866247D01*
X105982857Y-88866247D02*
X105887619Y-88818628D01*
X105887619Y-88818628D02*
X105697143Y-88771009D01*
X105697143Y-88771009D02*
X105601905Y-88723390D01*
X105601905Y-88723390D02*
X105554286Y-88675771D01*
X105554286Y-88675771D02*
X105506667Y-88580533D01*
X105506667Y-88580533D02*
X105506667Y-88485295D01*
X105506667Y-88485295D02*
X105554286Y-88390057D01*
X105554286Y-88390057D02*
X105601905Y-88342438D01*
X105601905Y-88342438D02*
X105697143Y-88294819D01*
X105697143Y-88294819D02*
X105935238Y-88294819D01*
X105935238Y-88294819D02*
X106078095Y-88342438D01*
X106411429Y-88294819D02*
X106649524Y-89294819D01*
X106649524Y-89294819D02*
X106840000Y-88580533D01*
X106840000Y-88580533D02*
X107030476Y-89294819D01*
X107030476Y-89294819D02*
X107268572Y-88294819D01*
X108078095Y-88628152D02*
X108078095Y-89294819D01*
X107840000Y-88247200D02*
X107601905Y-88961485D01*
X107601905Y-88961485D02*
X108220952Y-88961485D01*
X109213095Y-61659819D02*
X109213095Y-62469342D01*
X109213095Y-62469342D02*
X109260714Y-62564580D01*
X109260714Y-62564580D02*
X109308333Y-62612200D01*
X109308333Y-62612200D02*
X109403571Y-62659819D01*
X109403571Y-62659819D02*
X109594047Y-62659819D01*
X109594047Y-62659819D02*
X109689285Y-62612200D01*
X109689285Y-62612200D02*
X109736904Y-62564580D01*
X109736904Y-62564580D02*
X109784523Y-62469342D01*
X109784523Y-62469342D02*
X109784523Y-61659819D01*
X110213095Y-61755057D02*
X110260714Y-61707438D01*
X110260714Y-61707438D02*
X110355952Y-61659819D01*
X110355952Y-61659819D02*
X110594047Y-61659819D01*
X110594047Y-61659819D02*
X110689285Y-61707438D01*
X110689285Y-61707438D02*
X110736904Y-61755057D01*
X110736904Y-61755057D02*
X110784523Y-61850295D01*
X110784523Y-61850295D02*
X110784523Y-61945533D01*
X110784523Y-61945533D02*
X110736904Y-62088390D01*
X110736904Y-62088390D02*
X110165476Y-62659819D01*
X110165476Y-62659819D02*
X110784523Y-62659819D01*
X73486905Y-97884819D02*
X73486905Y-96884819D01*
X73486905Y-96884819D02*
X73725000Y-96884819D01*
X73725000Y-96884819D02*
X73867857Y-96932438D01*
X73867857Y-96932438D02*
X73963095Y-97027676D01*
X73963095Y-97027676D02*
X74010714Y-97122914D01*
X74010714Y-97122914D02*
X74058333Y-97313390D01*
X74058333Y-97313390D02*
X74058333Y-97456247D01*
X74058333Y-97456247D02*
X74010714Y-97646723D01*
X74010714Y-97646723D02*
X73963095Y-97741961D01*
X73963095Y-97741961D02*
X73867857Y-97837200D01*
X73867857Y-97837200D02*
X73725000Y-97884819D01*
X73725000Y-97884819D02*
X73486905Y-97884819D01*
X75010714Y-97884819D02*
X74439286Y-97884819D01*
X74725000Y-97884819D02*
X74725000Y-96884819D01*
X74725000Y-96884819D02*
X74629762Y-97027676D01*
X74629762Y-97027676D02*
X74534524Y-97122914D01*
X74534524Y-97122914D02*
X74439286Y-97170533D01*
X118699580Y-99388666D02*
X118747200Y-99436285D01*
X118747200Y-99436285D02*
X118794819Y-99579142D01*
X118794819Y-99579142D02*
X118794819Y-99674380D01*
X118794819Y-99674380D02*
X118747200Y-99817237D01*
X118747200Y-99817237D02*
X118651961Y-99912475D01*
X118651961Y-99912475D02*
X118556723Y-99960094D01*
X118556723Y-99960094D02*
X118366247Y-100007713D01*
X118366247Y-100007713D02*
X118223390Y-100007713D01*
X118223390Y-100007713D02*
X118032914Y-99960094D01*
X118032914Y-99960094D02*
X117937676Y-99912475D01*
X117937676Y-99912475D02*
X117842438Y-99817237D01*
X117842438Y-99817237D02*
X117794819Y-99674380D01*
X117794819Y-99674380D02*
X117794819Y-99579142D01*
X117794819Y-99579142D02*
X117842438Y-99436285D01*
X117842438Y-99436285D02*
X117890057Y-99388666D01*
X117794819Y-98483904D02*
X117794819Y-98960094D01*
X117794819Y-98960094D02*
X118271009Y-99007713D01*
X118271009Y-99007713D02*
X118223390Y-98960094D01*
X118223390Y-98960094D02*
X118175771Y-98864856D01*
X118175771Y-98864856D02*
X118175771Y-98626761D01*
X118175771Y-98626761D02*
X118223390Y-98531523D01*
X118223390Y-98531523D02*
X118271009Y-98483904D01*
X118271009Y-98483904D02*
X118366247Y-98436285D01*
X118366247Y-98436285D02*
X118604342Y-98436285D01*
X118604342Y-98436285D02*
X118699580Y-98483904D01*
X118699580Y-98483904D02*
X118747200Y-98531523D01*
X118747200Y-98531523D02*
X118794819Y-98626761D01*
X118794819Y-98626761D02*
X118794819Y-98864856D01*
X118794819Y-98864856D02*
X118747200Y-98960094D01*
X118747200Y-98960094D02*
X118699580Y-99007713D01*
X47611009Y-103333333D02*
X47611009Y-103666666D01*
X48134819Y-103666666D02*
X47134819Y-103666666D01*
X47134819Y-103666666D02*
X47134819Y-103190476D01*
X48134819Y-102285714D02*
X48134819Y-102857142D01*
X48134819Y-102571428D02*
X47134819Y-102571428D01*
X47134819Y-102571428D02*
X47277676Y-102666666D01*
X47277676Y-102666666D02*
X47372914Y-102761904D01*
X47372914Y-102761904D02*
X47420533Y-102857142D01*
X72394819Y-39333333D02*
X73109104Y-39333333D01*
X73109104Y-39333333D02*
X73251961Y-39380952D01*
X73251961Y-39380952D02*
X73347200Y-39476190D01*
X73347200Y-39476190D02*
X73394819Y-39619047D01*
X73394819Y-39619047D02*
X73394819Y-39714285D01*
X72490057Y-38904761D02*
X72442438Y-38857142D01*
X72442438Y-38857142D02*
X72394819Y-38761904D01*
X72394819Y-38761904D02*
X72394819Y-38523809D01*
X72394819Y-38523809D02*
X72442438Y-38428571D01*
X72442438Y-38428571D02*
X72490057Y-38380952D01*
X72490057Y-38380952D02*
X72585295Y-38333333D01*
X72585295Y-38333333D02*
X72680533Y-38333333D01*
X72680533Y-38333333D02*
X72823390Y-38380952D01*
X72823390Y-38380952D02*
X73394819Y-38952380D01*
X73394819Y-38952380D02*
X73394819Y-38333333D01*
X104979580Y-50842857D02*
X105027200Y-50890476D01*
X105027200Y-50890476D02*
X105074819Y-51033333D01*
X105074819Y-51033333D02*
X105074819Y-51128571D01*
X105074819Y-51128571D02*
X105027200Y-51271428D01*
X105027200Y-51271428D02*
X104931961Y-51366666D01*
X104931961Y-51366666D02*
X104836723Y-51414285D01*
X104836723Y-51414285D02*
X104646247Y-51461904D01*
X104646247Y-51461904D02*
X104503390Y-51461904D01*
X104503390Y-51461904D02*
X104312914Y-51414285D01*
X104312914Y-51414285D02*
X104217676Y-51366666D01*
X104217676Y-51366666D02*
X104122438Y-51271428D01*
X104122438Y-51271428D02*
X104074819Y-51128571D01*
X104074819Y-51128571D02*
X104074819Y-51033333D01*
X104074819Y-51033333D02*
X104122438Y-50890476D01*
X104122438Y-50890476D02*
X104170057Y-50842857D01*
X105074819Y-49890476D02*
X105074819Y-50461904D01*
X105074819Y-50176190D02*
X104074819Y-50176190D01*
X104074819Y-50176190D02*
X104217676Y-50271428D01*
X104217676Y-50271428D02*
X104312914Y-50366666D01*
X104312914Y-50366666D02*
X104360533Y-50461904D01*
X104074819Y-49557142D02*
X104074819Y-48890476D01*
X104074819Y-48890476D02*
X105074819Y-49319047D01*
X62794819Y-45186666D02*
X62318628Y-45519999D01*
X62794819Y-45758094D02*
X61794819Y-45758094D01*
X61794819Y-45758094D02*
X61794819Y-45377142D01*
X61794819Y-45377142D02*
X61842438Y-45281904D01*
X61842438Y-45281904D02*
X61890057Y-45234285D01*
X61890057Y-45234285D02*
X61985295Y-45186666D01*
X61985295Y-45186666D02*
X62128152Y-45186666D01*
X62128152Y-45186666D02*
X62223390Y-45234285D01*
X62223390Y-45234285D02*
X62271009Y-45281904D01*
X62271009Y-45281904D02*
X62318628Y-45377142D01*
X62318628Y-45377142D02*
X62318628Y-45758094D01*
X61794819Y-44329523D02*
X61794819Y-44519999D01*
X61794819Y-44519999D02*
X61842438Y-44615237D01*
X61842438Y-44615237D02*
X61890057Y-44662856D01*
X61890057Y-44662856D02*
X62032914Y-44758094D01*
X62032914Y-44758094D02*
X62223390Y-44805713D01*
X62223390Y-44805713D02*
X62604342Y-44805713D01*
X62604342Y-44805713D02*
X62699580Y-44758094D01*
X62699580Y-44758094D02*
X62747200Y-44710475D01*
X62747200Y-44710475D02*
X62794819Y-44615237D01*
X62794819Y-44615237D02*
X62794819Y-44424761D01*
X62794819Y-44424761D02*
X62747200Y-44329523D01*
X62747200Y-44329523D02*
X62699580Y-44281904D01*
X62699580Y-44281904D02*
X62604342Y-44234285D01*
X62604342Y-44234285D02*
X62366247Y-44234285D01*
X62366247Y-44234285D02*
X62271009Y-44281904D01*
X62271009Y-44281904D02*
X62223390Y-44329523D01*
X62223390Y-44329523D02*
X62175771Y-44424761D01*
X62175771Y-44424761D02*
X62175771Y-44615237D01*
X62175771Y-44615237D02*
X62223390Y-44710475D01*
X62223390Y-44710475D02*
X62271009Y-44758094D01*
X62271009Y-44758094D02*
X62366247Y-44805713D01*
X73486905Y-102884819D02*
X73486905Y-101884819D01*
X73486905Y-101884819D02*
X73725000Y-101884819D01*
X73725000Y-101884819D02*
X73867857Y-101932438D01*
X73867857Y-101932438D02*
X73963095Y-102027676D01*
X73963095Y-102027676D02*
X74010714Y-102122914D01*
X74010714Y-102122914D02*
X74058333Y-102313390D01*
X74058333Y-102313390D02*
X74058333Y-102456247D01*
X74058333Y-102456247D02*
X74010714Y-102646723D01*
X74010714Y-102646723D02*
X73963095Y-102741961D01*
X73963095Y-102741961D02*
X73867857Y-102837200D01*
X73867857Y-102837200D02*
X73725000Y-102884819D01*
X73725000Y-102884819D02*
X73486905Y-102884819D01*
X74677381Y-101884819D02*
X74772619Y-101884819D01*
X74772619Y-101884819D02*
X74867857Y-101932438D01*
X74867857Y-101932438D02*
X74915476Y-101980057D01*
X74915476Y-101980057D02*
X74963095Y-102075295D01*
X74963095Y-102075295D02*
X75010714Y-102265771D01*
X75010714Y-102265771D02*
X75010714Y-102503866D01*
X75010714Y-102503866D02*
X74963095Y-102694342D01*
X74963095Y-102694342D02*
X74915476Y-102789580D01*
X74915476Y-102789580D02*
X74867857Y-102837200D01*
X74867857Y-102837200D02*
X74772619Y-102884819D01*
X74772619Y-102884819D02*
X74677381Y-102884819D01*
X74677381Y-102884819D02*
X74582143Y-102837200D01*
X74582143Y-102837200D02*
X74534524Y-102789580D01*
X74534524Y-102789580D02*
X74486905Y-102694342D01*
X74486905Y-102694342D02*
X74439286Y-102503866D01*
X74439286Y-102503866D02*
X74439286Y-102265771D01*
X74439286Y-102265771D02*
X74486905Y-102075295D01*
X74486905Y-102075295D02*
X74534524Y-101980057D01*
X74534524Y-101980057D02*
X74582143Y-101932438D01*
X74582143Y-101932438D02*
X74677381Y-101884819D01*
X71024833Y-97615819D02*
X70691500Y-97139628D01*
X70453405Y-97615819D02*
X70453405Y-96615819D01*
X70453405Y-96615819D02*
X70834357Y-96615819D01*
X70834357Y-96615819D02*
X70929595Y-96663438D01*
X70929595Y-96663438D02*
X70977214Y-96711057D01*
X70977214Y-96711057D02*
X71024833Y-96806295D01*
X71024833Y-96806295D02*
X71024833Y-96949152D01*
X71024833Y-96949152D02*
X70977214Y-97044390D01*
X70977214Y-97044390D02*
X70929595Y-97092009D01*
X70929595Y-97092009D02*
X70834357Y-97139628D01*
X70834357Y-97139628D02*
X70453405Y-97139628D01*
X71405786Y-96711057D02*
X71453405Y-96663438D01*
X71453405Y-96663438D02*
X71548643Y-96615819D01*
X71548643Y-96615819D02*
X71786738Y-96615819D01*
X71786738Y-96615819D02*
X71881976Y-96663438D01*
X71881976Y-96663438D02*
X71929595Y-96711057D01*
X71929595Y-96711057D02*
X71977214Y-96806295D01*
X71977214Y-96806295D02*
X71977214Y-96901533D01*
X71977214Y-96901533D02*
X71929595Y-97044390D01*
X71929595Y-97044390D02*
X71358167Y-97615819D01*
X71358167Y-97615819D02*
X71977214Y-97615819D01*
X72394819Y-78809523D02*
X73109104Y-78809523D01*
X73109104Y-78809523D02*
X73251961Y-78857142D01*
X73251961Y-78857142D02*
X73347200Y-78952380D01*
X73347200Y-78952380D02*
X73394819Y-79095237D01*
X73394819Y-79095237D02*
X73394819Y-79190475D01*
X73394819Y-77809523D02*
X73394819Y-78380951D01*
X73394819Y-78095237D02*
X72394819Y-78095237D01*
X72394819Y-78095237D02*
X72537676Y-78190475D01*
X72537676Y-78190475D02*
X72632914Y-78285713D01*
X72632914Y-78285713D02*
X72680533Y-78380951D01*
X72394819Y-77476189D02*
X72394819Y-76857142D01*
X72394819Y-76857142D02*
X72775771Y-77190475D01*
X72775771Y-77190475D02*
X72775771Y-77047618D01*
X72775771Y-77047618D02*
X72823390Y-76952380D01*
X72823390Y-76952380D02*
X72871009Y-76904761D01*
X72871009Y-76904761D02*
X72966247Y-76857142D01*
X72966247Y-76857142D02*
X73204342Y-76857142D01*
X73204342Y-76857142D02*
X73299580Y-76904761D01*
X73299580Y-76904761D02*
X73347200Y-76952380D01*
X73347200Y-76952380D02*
X73394819Y-77047618D01*
X73394819Y-77047618D02*
X73394819Y-77333332D01*
X73394819Y-77333332D02*
X73347200Y-77428570D01*
X73347200Y-77428570D02*
X73299580Y-77476189D01*
X42844819Y-100432857D02*
X42368628Y-100766190D01*
X42844819Y-101004285D02*
X41844819Y-101004285D01*
X41844819Y-101004285D02*
X41844819Y-100623333D01*
X41844819Y-100623333D02*
X41892438Y-100528095D01*
X41892438Y-100528095D02*
X41940057Y-100480476D01*
X41940057Y-100480476D02*
X42035295Y-100432857D01*
X42035295Y-100432857D02*
X42178152Y-100432857D01*
X42178152Y-100432857D02*
X42273390Y-100480476D01*
X42273390Y-100480476D02*
X42321009Y-100528095D01*
X42321009Y-100528095D02*
X42368628Y-100623333D01*
X42368628Y-100623333D02*
X42368628Y-101004285D01*
X42844819Y-99480476D02*
X42844819Y-100051904D01*
X42844819Y-99766190D02*
X41844819Y-99766190D01*
X41844819Y-99766190D02*
X41987676Y-99861428D01*
X41987676Y-99861428D02*
X42082914Y-99956666D01*
X42082914Y-99956666D02*
X42130533Y-100051904D01*
X42844819Y-98528095D02*
X42844819Y-99099523D01*
X42844819Y-98813809D02*
X41844819Y-98813809D01*
X41844819Y-98813809D02*
X41987676Y-98909047D01*
X41987676Y-98909047D02*
X42082914Y-99004285D01*
X42082914Y-99004285D02*
X42130533Y-99099523D01*
X105699580Y-63908666D02*
X105747200Y-63956285D01*
X105747200Y-63956285D02*
X105794819Y-64099142D01*
X105794819Y-64099142D02*
X105794819Y-64194380D01*
X105794819Y-64194380D02*
X105747200Y-64337237D01*
X105747200Y-64337237D02*
X105651961Y-64432475D01*
X105651961Y-64432475D02*
X105556723Y-64480094D01*
X105556723Y-64480094D02*
X105366247Y-64527713D01*
X105366247Y-64527713D02*
X105223390Y-64527713D01*
X105223390Y-64527713D02*
X105032914Y-64480094D01*
X105032914Y-64480094D02*
X104937676Y-64432475D01*
X104937676Y-64432475D02*
X104842438Y-64337237D01*
X104842438Y-64337237D02*
X104794819Y-64194380D01*
X104794819Y-64194380D02*
X104794819Y-64099142D01*
X104794819Y-64099142D02*
X104842438Y-63956285D01*
X104842438Y-63956285D02*
X104890057Y-63908666D01*
X104890057Y-63527713D02*
X104842438Y-63480094D01*
X104842438Y-63480094D02*
X104794819Y-63384856D01*
X104794819Y-63384856D02*
X104794819Y-63146761D01*
X104794819Y-63146761D02*
X104842438Y-63051523D01*
X104842438Y-63051523D02*
X104890057Y-63003904D01*
X104890057Y-63003904D02*
X104985295Y-62956285D01*
X104985295Y-62956285D02*
X105080533Y-62956285D01*
X105080533Y-62956285D02*
X105223390Y-63003904D01*
X105223390Y-63003904D02*
X105794819Y-63575332D01*
X105794819Y-63575332D02*
X105794819Y-62956285D01*
X37394819Y-78809523D02*
X38109104Y-78809523D01*
X38109104Y-78809523D02*
X38251961Y-78857142D01*
X38251961Y-78857142D02*
X38347200Y-78952380D01*
X38347200Y-78952380D02*
X38394819Y-79095237D01*
X38394819Y-79095237D02*
X38394819Y-79190475D01*
X38394819Y-77809523D02*
X38394819Y-78380951D01*
X38394819Y-78095237D02*
X37394819Y-78095237D01*
X37394819Y-78095237D02*
X37537676Y-78190475D01*
X37537676Y-78190475D02*
X37632914Y-78285713D01*
X37632914Y-78285713D02*
X37680533Y-78380951D01*
X37394819Y-76904761D02*
X37394819Y-77380951D01*
X37394819Y-77380951D02*
X37871009Y-77428570D01*
X37871009Y-77428570D02*
X37823390Y-77380951D01*
X37823390Y-77380951D02*
X37775771Y-77285713D01*
X37775771Y-77285713D02*
X37775771Y-77047618D01*
X37775771Y-77047618D02*
X37823390Y-76952380D01*
X37823390Y-76952380D02*
X37871009Y-76904761D01*
X37871009Y-76904761D02*
X37966247Y-76857142D01*
X37966247Y-76857142D02*
X38204342Y-76857142D01*
X38204342Y-76857142D02*
X38299580Y-76904761D01*
X38299580Y-76904761D02*
X38347200Y-76952380D01*
X38347200Y-76952380D02*
X38394819Y-77047618D01*
X38394819Y-77047618D02*
X38394819Y-77285713D01*
X38394819Y-77285713D02*
X38347200Y-77380951D01*
X38347200Y-77380951D02*
X38299580Y-77428570D01*
X56199580Y-64155857D02*
X56247200Y-64203476D01*
X56247200Y-64203476D02*
X56294819Y-64346333D01*
X56294819Y-64346333D02*
X56294819Y-64441571D01*
X56294819Y-64441571D02*
X56247200Y-64584428D01*
X56247200Y-64584428D02*
X56151961Y-64679666D01*
X56151961Y-64679666D02*
X56056723Y-64727285D01*
X56056723Y-64727285D02*
X55866247Y-64774904D01*
X55866247Y-64774904D02*
X55723390Y-64774904D01*
X55723390Y-64774904D02*
X55532914Y-64727285D01*
X55532914Y-64727285D02*
X55437676Y-64679666D01*
X55437676Y-64679666D02*
X55342438Y-64584428D01*
X55342438Y-64584428D02*
X55294819Y-64441571D01*
X55294819Y-64441571D02*
X55294819Y-64346333D01*
X55294819Y-64346333D02*
X55342438Y-64203476D01*
X55342438Y-64203476D02*
X55390057Y-64155857D01*
X56294819Y-63203476D02*
X56294819Y-63774904D01*
X56294819Y-63489190D02*
X55294819Y-63489190D01*
X55294819Y-63489190D02*
X55437676Y-63584428D01*
X55437676Y-63584428D02*
X55532914Y-63679666D01*
X55532914Y-63679666D02*
X55580533Y-63774904D01*
X55294819Y-62870142D02*
X55294819Y-62251095D01*
X55294819Y-62251095D02*
X55675771Y-62584428D01*
X55675771Y-62584428D02*
X55675771Y-62441571D01*
X55675771Y-62441571D02*
X55723390Y-62346333D01*
X55723390Y-62346333D02*
X55771009Y-62298714D01*
X55771009Y-62298714D02*
X55866247Y-62251095D01*
X55866247Y-62251095D02*
X56104342Y-62251095D01*
X56104342Y-62251095D02*
X56199580Y-62298714D01*
X56199580Y-62298714D02*
X56247200Y-62346333D01*
X56247200Y-62346333D02*
X56294819Y-62441571D01*
X56294819Y-62441571D02*
X56294819Y-62727285D01*
X56294819Y-62727285D02*
X56247200Y-62822523D01*
X56247200Y-62822523D02*
X56199580Y-62870142D01*
X91654819Y-48161904D02*
X92464342Y-48161904D01*
X92464342Y-48161904D02*
X92559580Y-48114285D01*
X92559580Y-48114285D02*
X92607200Y-48066666D01*
X92607200Y-48066666D02*
X92654819Y-47971428D01*
X92654819Y-47971428D02*
X92654819Y-47780952D01*
X92654819Y-47780952D02*
X92607200Y-47685714D01*
X92607200Y-47685714D02*
X92559580Y-47638095D01*
X92559580Y-47638095D02*
X92464342Y-47590476D01*
X92464342Y-47590476D02*
X91654819Y-47590476D01*
X91654819Y-47209523D02*
X91654819Y-46590476D01*
X91654819Y-46590476D02*
X92035771Y-46923809D01*
X92035771Y-46923809D02*
X92035771Y-46780952D01*
X92035771Y-46780952D02*
X92083390Y-46685714D01*
X92083390Y-46685714D02*
X92131009Y-46638095D01*
X92131009Y-46638095D02*
X92226247Y-46590476D01*
X92226247Y-46590476D02*
X92464342Y-46590476D01*
X92464342Y-46590476D02*
X92559580Y-46638095D01*
X92559580Y-46638095D02*
X92607200Y-46685714D01*
X92607200Y-46685714D02*
X92654819Y-46780952D01*
X92654819Y-46780952D02*
X92654819Y-47066666D01*
X92654819Y-47066666D02*
X92607200Y-47161904D01*
X92607200Y-47161904D02*
X92559580Y-47209523D01*
X64519580Y-68622857D02*
X64567200Y-68670476D01*
X64567200Y-68670476D02*
X64614819Y-68813333D01*
X64614819Y-68813333D02*
X64614819Y-68908571D01*
X64614819Y-68908571D02*
X64567200Y-69051428D01*
X64567200Y-69051428D02*
X64471961Y-69146666D01*
X64471961Y-69146666D02*
X64376723Y-69194285D01*
X64376723Y-69194285D02*
X64186247Y-69241904D01*
X64186247Y-69241904D02*
X64043390Y-69241904D01*
X64043390Y-69241904D02*
X63852914Y-69194285D01*
X63852914Y-69194285D02*
X63757676Y-69146666D01*
X63757676Y-69146666D02*
X63662438Y-69051428D01*
X63662438Y-69051428D02*
X63614819Y-68908571D01*
X63614819Y-68908571D02*
X63614819Y-68813333D01*
X63614819Y-68813333D02*
X63662438Y-68670476D01*
X63662438Y-68670476D02*
X63710057Y-68622857D01*
X63710057Y-68241904D02*
X63662438Y-68194285D01*
X63662438Y-68194285D02*
X63614819Y-68099047D01*
X63614819Y-68099047D02*
X63614819Y-67860952D01*
X63614819Y-67860952D02*
X63662438Y-67765714D01*
X63662438Y-67765714D02*
X63710057Y-67718095D01*
X63710057Y-67718095D02*
X63805295Y-67670476D01*
X63805295Y-67670476D02*
X63900533Y-67670476D01*
X63900533Y-67670476D02*
X64043390Y-67718095D01*
X64043390Y-67718095D02*
X64614819Y-68289523D01*
X64614819Y-68289523D02*
X64614819Y-67670476D01*
X64614819Y-66718095D02*
X64614819Y-67289523D01*
X64614819Y-67003809D02*
X63614819Y-67003809D01*
X63614819Y-67003809D02*
X63757676Y-67099047D01*
X63757676Y-67099047D02*
X63852914Y-67194285D01*
X63852914Y-67194285D02*
X63900533Y-67289523D01*
X66233333Y-21899580D02*
X66185714Y-21947200D01*
X66185714Y-21947200D02*
X66042857Y-21994819D01*
X66042857Y-21994819D02*
X65947619Y-21994819D01*
X65947619Y-21994819D02*
X65804762Y-21947200D01*
X65804762Y-21947200D02*
X65709524Y-21851961D01*
X65709524Y-21851961D02*
X65661905Y-21756723D01*
X65661905Y-21756723D02*
X65614286Y-21566247D01*
X65614286Y-21566247D02*
X65614286Y-21423390D01*
X65614286Y-21423390D02*
X65661905Y-21232914D01*
X65661905Y-21232914D02*
X65709524Y-21137676D01*
X65709524Y-21137676D02*
X65804762Y-21042438D01*
X65804762Y-21042438D02*
X65947619Y-20994819D01*
X65947619Y-20994819D02*
X66042857Y-20994819D01*
X66042857Y-20994819D02*
X66185714Y-21042438D01*
X66185714Y-21042438D02*
X66233333Y-21090057D01*
X66566667Y-20994819D02*
X67233333Y-20994819D01*
X67233333Y-20994819D02*
X66804762Y-21994819D01*
X116738333Y-96794819D02*
X116405000Y-96318628D01*
X116166905Y-96794819D02*
X116166905Y-95794819D01*
X116166905Y-95794819D02*
X116547857Y-95794819D01*
X116547857Y-95794819D02*
X116643095Y-95842438D01*
X116643095Y-95842438D02*
X116690714Y-95890057D01*
X116690714Y-95890057D02*
X116738333Y-95985295D01*
X116738333Y-95985295D02*
X116738333Y-96128152D01*
X116738333Y-96128152D02*
X116690714Y-96223390D01*
X116690714Y-96223390D02*
X116643095Y-96271009D01*
X116643095Y-96271009D02*
X116547857Y-96318628D01*
X116547857Y-96318628D02*
X116166905Y-96318628D01*
X117309762Y-96223390D02*
X117214524Y-96175771D01*
X117214524Y-96175771D02*
X117166905Y-96128152D01*
X117166905Y-96128152D02*
X117119286Y-96032914D01*
X117119286Y-96032914D02*
X117119286Y-95985295D01*
X117119286Y-95985295D02*
X117166905Y-95890057D01*
X117166905Y-95890057D02*
X117214524Y-95842438D01*
X117214524Y-95842438D02*
X117309762Y-95794819D01*
X117309762Y-95794819D02*
X117500238Y-95794819D01*
X117500238Y-95794819D02*
X117595476Y-95842438D01*
X117595476Y-95842438D02*
X117643095Y-95890057D01*
X117643095Y-95890057D02*
X117690714Y-95985295D01*
X117690714Y-95985295D02*
X117690714Y-96032914D01*
X117690714Y-96032914D02*
X117643095Y-96128152D01*
X117643095Y-96128152D02*
X117595476Y-96175771D01*
X117595476Y-96175771D02*
X117500238Y-96223390D01*
X117500238Y-96223390D02*
X117309762Y-96223390D01*
X117309762Y-96223390D02*
X117214524Y-96271009D01*
X117214524Y-96271009D02*
X117166905Y-96318628D01*
X117166905Y-96318628D02*
X117119286Y-96413866D01*
X117119286Y-96413866D02*
X117119286Y-96604342D01*
X117119286Y-96604342D02*
X117166905Y-96699580D01*
X117166905Y-96699580D02*
X117214524Y-96747200D01*
X117214524Y-96747200D02*
X117309762Y-96794819D01*
X117309762Y-96794819D02*
X117500238Y-96794819D01*
X117500238Y-96794819D02*
X117595476Y-96747200D01*
X117595476Y-96747200D02*
X117643095Y-96699580D01*
X117643095Y-96699580D02*
X117690714Y-96604342D01*
X117690714Y-96604342D02*
X117690714Y-96413866D01*
X117690714Y-96413866D02*
X117643095Y-96318628D01*
X117643095Y-96318628D02*
X117595476Y-96271009D01*
X117595476Y-96271009D02*
X117500238Y-96223390D01*
X46474819Y-101122857D02*
X45998628Y-101456190D01*
X46474819Y-101694285D02*
X45474819Y-101694285D01*
X45474819Y-101694285D02*
X45474819Y-101313333D01*
X45474819Y-101313333D02*
X45522438Y-101218095D01*
X45522438Y-101218095D02*
X45570057Y-101170476D01*
X45570057Y-101170476D02*
X45665295Y-101122857D01*
X45665295Y-101122857D02*
X45808152Y-101122857D01*
X45808152Y-101122857D02*
X45903390Y-101170476D01*
X45903390Y-101170476D02*
X45951009Y-101218095D01*
X45951009Y-101218095D02*
X45998628Y-101313333D01*
X45998628Y-101313333D02*
X45998628Y-101694285D01*
X46474819Y-100170476D02*
X46474819Y-100741904D01*
X46474819Y-100456190D02*
X45474819Y-100456190D01*
X45474819Y-100456190D02*
X45617676Y-100551428D01*
X45617676Y-100551428D02*
X45712914Y-100646666D01*
X45712914Y-100646666D02*
X45760533Y-100741904D01*
X45474819Y-99551428D02*
X45474819Y-99456190D01*
X45474819Y-99456190D02*
X45522438Y-99360952D01*
X45522438Y-99360952D02*
X45570057Y-99313333D01*
X45570057Y-99313333D02*
X45665295Y-99265714D01*
X45665295Y-99265714D02*
X45855771Y-99218095D01*
X45855771Y-99218095D02*
X46093866Y-99218095D01*
X46093866Y-99218095D02*
X46284342Y-99265714D01*
X46284342Y-99265714D02*
X46379580Y-99313333D01*
X46379580Y-99313333D02*
X46427200Y-99360952D01*
X46427200Y-99360952D02*
X46474819Y-99456190D01*
X46474819Y-99456190D02*
X46474819Y-99551428D01*
X46474819Y-99551428D02*
X46427200Y-99646666D01*
X46427200Y-99646666D02*
X46379580Y-99694285D01*
X46379580Y-99694285D02*
X46284342Y-99741904D01*
X46284342Y-99741904D02*
X46093866Y-99789523D01*
X46093866Y-99789523D02*
X45855771Y-99789523D01*
X45855771Y-99789523D02*
X45665295Y-99741904D01*
X45665295Y-99741904D02*
X45570057Y-99694285D01*
X45570057Y-99694285D02*
X45522438Y-99646666D01*
X45522438Y-99646666D02*
X45474819Y-99551428D01*
X75393333Y-68789580D02*
X75345714Y-68837200D01*
X75345714Y-68837200D02*
X75202857Y-68884819D01*
X75202857Y-68884819D02*
X75107619Y-68884819D01*
X75107619Y-68884819D02*
X74964762Y-68837200D01*
X74964762Y-68837200D02*
X74869524Y-68741961D01*
X74869524Y-68741961D02*
X74821905Y-68646723D01*
X74821905Y-68646723D02*
X74774286Y-68456247D01*
X74774286Y-68456247D02*
X74774286Y-68313390D01*
X74774286Y-68313390D02*
X74821905Y-68122914D01*
X74821905Y-68122914D02*
X74869524Y-68027676D01*
X74869524Y-68027676D02*
X74964762Y-67932438D01*
X74964762Y-67932438D02*
X75107619Y-67884819D01*
X75107619Y-67884819D02*
X75202857Y-67884819D01*
X75202857Y-67884819D02*
X75345714Y-67932438D01*
X75345714Y-67932438D02*
X75393333Y-67980057D01*
X75964762Y-68313390D02*
X75869524Y-68265771D01*
X75869524Y-68265771D02*
X75821905Y-68218152D01*
X75821905Y-68218152D02*
X75774286Y-68122914D01*
X75774286Y-68122914D02*
X75774286Y-68075295D01*
X75774286Y-68075295D02*
X75821905Y-67980057D01*
X75821905Y-67980057D02*
X75869524Y-67932438D01*
X75869524Y-67932438D02*
X75964762Y-67884819D01*
X75964762Y-67884819D02*
X76155238Y-67884819D01*
X76155238Y-67884819D02*
X76250476Y-67932438D01*
X76250476Y-67932438D02*
X76298095Y-67980057D01*
X76298095Y-67980057D02*
X76345714Y-68075295D01*
X76345714Y-68075295D02*
X76345714Y-68122914D01*
X76345714Y-68122914D02*
X76298095Y-68218152D01*
X76298095Y-68218152D02*
X76250476Y-68265771D01*
X76250476Y-68265771D02*
X76155238Y-68313390D01*
X76155238Y-68313390D02*
X75964762Y-68313390D01*
X75964762Y-68313390D02*
X75869524Y-68361009D01*
X75869524Y-68361009D02*
X75821905Y-68408628D01*
X75821905Y-68408628D02*
X75774286Y-68503866D01*
X75774286Y-68503866D02*
X75774286Y-68694342D01*
X75774286Y-68694342D02*
X75821905Y-68789580D01*
X75821905Y-68789580D02*
X75869524Y-68837200D01*
X75869524Y-68837200D02*
X75964762Y-68884819D01*
X75964762Y-68884819D02*
X76155238Y-68884819D01*
X76155238Y-68884819D02*
X76250476Y-68837200D01*
X76250476Y-68837200D02*
X76298095Y-68789580D01*
X76298095Y-68789580D02*
X76345714Y-68694342D01*
X76345714Y-68694342D02*
X76345714Y-68503866D01*
X76345714Y-68503866D02*
X76298095Y-68408628D01*
X76298095Y-68408628D02*
X76250476Y-68361009D01*
X76250476Y-68361009D02*
X76155238Y-68313390D01*
X56534819Y-58436904D02*
X57344342Y-58436904D01*
X57344342Y-58436904D02*
X57439580Y-58389285D01*
X57439580Y-58389285D02*
X57487200Y-58341666D01*
X57487200Y-58341666D02*
X57534819Y-58246428D01*
X57534819Y-58246428D02*
X57534819Y-58055952D01*
X57534819Y-58055952D02*
X57487200Y-57960714D01*
X57487200Y-57960714D02*
X57439580Y-57913095D01*
X57439580Y-57913095D02*
X57344342Y-57865476D01*
X57344342Y-57865476D02*
X56534819Y-57865476D01*
X57534819Y-56865476D02*
X57534819Y-57436904D01*
X57534819Y-57151190D02*
X56534819Y-57151190D01*
X56534819Y-57151190D02*
X56677676Y-57246428D01*
X56677676Y-57246428D02*
X56772914Y-57341666D01*
X56772914Y-57341666D02*
X56820533Y-57436904D01*
X63334819Y-47666666D02*
X62858628Y-47999999D01*
X63334819Y-48238094D02*
X62334819Y-48238094D01*
X62334819Y-48238094D02*
X62334819Y-47857142D01*
X62334819Y-47857142D02*
X62382438Y-47761904D01*
X62382438Y-47761904D02*
X62430057Y-47714285D01*
X62430057Y-47714285D02*
X62525295Y-47666666D01*
X62525295Y-47666666D02*
X62668152Y-47666666D01*
X62668152Y-47666666D02*
X62763390Y-47714285D01*
X62763390Y-47714285D02*
X62811009Y-47761904D01*
X62811009Y-47761904D02*
X62858628Y-47857142D01*
X62858628Y-47857142D02*
X62858628Y-48238094D01*
X63334819Y-47190475D02*
X63334819Y-46999999D01*
X63334819Y-46999999D02*
X63287200Y-46904761D01*
X63287200Y-46904761D02*
X63239580Y-46857142D01*
X63239580Y-46857142D02*
X63096723Y-46761904D01*
X63096723Y-46761904D02*
X62906247Y-46714285D01*
X62906247Y-46714285D02*
X62525295Y-46714285D01*
X62525295Y-46714285D02*
X62430057Y-46761904D01*
X62430057Y-46761904D02*
X62382438Y-46809523D01*
X62382438Y-46809523D02*
X62334819Y-46904761D01*
X62334819Y-46904761D02*
X62334819Y-47095237D01*
X62334819Y-47095237D02*
X62382438Y-47190475D01*
X62382438Y-47190475D02*
X62430057Y-47238094D01*
X62430057Y-47238094D02*
X62525295Y-47285713D01*
X62525295Y-47285713D02*
X62763390Y-47285713D01*
X62763390Y-47285713D02*
X62858628Y-47238094D01*
X62858628Y-47238094D02*
X62906247Y-47190475D01*
X62906247Y-47190475D02*
X62953866Y-47095237D01*
X62953866Y-47095237D02*
X62953866Y-46904761D01*
X62953866Y-46904761D02*
X62906247Y-46809523D01*
X62906247Y-46809523D02*
X62858628Y-46761904D01*
X62858628Y-46761904D02*
X62763390Y-46714285D01*
X73537142Y-66429580D02*
X73489523Y-66477200D01*
X73489523Y-66477200D02*
X73346666Y-66524819D01*
X73346666Y-66524819D02*
X73251428Y-66524819D01*
X73251428Y-66524819D02*
X73108571Y-66477200D01*
X73108571Y-66477200D02*
X73013333Y-66381961D01*
X73013333Y-66381961D02*
X72965714Y-66286723D01*
X72965714Y-66286723D02*
X72918095Y-66096247D01*
X72918095Y-66096247D02*
X72918095Y-65953390D01*
X72918095Y-65953390D02*
X72965714Y-65762914D01*
X72965714Y-65762914D02*
X73013333Y-65667676D01*
X73013333Y-65667676D02*
X73108571Y-65572438D01*
X73108571Y-65572438D02*
X73251428Y-65524819D01*
X73251428Y-65524819D02*
X73346666Y-65524819D01*
X73346666Y-65524819D02*
X73489523Y-65572438D01*
X73489523Y-65572438D02*
X73537142Y-65620057D01*
X74489523Y-66524819D02*
X73918095Y-66524819D01*
X74203809Y-66524819D02*
X74203809Y-65524819D01*
X74203809Y-65524819D02*
X74108571Y-65667676D01*
X74108571Y-65667676D02*
X74013333Y-65762914D01*
X74013333Y-65762914D02*
X73918095Y-65810533D01*
X74870476Y-65620057D02*
X74918095Y-65572438D01*
X74918095Y-65572438D02*
X75013333Y-65524819D01*
X75013333Y-65524819D02*
X75251428Y-65524819D01*
X75251428Y-65524819D02*
X75346666Y-65572438D01*
X75346666Y-65572438D02*
X75394285Y-65620057D01*
X75394285Y-65620057D02*
X75441904Y-65715295D01*
X75441904Y-65715295D02*
X75441904Y-65810533D01*
X75441904Y-65810533D02*
X75394285Y-65953390D01*
X75394285Y-65953390D02*
X74822857Y-66524819D01*
X74822857Y-66524819D02*
X75441904Y-66524819D01*
X114877142Y-68749580D02*
X114829523Y-68797200D01*
X114829523Y-68797200D02*
X114686666Y-68844819D01*
X114686666Y-68844819D02*
X114591428Y-68844819D01*
X114591428Y-68844819D02*
X114448571Y-68797200D01*
X114448571Y-68797200D02*
X114353333Y-68701961D01*
X114353333Y-68701961D02*
X114305714Y-68606723D01*
X114305714Y-68606723D02*
X114258095Y-68416247D01*
X114258095Y-68416247D02*
X114258095Y-68273390D01*
X114258095Y-68273390D02*
X114305714Y-68082914D01*
X114305714Y-68082914D02*
X114353333Y-67987676D01*
X114353333Y-67987676D02*
X114448571Y-67892438D01*
X114448571Y-67892438D02*
X114591428Y-67844819D01*
X114591428Y-67844819D02*
X114686666Y-67844819D01*
X114686666Y-67844819D02*
X114829523Y-67892438D01*
X114829523Y-67892438D02*
X114877142Y-67940057D01*
X115829523Y-68844819D02*
X115258095Y-68844819D01*
X115543809Y-68844819D02*
X115543809Y-67844819D01*
X115543809Y-67844819D02*
X115448571Y-67987676D01*
X115448571Y-67987676D02*
X115353333Y-68082914D01*
X115353333Y-68082914D02*
X115258095Y-68130533D01*
X116734285Y-67844819D02*
X116258095Y-67844819D01*
X116258095Y-67844819D02*
X116210476Y-68321009D01*
X116210476Y-68321009D02*
X116258095Y-68273390D01*
X116258095Y-68273390D02*
X116353333Y-68225771D01*
X116353333Y-68225771D02*
X116591428Y-68225771D01*
X116591428Y-68225771D02*
X116686666Y-68273390D01*
X116686666Y-68273390D02*
X116734285Y-68321009D01*
X116734285Y-68321009D02*
X116781904Y-68416247D01*
X116781904Y-68416247D02*
X116781904Y-68654342D01*
X116781904Y-68654342D02*
X116734285Y-68749580D01*
X116734285Y-68749580D02*
X116686666Y-68797200D01*
X116686666Y-68797200D02*
X116591428Y-68844819D01*
X116591428Y-68844819D02*
X116353333Y-68844819D01*
X116353333Y-68844819D02*
X116258095Y-68797200D01*
X116258095Y-68797200D02*
X116210476Y-68749580D01*
X84861009Y-45333333D02*
X84861009Y-45666666D01*
X85384819Y-45666666D02*
X84384819Y-45666666D01*
X84384819Y-45666666D02*
X84384819Y-45190476D01*
X84861009Y-44476190D02*
X84908628Y-44333333D01*
X84908628Y-44333333D02*
X84956247Y-44285714D01*
X84956247Y-44285714D02*
X85051485Y-44238095D01*
X85051485Y-44238095D02*
X85194342Y-44238095D01*
X85194342Y-44238095D02*
X85289580Y-44285714D01*
X85289580Y-44285714D02*
X85337200Y-44333333D01*
X85337200Y-44333333D02*
X85384819Y-44428571D01*
X85384819Y-44428571D02*
X85384819Y-44809523D01*
X85384819Y-44809523D02*
X84384819Y-44809523D01*
X84384819Y-44809523D02*
X84384819Y-44476190D01*
X84384819Y-44476190D02*
X84432438Y-44380952D01*
X84432438Y-44380952D02*
X84480057Y-44333333D01*
X84480057Y-44333333D02*
X84575295Y-44285714D01*
X84575295Y-44285714D02*
X84670533Y-44285714D01*
X84670533Y-44285714D02*
X84765771Y-44333333D01*
X84765771Y-44333333D02*
X84813390Y-44380952D01*
X84813390Y-44380952D02*
X84861009Y-44476190D01*
X84861009Y-44476190D02*
X84861009Y-44809523D01*
X84384819Y-43904761D02*
X84384819Y-43285714D01*
X84384819Y-43285714D02*
X84765771Y-43619047D01*
X84765771Y-43619047D02*
X84765771Y-43476190D01*
X84765771Y-43476190D02*
X84813390Y-43380952D01*
X84813390Y-43380952D02*
X84861009Y-43333333D01*
X84861009Y-43333333D02*
X84956247Y-43285714D01*
X84956247Y-43285714D02*
X85194342Y-43285714D01*
X85194342Y-43285714D02*
X85289580Y-43333333D01*
X85289580Y-43333333D02*
X85337200Y-43380952D01*
X85337200Y-43380952D02*
X85384819Y-43476190D01*
X85384819Y-43476190D02*
X85384819Y-43761904D01*
X85384819Y-43761904D02*
X85337200Y-43857142D01*
X85337200Y-43857142D02*
X85289580Y-43904761D01*
X59157142Y-46999580D02*
X59109523Y-47047200D01*
X59109523Y-47047200D02*
X58966666Y-47094819D01*
X58966666Y-47094819D02*
X58871428Y-47094819D01*
X58871428Y-47094819D02*
X58728571Y-47047200D01*
X58728571Y-47047200D02*
X58633333Y-46951961D01*
X58633333Y-46951961D02*
X58585714Y-46856723D01*
X58585714Y-46856723D02*
X58538095Y-46666247D01*
X58538095Y-46666247D02*
X58538095Y-46523390D01*
X58538095Y-46523390D02*
X58585714Y-46332914D01*
X58585714Y-46332914D02*
X58633333Y-46237676D01*
X58633333Y-46237676D02*
X58728571Y-46142438D01*
X58728571Y-46142438D02*
X58871428Y-46094819D01*
X58871428Y-46094819D02*
X58966666Y-46094819D01*
X58966666Y-46094819D02*
X59109523Y-46142438D01*
X59109523Y-46142438D02*
X59157142Y-46190057D01*
X59538095Y-46190057D02*
X59585714Y-46142438D01*
X59585714Y-46142438D02*
X59680952Y-46094819D01*
X59680952Y-46094819D02*
X59919047Y-46094819D01*
X59919047Y-46094819D02*
X60014285Y-46142438D01*
X60014285Y-46142438D02*
X60061904Y-46190057D01*
X60061904Y-46190057D02*
X60109523Y-46285295D01*
X60109523Y-46285295D02*
X60109523Y-46380533D01*
X60109523Y-46380533D02*
X60061904Y-46523390D01*
X60061904Y-46523390D02*
X59490476Y-47094819D01*
X59490476Y-47094819D02*
X60109523Y-47094819D01*
X60490476Y-46190057D02*
X60538095Y-46142438D01*
X60538095Y-46142438D02*
X60633333Y-46094819D01*
X60633333Y-46094819D02*
X60871428Y-46094819D01*
X60871428Y-46094819D02*
X60966666Y-46142438D01*
X60966666Y-46142438D02*
X61014285Y-46190057D01*
X61014285Y-46190057D02*
X61061904Y-46285295D01*
X61061904Y-46285295D02*
X61061904Y-46380533D01*
X61061904Y-46380533D02*
X61014285Y-46523390D01*
X61014285Y-46523390D02*
X60442857Y-47094819D01*
X60442857Y-47094819D02*
X61061904Y-47094819D01*
X99217142Y-47364819D02*
X98883809Y-46888628D01*
X98645714Y-47364819D02*
X98645714Y-46364819D01*
X98645714Y-46364819D02*
X99026666Y-46364819D01*
X99026666Y-46364819D02*
X99121904Y-46412438D01*
X99121904Y-46412438D02*
X99169523Y-46460057D01*
X99169523Y-46460057D02*
X99217142Y-46555295D01*
X99217142Y-46555295D02*
X99217142Y-46698152D01*
X99217142Y-46698152D02*
X99169523Y-46793390D01*
X99169523Y-46793390D02*
X99121904Y-46841009D01*
X99121904Y-46841009D02*
X99026666Y-46888628D01*
X99026666Y-46888628D02*
X98645714Y-46888628D01*
X100169523Y-47364819D02*
X99598095Y-47364819D01*
X99883809Y-47364819D02*
X99883809Y-46364819D01*
X99883809Y-46364819D02*
X99788571Y-46507676D01*
X99788571Y-46507676D02*
X99693333Y-46602914D01*
X99693333Y-46602914D02*
X99598095Y-46650533D01*
X100740952Y-46793390D02*
X100645714Y-46745771D01*
X100645714Y-46745771D02*
X100598095Y-46698152D01*
X100598095Y-46698152D02*
X100550476Y-46602914D01*
X100550476Y-46602914D02*
X100550476Y-46555295D01*
X100550476Y-46555295D02*
X100598095Y-46460057D01*
X100598095Y-46460057D02*
X100645714Y-46412438D01*
X100645714Y-46412438D02*
X100740952Y-46364819D01*
X100740952Y-46364819D02*
X100931428Y-46364819D01*
X100931428Y-46364819D02*
X101026666Y-46412438D01*
X101026666Y-46412438D02*
X101074285Y-46460057D01*
X101074285Y-46460057D02*
X101121904Y-46555295D01*
X101121904Y-46555295D02*
X101121904Y-46602914D01*
X101121904Y-46602914D02*
X101074285Y-46698152D01*
X101074285Y-46698152D02*
X101026666Y-46745771D01*
X101026666Y-46745771D02*
X100931428Y-46793390D01*
X100931428Y-46793390D02*
X100740952Y-46793390D01*
X100740952Y-46793390D02*
X100645714Y-46841009D01*
X100645714Y-46841009D02*
X100598095Y-46888628D01*
X100598095Y-46888628D02*
X100550476Y-46983866D01*
X100550476Y-46983866D02*
X100550476Y-47174342D01*
X100550476Y-47174342D02*
X100598095Y-47269580D01*
X100598095Y-47269580D02*
X100645714Y-47317200D01*
X100645714Y-47317200D02*
X100740952Y-47364819D01*
X100740952Y-47364819D02*
X100931428Y-47364819D01*
X100931428Y-47364819D02*
X101026666Y-47317200D01*
X101026666Y-47317200D02*
X101074285Y-47269580D01*
X101074285Y-47269580D02*
X101121904Y-47174342D01*
X101121904Y-47174342D02*
X101121904Y-46983866D01*
X101121904Y-46983866D02*
X101074285Y-46888628D01*
X101074285Y-46888628D02*
X101026666Y-46841009D01*
X101026666Y-46841009D02*
X100931428Y-46793390D01*
X32452200Y-33113332D02*
X32499819Y-32970475D01*
X32499819Y-32970475D02*
X32499819Y-32732380D01*
X32499819Y-32732380D02*
X32452200Y-32637142D01*
X32452200Y-32637142D02*
X32404580Y-32589523D01*
X32404580Y-32589523D02*
X32309342Y-32541904D01*
X32309342Y-32541904D02*
X32214104Y-32541904D01*
X32214104Y-32541904D02*
X32118866Y-32589523D01*
X32118866Y-32589523D02*
X32071247Y-32637142D01*
X32071247Y-32637142D02*
X32023628Y-32732380D01*
X32023628Y-32732380D02*
X31976009Y-32922856D01*
X31976009Y-32922856D02*
X31928390Y-33018094D01*
X31928390Y-33018094D02*
X31880771Y-33065713D01*
X31880771Y-33065713D02*
X31785533Y-33113332D01*
X31785533Y-33113332D02*
X31690295Y-33113332D01*
X31690295Y-33113332D02*
X31595057Y-33065713D01*
X31595057Y-33065713D02*
X31547438Y-33018094D01*
X31547438Y-33018094D02*
X31499819Y-32922856D01*
X31499819Y-32922856D02*
X31499819Y-32684761D01*
X31499819Y-32684761D02*
X31547438Y-32541904D01*
X31499819Y-32208570D02*
X32499819Y-31970475D01*
X32499819Y-31970475D02*
X31785533Y-31779999D01*
X31785533Y-31779999D02*
X32499819Y-31589523D01*
X32499819Y-31589523D02*
X31499819Y-31351428D01*
X31595057Y-31018094D02*
X31547438Y-30970475D01*
X31547438Y-30970475D02*
X31499819Y-30875237D01*
X31499819Y-30875237D02*
X31499819Y-30637142D01*
X31499819Y-30637142D02*
X31547438Y-30541904D01*
X31547438Y-30541904D02*
X31595057Y-30494285D01*
X31595057Y-30494285D02*
X31690295Y-30446666D01*
X31690295Y-30446666D02*
X31785533Y-30446666D01*
X31785533Y-30446666D02*
X31928390Y-30494285D01*
X31928390Y-30494285D02*
X32499819Y-31065713D01*
X32499819Y-31065713D02*
X32499819Y-30446666D01*
X32809819Y-34580666D02*
X32333628Y-34913999D01*
X32809819Y-35152094D02*
X31809819Y-35152094D01*
X31809819Y-35152094D02*
X31809819Y-34771142D01*
X31809819Y-34771142D02*
X31857438Y-34675904D01*
X31857438Y-34675904D02*
X31905057Y-34628285D01*
X31905057Y-34628285D02*
X32000295Y-34580666D01*
X32000295Y-34580666D02*
X32143152Y-34580666D01*
X32143152Y-34580666D02*
X32238390Y-34628285D01*
X32238390Y-34628285D02*
X32286009Y-34675904D01*
X32286009Y-34675904D02*
X32333628Y-34771142D01*
X32333628Y-34771142D02*
X32333628Y-35152094D01*
X32809819Y-33628285D02*
X32809819Y-34199713D01*
X32809819Y-33913999D02*
X31809819Y-33913999D01*
X31809819Y-33913999D02*
X31952676Y-34009237D01*
X31952676Y-34009237D02*
X32047914Y-34104475D01*
X32047914Y-34104475D02*
X32095533Y-34199713D01*
X40937142Y-104139580D02*
X40889523Y-104187200D01*
X40889523Y-104187200D02*
X40746666Y-104234819D01*
X40746666Y-104234819D02*
X40651428Y-104234819D01*
X40651428Y-104234819D02*
X40508571Y-104187200D01*
X40508571Y-104187200D02*
X40413333Y-104091961D01*
X40413333Y-104091961D02*
X40365714Y-103996723D01*
X40365714Y-103996723D02*
X40318095Y-103806247D01*
X40318095Y-103806247D02*
X40318095Y-103663390D01*
X40318095Y-103663390D02*
X40365714Y-103472914D01*
X40365714Y-103472914D02*
X40413333Y-103377676D01*
X40413333Y-103377676D02*
X40508571Y-103282438D01*
X40508571Y-103282438D02*
X40651428Y-103234819D01*
X40651428Y-103234819D02*
X40746666Y-103234819D01*
X40746666Y-103234819D02*
X40889523Y-103282438D01*
X40889523Y-103282438D02*
X40937142Y-103330057D01*
X41889523Y-104234819D02*
X41318095Y-104234819D01*
X41603809Y-104234819D02*
X41603809Y-103234819D01*
X41603809Y-103234819D02*
X41508571Y-103377676D01*
X41508571Y-103377676D02*
X41413333Y-103472914D01*
X41413333Y-103472914D02*
X41318095Y-103520533D01*
X42841904Y-104234819D02*
X42270476Y-104234819D01*
X42556190Y-104234819D02*
X42556190Y-103234819D01*
X42556190Y-103234819D02*
X42460952Y-103377676D01*
X42460952Y-103377676D02*
X42365714Y-103472914D01*
X42365714Y-103472914D02*
X42270476Y-103520533D01*
X83367142Y-41119580D02*
X83319523Y-41167200D01*
X83319523Y-41167200D02*
X83176666Y-41214819D01*
X83176666Y-41214819D02*
X83081428Y-41214819D01*
X83081428Y-41214819D02*
X82938571Y-41167200D01*
X82938571Y-41167200D02*
X82843333Y-41071961D01*
X82843333Y-41071961D02*
X82795714Y-40976723D01*
X82795714Y-40976723D02*
X82748095Y-40786247D01*
X82748095Y-40786247D02*
X82748095Y-40643390D01*
X82748095Y-40643390D02*
X82795714Y-40452914D01*
X82795714Y-40452914D02*
X82843333Y-40357676D01*
X82843333Y-40357676D02*
X82938571Y-40262438D01*
X82938571Y-40262438D02*
X83081428Y-40214819D01*
X83081428Y-40214819D02*
X83176666Y-40214819D01*
X83176666Y-40214819D02*
X83319523Y-40262438D01*
X83319523Y-40262438D02*
X83367142Y-40310057D01*
X84319523Y-41214819D02*
X83748095Y-41214819D01*
X84033809Y-41214819D02*
X84033809Y-40214819D01*
X84033809Y-40214819D02*
X83938571Y-40357676D01*
X83938571Y-40357676D02*
X83843333Y-40452914D01*
X83843333Y-40452914D02*
X83748095Y-40500533D01*
X84795714Y-41214819D02*
X84986190Y-41214819D01*
X84986190Y-41214819D02*
X85081428Y-41167200D01*
X85081428Y-41167200D02*
X85129047Y-41119580D01*
X85129047Y-41119580D02*
X85224285Y-40976723D01*
X85224285Y-40976723D02*
X85271904Y-40786247D01*
X85271904Y-40786247D02*
X85271904Y-40405295D01*
X85271904Y-40405295D02*
X85224285Y-40310057D01*
X85224285Y-40310057D02*
X85176666Y-40262438D01*
X85176666Y-40262438D02*
X85081428Y-40214819D01*
X85081428Y-40214819D02*
X84890952Y-40214819D01*
X84890952Y-40214819D02*
X84795714Y-40262438D01*
X84795714Y-40262438D02*
X84748095Y-40310057D01*
X84748095Y-40310057D02*
X84700476Y-40405295D01*
X84700476Y-40405295D02*
X84700476Y-40643390D01*
X84700476Y-40643390D02*
X84748095Y-40738628D01*
X84748095Y-40738628D02*
X84795714Y-40786247D01*
X84795714Y-40786247D02*
X84890952Y-40833866D01*
X84890952Y-40833866D02*
X85081428Y-40833866D01*
X85081428Y-40833866D02*
X85176666Y-40786247D01*
X85176666Y-40786247D02*
X85224285Y-40738628D01*
X85224285Y-40738628D02*
X85271904Y-40643390D01*
X96495833Y-50865819D02*
X96019643Y-50865819D01*
X96019643Y-50865819D02*
X96019643Y-49865819D01*
X97352976Y-50865819D02*
X96781548Y-50865819D01*
X97067262Y-50865819D02*
X97067262Y-49865819D01*
X97067262Y-49865819D02*
X96972024Y-50008676D01*
X96972024Y-50008676D02*
X96876786Y-50103914D01*
X96876786Y-50103914D02*
X96781548Y-50151533D01*
D13*
%TO.C,C16*%
X115392164Y-72190000D02*
X115607836Y-72190000D01*
X115392164Y-72910000D02*
X115607836Y-72910000D01*
%TO.C,C23*%
X74778164Y-49695000D02*
X74993836Y-49695000D01*
X74778164Y-50415000D02*
X74993836Y-50415000D01*
%TO.C,C10*%
X87490000Y-43140580D02*
X87490000Y-42859420D01*
X88510000Y-43140580D02*
X88510000Y-42859420D01*
%TO.C,J10*%
X64440000Y-28060000D02*
X64440000Y-27000000D01*
X65500000Y-28060000D02*
X64440000Y-28060000D01*
X66500000Y-28060000D02*
X84560000Y-28060000D01*
X66500000Y-28060000D02*
X66500000Y-26000000D01*
X84560000Y-28060000D02*
X84560000Y-23940000D01*
X64440000Y-26000000D02*
X64440000Y-23940000D01*
X66500000Y-26000000D02*
X64440000Y-26000000D01*
X64440000Y-23940000D02*
X84560000Y-23940000D01*
%TO.C,Q1*%
X47900000Y-97700000D02*
X47900000Y-99300000D01*
X51100000Y-99300000D02*
X51100000Y-97000000D01*
%TO.C,C26*%
X85779420Y-47400000D02*
X86060580Y-47400000D01*
X85779420Y-48420000D02*
X86060580Y-48420000D01*
%TO.C,C9*%
X45459420Y-103890000D02*
X45740580Y-103890000D01*
X45459420Y-104910000D02*
X45740580Y-104910000D01*
%TO.C,R3*%
X71311336Y-91361000D02*
X71095664Y-91361000D01*
X71311336Y-90641000D02*
X71095664Y-90641000D01*
%TO.C,J16*%
X38940000Y-40060000D02*
X38940000Y-39000000D01*
X40000000Y-40060000D02*
X38940000Y-40060000D01*
X41000000Y-40060000D02*
X71060000Y-40060000D01*
X41000000Y-40060000D02*
X41000000Y-37940000D01*
X71060000Y-40060000D02*
X71060000Y-37940000D01*
X41000000Y-37940000D02*
X71060000Y-37940000D01*
%TO.C,C3*%
X69820000Y-72117836D02*
X69820000Y-71902164D01*
X70540000Y-72117836D02*
X70540000Y-71902164D01*
%TO.C,R7*%
X116504000Y-93667164D02*
X116504000Y-93882836D01*
X115784000Y-93667164D02*
X115784000Y-93882836D01*
%TO.C,J11*%
X35940000Y-42440000D02*
X37000000Y-42440000D01*
X35940000Y-43500000D02*
X35940000Y-42440000D01*
X35940000Y-44500000D02*
X35940000Y-74560000D01*
X35940000Y-44500000D02*
X38060000Y-44500000D01*
X35940000Y-74560000D02*
X38060000Y-74560000D01*
X38060000Y-44500000D02*
X38060000Y-74560000D01*
%TO.C,Y2*%
X68310000Y-73000000D02*
X68310000Y-69700000D01*
X68310000Y-69700000D02*
X64310000Y-69700000D01*
%TO.C,C24*%
X100110000Y-51259420D02*
X100110000Y-51540580D01*
X99090000Y-51259420D02*
X99090000Y-51540580D01*
%TO.C,D2*%
X74365580Y-91510000D02*
X74084420Y-91510000D01*
X74365580Y-90490000D02*
X74084420Y-90490000D01*
%TO.C,C25*%
X79717836Y-42250000D02*
X79502164Y-42250000D01*
X79717836Y-41530000D02*
X79502164Y-41530000D01*
%TO.C,C4*%
X67607836Y-67860000D02*
X67392164Y-67860000D01*
X67607836Y-67140000D02*
X67392164Y-67140000D01*
%TO.C,C20*%
X76760000Y-51721164D02*
X76760000Y-51936836D01*
X76040000Y-51721164D02*
X76040000Y-51936836D01*
%TO.C,C1*%
X62650000Y-71657836D02*
X62650000Y-71442164D01*
X63370000Y-71657836D02*
X63370000Y-71442164D01*
%TO.C,C6*%
X65952164Y-29940000D02*
X66167836Y-29940000D01*
X65952164Y-30660000D02*
X66167836Y-30660000D01*
%TO.C,C18*%
X91832164Y-51050000D02*
X92047836Y-51050000D01*
X91832164Y-51770000D02*
X92047836Y-51770000D01*
%TO.C,J12*%
X37930000Y-106090000D02*
X52030000Y-106090000D01*
X37930000Y-110890000D02*
X37930000Y-106090000D01*
X37930000Y-119190000D02*
X37930000Y-114390000D01*
X45730000Y-105390000D02*
X46230000Y-105890000D01*
X46230000Y-105890000D02*
X46730000Y-105390000D01*
X46730000Y-105390000D02*
X45730000Y-105390000D01*
X52030000Y-106090000D02*
X52030000Y-110890000D01*
X52030000Y-114390000D02*
X52030000Y-119190000D01*
X52030000Y-119190000D02*
X37930000Y-119190000D01*
%TO.C,C14*%
X76400000Y-63872164D02*
X76400000Y-64087836D01*
X75680000Y-63872164D02*
X75680000Y-64087836D01*
%TO.C,FB1*%
X93460580Y-45080000D02*
X93179420Y-45080000D01*
X93460580Y-44060000D02*
X93179420Y-44060000D01*
%TO.C,R19*%
X70831500Y-101607836D02*
X70831500Y-101392164D01*
X71551500Y-101607836D02*
X71551500Y-101392164D01*
%TO.C,R17*%
X97450000Y-48367836D02*
X97450000Y-48152164D01*
X98170000Y-48367836D02*
X98170000Y-48152164D01*
%TO.C,FB2*%
X69990000Y-68140580D02*
X69990000Y-67859420D01*
X71010000Y-68140580D02*
X71010000Y-67859420D01*
%TO.C,SW4*%
X100860000Y-89850000D02*
X113160000Y-89850000D01*
X100860000Y-92570000D02*
X100860000Y-89850000D01*
X100860000Y-97570000D02*
X100860000Y-94430000D01*
X100860000Y-102150000D02*
X100860000Y-99430000D01*
X113160000Y-89850000D02*
X113160000Y-92570000D01*
X113160000Y-94430000D02*
X113160000Y-97570000D01*
X113160000Y-99430000D02*
X113160000Y-102150000D01*
X113160000Y-102150000D02*
X100860000Y-102150000D01*
X111689050Y-96040000D02*
G75*
G03*
X111689050Y-96040000I-4579050J0D01*
G01*
%TO.C,U2*%
X107865000Y-67635000D02*
X107865000Y-66910000D01*
X108590000Y-63415000D02*
X107865000Y-63415000D01*
X108590000Y-67635000D02*
X107865000Y-67635000D01*
X111360000Y-63415000D02*
X112085000Y-63415000D01*
X111360000Y-67635000D02*
X112085000Y-67635000D01*
X112085000Y-63415000D02*
X112085000Y-64140000D01*
X112085000Y-67635000D02*
X112085000Y-66910000D01*
%TO.C,D1*%
X74365580Y-96510000D02*
X74084420Y-96510000D01*
X74365580Y-95490000D02*
X74084420Y-95490000D01*
%TO.C,C5*%
X117540000Y-99114164D02*
X117540000Y-99329836D01*
X116820000Y-99114164D02*
X116820000Y-99329836D01*
%TO.C,F1*%
X48590000Y-103602064D02*
X48590000Y-102397936D01*
X50410000Y-103602064D02*
X50410000Y-102397936D01*
%TO.C,J2*%
X73940000Y-40060000D02*
X73940000Y-39000000D01*
X75000000Y-40060000D02*
X73940000Y-40060000D01*
X76000000Y-40060000D02*
X106060000Y-40060000D01*
X76000000Y-40060000D02*
X76000000Y-37940000D01*
X106060000Y-40060000D02*
X106060000Y-37940000D01*
X76000000Y-37940000D02*
X106060000Y-37940000D01*
%TO.C,C17*%
X103680000Y-49488748D02*
X103680000Y-50911252D01*
X101860000Y-49488748D02*
X101860000Y-50911252D01*
%TO.C,R6*%
X63140000Y-45127836D02*
X63140000Y-44912164D01*
X63860000Y-45127836D02*
X63860000Y-44912164D01*
%TO.C,D0*%
X74365580Y-101510000D02*
X74084420Y-101510000D01*
X74365580Y-100490000D02*
X74084420Y-100490000D01*
%TO.C,R2*%
X71299336Y-96361000D02*
X71083664Y-96361000D01*
X71299336Y-95641000D02*
X71083664Y-95641000D01*
%TO.C,J13*%
X73940000Y-79060000D02*
X73940000Y-78000000D01*
X75000000Y-79060000D02*
X73940000Y-79060000D01*
X76000000Y-79060000D02*
X106060000Y-79060000D01*
X76000000Y-79060000D02*
X76000000Y-76940000D01*
X106060000Y-79060000D02*
X106060000Y-76940000D01*
X76000000Y-76940000D02*
X106060000Y-76940000D01*
%TO.C,R11*%
X41590000Y-99682164D02*
X41590000Y-99897836D01*
X40870000Y-99682164D02*
X40870000Y-99897836D01*
%TO.C,C2*%
X106140000Y-63849836D02*
X106140000Y-63634164D01*
X106860000Y-63849836D02*
X106860000Y-63634164D01*
%TO.C,J15*%
X38940000Y-79060000D02*
X38940000Y-78000000D01*
X40000000Y-79060000D02*
X38940000Y-79060000D01*
X41000000Y-79060000D02*
X71060000Y-79060000D01*
X41000000Y-79060000D02*
X41000000Y-76940000D01*
X71060000Y-79060000D02*
X71060000Y-76940000D01*
X41000000Y-76940000D02*
X71060000Y-76940000D01*
%TO.C,C13*%
X56640000Y-63620836D02*
X56640000Y-63405164D01*
X57360000Y-63620836D02*
X57360000Y-63405164D01*
%TO.C,U3*%
X91360000Y-47400000D02*
X91360000Y-45600000D01*
X91360000Y-47400000D02*
X91360000Y-48200000D01*
X88240000Y-47400000D02*
X88240000Y-46600000D01*
X88240000Y-47400000D02*
X88240000Y-48200000D01*
%TO.C,C21*%
X63360000Y-67872164D02*
X63360000Y-68087836D01*
X62640000Y-67872164D02*
X62640000Y-68087836D01*
%TO.C,C7*%
X66292164Y-22340000D02*
X66507836Y-22340000D01*
X66292164Y-23060000D02*
X66507836Y-23060000D01*
%TO.C,R8*%
X116797164Y-97140000D02*
X117012836Y-97140000D01*
X116797164Y-97860000D02*
X117012836Y-97860000D01*
%TO.C,R10*%
X45220000Y-100372164D02*
X45220000Y-100587836D01*
X44500000Y-100372164D02*
X44500000Y-100587836D01*
%TO.C,C8*%
X75419420Y-69350000D02*
X75700580Y-69350000D01*
X75419420Y-70370000D02*
X75700580Y-70370000D01*
%TO.C,U1*%
X59390000Y-64785000D02*
X60090000Y-64785000D01*
X60090000Y-64785000D02*
X60090000Y-66150000D01*
X73610000Y-64785000D02*
X72910000Y-64785000D01*
X59390000Y-64085000D02*
X59390000Y-64785000D01*
X73610000Y-64085000D02*
X73610000Y-64785000D01*
X59390000Y-51265000D02*
X59390000Y-50565000D01*
X73610000Y-51265000D02*
X73610000Y-50565000D01*
X59390000Y-50565000D02*
X60090000Y-50565000D01*
X73610000Y-50565000D02*
X72910000Y-50565000D01*
%TO.C,R9*%
X63680000Y-47607836D02*
X63680000Y-47392164D01*
X64400000Y-47607836D02*
X64400000Y-47392164D01*
%TO.C,C12*%
X74039420Y-66990000D02*
X74320580Y-66990000D01*
X74039420Y-68010000D02*
X74320580Y-68010000D01*
%TO.C,C15*%
X115412164Y-69190000D02*
X115627836Y-69190000D01*
X115412164Y-69910000D02*
X115627836Y-69910000D01*
%TO.C,FB3*%
X84010000Y-44359420D02*
X84010000Y-44640580D01*
X82990000Y-44359420D02*
X82990000Y-44640580D01*
%TO.C,C22*%
X59692164Y-47440000D02*
X59907836Y-47440000D01*
X59692164Y-48160000D02*
X59907836Y-48160000D01*
%TO.C,R18*%
X99752164Y-47710000D02*
X99967836Y-47710000D01*
X99752164Y-48430000D02*
X99967836Y-48430000D01*
%TO.C,SW2*%
X28915000Y-28330000D02*
X28125000Y-28330000D01*
X27115000Y-28930000D02*
X27115000Y-34630000D01*
X29965000Y-30180000D02*
X29965000Y-31880000D01*
X27115000Y-30380000D02*
X25825000Y-30380000D01*
X25825000Y-30380000D02*
X25615000Y-30580000D01*
X25615000Y-30580000D02*
X25615000Y-31480000D01*
X25825000Y-31680000D02*
X25615000Y-31480000D01*
X25825000Y-31680000D02*
X27115000Y-31680000D01*
X29965000Y-33180000D02*
X29965000Y-33380000D01*
X28125000Y-35230000D02*
X28915000Y-35230000D01*
%TO.C,R1*%
X33155000Y-34521836D02*
X33155000Y-34306164D01*
X33875000Y-34521836D02*
X33875000Y-34306164D01*
%TO.C,C11*%
X41720580Y-102860000D02*
X41439420Y-102860000D01*
X41720580Y-101840000D02*
X41439420Y-101840000D01*
%TO.C,C19*%
X83869420Y-41680000D02*
X84150580Y-41680000D01*
X83869420Y-42700000D02*
X84150580Y-42700000D01*
%TO.C,L1*%
X96262878Y-51401000D02*
X97062122Y-51401000D01*
X96262878Y-52521000D02*
X97062122Y-52521000D01*
%TD*%
M02*
